{
.appVersion = "1035";
DisplayStrings = (
"+"
);
classes = (
{
automatic = 1;
code = "Delta Sigma Omega";
name = Uppercase;
}
);
copyright = j;
customParameters = (
{
name = fsType;
value = 0;
},
{
name = "Use Typo Metrics";
value = 1;
}
);
date = "2017-06-27 19:11:56 +0000";
designer = j;
designerURL = j;
disablesNiceNames = 1;
familyName = Math;
featurePrefixes = (
{
automatic = 1;
code = "languagesystem DFLT dflt;\012";
name = Languagesystems;
}
);
fontMaster = (
{
alignmentZones = (
"{705, 20}",
"{485, 20}",
"{0, -20}",
"{-180, -20}"
);
ascender = 705;
capHeight = 705;
customParameters = (
{
name = typoAscender;
value = 976;
},
{
name = typoDescender;
value = 279;
},
{
name = typoLineGap;
value = 0;
},
{
name = winAscent;
value = 976;
},
{
name = winDescent;
value = -279;
},
{
name = underlineThickness;
value = 0;
},
{
name = underlinePosition;
value = 0;
},
{
name = hheaLineGap;
value = 0;
}
);
descender = -180;
guideLines = (
{
angle = 90;
locked = 1;
position = "{150, 299}";
},
{
locked = 1;
position = "{191, -40}";
},
{
locked = 1;
position = "{217, 550}";
},
{
position = "{258, 750}";
},
{
position = "{217, 574}";
},
{
locked = 1;
position = "{258, 485}";
},
{
locked = 1;
position = "{258, 765}";
},
{
locked = 1;
position = "{258, 915}";
}
);
id = "9E718F8A-2CEA-4931-B05D-987794BD97DA";
userData = {
GSCornerRadius = 29;
};
weight = Light;
weightValue = 54;
xHeight = 485;
},
{
alignmentZones = (
"{705, 20}",
"{491, 20}",
"{0, -20}",
"{-180, -20}"
);
ascender = 705;
capHeight = 705;
customParameters = (
{
name = typoAscender;
value = 976;
},
{
name = typoDescender;
value = -279;
},
{
name = typoLineGap;
value = 0;
},
{
name = winAscent;
value = 976;
},
{
name = winDescent;
value = 279;
},
{
name = underlineThickness;
value = 0;
},
{
name = underlinePosition;
value = 0;
},
{
name = hheaAscender;
value = 976;
},
{
name = hheaDescender;
value = -279;
},
{
name = hheaLineGap;
value = 0;
}
);
descender = -180;
guideLines = (
{
angle = 90;
locked = 1;

glyphs = (
{
glyphname = Delta;
lastChange = "2016-09-26 10:57:09 +0000";
layers = (
{
background = {
paths = (
{
closed = 1;
nodes = (
"389 691 LINE",
"384 704 OFFCURVE",
"371 711 OFFCURVE",
"359 711 CURVE SMOOTH",
"347 711 OFFCURVE",
"334 704 OFFCURVE",
"329 691 CURVE",
"36 28 LINE",
"35 25 OFFCURVE",
"34 21 OFFCURVE",
"34 18 CURVE SMOOTH",
"34 4 OFFCURVE",
"47 0 OFFCURVE",
"60 0 CURVE SMOOTH",
"658 0 LINE SMOOTH",
"671 0 OFFCURVE",
"684 4 OFFCURVE",
"684 18 CURVE SMOOTH",
"684 21 OFFCURVE",
"684 24 OFFCURVE",
"682 28 CURVE"
);
},
{
closed = 1;
nodes = (
"345 666 LINE",
"635 7 LINE",
"662 48 LINE",
"56 48 LINE",
"83 7 LINE",
"373 666 LINE"
);
}
);
};
layerId = "9E718F8A-2CEA-4931-B05D-987794BD97DA";
paths = (
{
closed = 1;
nodes = (
"678 28 LINE",
"379 705 LINE",
"331 705 LINE",
"32 28 LINE",
"32 0 LINE",
"678 0 LINE"
);
},
{
closed = 1;
nodes = (
"341 666 LINE",
"631 7 LINE",
"658 48 LINE",
"52 48 LINE",
"79 7 LINE",
"369 666 LINE"
);
}
);
width = 718;
},
{
background = {
paths = (
{
closed = 1;
nodes = (
"460 661 LINE SMOOTH",
"444 694 OFFCURVE",
"410 711 OFFCURVE",
"376 711 CURVE SMOOTH",
"342 711 OFFCURVE",
"309 695 OFFCURVE",
"293 661 CURVE SMOOTH",
"24 98 LINE",
"19 86 OFFCURVE",
"16 75 OFFCURVE",
"16 65 CURVE SMOOTH",
"16 25 OFFCURVE",
"54 0 OFFCURVE",
"92 0 CURVE SMOOTH",
"663 0 LINE SMOOTH",
"700 0 OFFCURVE",
"737 25 OFFCURVE",
"737 65 CURVE SMOOTH",
"737 75 OFFCURVE",
"735 86 OFFCURVE",
"729 98 CURVE SMOOTH"
);
},
{
closed = 1;
nodes = (
"361 571 LINE",
"580 81 LINE",
"607 132 LINE",
"148 132 LINE",
"174 81 LINE",
"395 571 LINE"
);
}
);
};
layerId = "E1B555A7-F4E1-459C-9C1A-AE952106EEF9";
paths = (
{
closed = 1;
nodes = (
"439 705 LINE",
"314 705 LINE",
"31 112 LINE",
"31 0 LINE",
"722 0 LINE",
"722 112 LINE"
);
},
{
closed = 1;
nodes = (
"361 571 LINE",
"580 81 LINE",
"607 132 LINE",
"148 132 LINE",
"174 81 LINE",
"395 571 LINE"
);
}
);
width = 753;
}
);
leftKerningGroup = A;
rightKerningGroup = A;
unicode = 0394;
},
{
glyphname = Sigma;
lastChange = "2016-09-22 07:47:37 +0000";
layers = (
{
background = {
paths = (
{
closed = 1;
nodes = (
"78 -132 LINE",
"78 -173 LINE",
"358 232 LINE SMOOTH",
"375 257 OFFCURVE",
"374 270 OFFCURVE",
"358 294 CURVE SMOOTH",
"78 698 LINE",
"78 657 LINE",
"512 657 LINE SMOOTH",
"526 657 OFFCURVE",
"536 666 OFFCURVE",
"536 681 CURVE SMOOTH",
"536 696 OFFCURVE",
"526 705 OFFCURVE",
"512 705 CURVE SMOOTH",
"62 705 LINE SMOOTH",
"36 705 OFFCURVE",
"27 682 OFFCURVE",
"42 661 CURVE SMOOTH",
"343 226 LINE",
"343 300 LINE",
"42 -136 LINE SMOOTH",
"27 -157 OFFCURVE",
"36 -180 OFFCURVE",
"62 -180 CURVE SMOOTH",
"512 -180 LINE SMOOTH",
"526 -180 OFFCURVE",
"536 -171 OFFCURVE",
"536 -156 CURVE SMOOTH",
"536 -142 OFFCURVE",
"526 -132 OFFCURVE",
"512 -132 CURVE SMOOTH"
);
}
);
};
layerId = "9E718F8A-2CEA-4931-B05D-987794BD97DA";
paths = (
{
closed = 1;
nodes = (
"78 -132 LINE",
"78 -173 LINE",
"365 242 LINE",
"365 284 LINE",
"78 698 LINE",
"78 657 LINE",
"532 657 LINE",
"532 705 LINE",
"40 705 LINE",
"40 665 LINE",
"343 226 LINE",
"343 300 LINE",
"40 -140 LINE",
"40 -180 LINE",
"532 -180 LINE",
"532 -132 LINE"
);
}
);
width = 573;
},
{
background = {
paths = (
{
closed = 1;
nodes = (
"195 -51 LINE",
"195 -97 LINE",
"407 197 LINE SMOOTH",
"443 246 OFFCURVE",
"443 280 OFFCURVE",
"408 329 CURVE SMOOTH",
"195 622 LINE",
"195 576 LINE",
"497 576 LINE SMOOTH",
"550 576 OFFCURVE",
"573 599 OFFCURVE",
"573 640 CURVE SMOOTH",
"573 682 OFFCURVE",
"550 705 OFFCURVE",
"497 705 CURVE SMOOTH",
"101 705 LINE SMOOTH",
"34 705 OFFCURVE",
"9 637 OFFCURVE",
"51 580 CURVE SMOOTH",
"306 227 LINE",
"306 298 LINE",
"51 -55 LINE SMOOTH",
"10 -112 OFFCURVE",
"34 -180 OFFCURVE",
"101 -180 CURVE SMOOTH",
"497 -180 LINE SMOOTH",
"550 -180 OFFCURVE",
"573 -157 OFFCURVE",
"573 -115 CURVE SMOOTH",
"573 -74 OFFCURVE",
"550 -51 OFFCURVE",
"497 -51 CURVE SMOOTH"
);
}
);
};
layerId = "E1B555A7-F4E1-459C-9C1A-AE952106EEF9";
paths = (
{
closed = 1;
nodes = (
"195 -51 LINE",
"195 -97 LINE",
"419 214 LINE",
"420 312 LINE",
"195 622 LINE",
"195 576 LINE",
"560 576 LINE",
"560 705 LINE",
"45 705 LINE",
"45 589 LINE",
"306 227 LINE",
"306 298 LINE",
"45 -64 LINE",
"45 -180 LINE",
"560 -180 LINE",
"560 -51 LINE"
);
}
);
width = 607;
}
);
leftKerningGroup = Sigma;
rightKerningGroup = Sigma;
unicode = 03A3;
},
{
glyphname = Omega;
lastChange = "2016-09-22 07:47:37 +0000";
layers = (
{
background = {
paths = (
{
closed = 1;
nodes = (
"187 713 OFFCURVE",
"59 609 OFFCURVE",
"59 449 CURVE SMOOTH",
"59 348 OFFCURVE",
"96 275 OFFCURVE",
"271 28 CURVE",
"278 48 LINE",
"84 48 LINE SMOOTH",
"72 48 OFFCURVE",
"59 36 OFFCURVE",
"59 24 CURVE SMOOTH",
"59 12 OFFCURVE",
"71 0 OFFCURVE",
"84 0 CURVE SMOOTH",
"294 0 LINE SMOOTH",
"319 0 OFFCURVE",
"329 22 OFFCURVE",
"313 45 CURVE SMOOTH",
"165 260 OFFCURVE",
"116 359 OFFCURVE",
"116 449 CURVE SMOOTH",
"116 581 OFFCURVE",
"218 663 OFFCURVE",
"383 663 CURVE SMOOTH",
"548 663 OFFCURVE",
"650 581 OFFCURVE",
"650 449 CURVE SMOOTH",
"650 361 OFFCURVE",
"603 265 OFFCURVE",
"453 45 CURVE SMOOTH",
"437 22 OFFCURVE",
"447 0 OFFCURVE",
"472 0 CURVE SMOOTH",
"682 0 LINE SMOOTH",
"695 0 OFFCURVE",
"707 12 OFFCURVE",
"707 24 CURVE SMOOTH",
"707 36 OFFCURVE",
"695 48 OFFCURVE",
"682 48 CURVE SMOOTH",
"488 48 LINE",
"495 28 LINE",
"662 254 OFFCURVE",
"707 343 OFFCURVE",
"707 449 CURVE SMOOTH",
"707 609 OFFCURVE",
"579 713 OFFCURVE",
"383 713 CURVE SMOOTH"
);
}
);
};
layerId = "9E718F8A-2CEA-4931-B05D-987794BD97DA";
paths = (
{
closed = 1;
nodes = (
"187 713 OFFCURVE",
"59 609 OFFCURVE",
"59 449 CURVE SMOOTH",
"59 348 OFFCURVE",
"96 275 OFFCURVE",
"271 28 CURVE",
"278 48 LINE",
"64 48 LINE",
"64 0 LINE",
"313 0 LINE",
"313 45 LINE",
"165 260 OFFCURVE",
"116 359 OFFCURVE",
"116 449 CURVE SMOOTH",
"116 581 OFFCURVE",
"218 663 OFFCURVE",
"383 663 CURVE SMOOTH",
"548 663 OFFCURVE",
"650 581 OFFCURVE",
"650 449 CURVE SMOOTH",
"650 361 OFFCURVE",
"603 265 OFFCURVE",
"453 45 CURVE",
"453 0 LINE",
"702 0 LINE",
"702 48 LINE",
"488 48 LINE",
"495 28 LINE",
"662 254 OFFCURVE",
"707 343 OFFCURVE",
"707 449 CURVE SMOOTH",
"707 609 OFFCURVE",
"579 713 OFFCURVE",
"383 713 CURVE SMOOTH"
);
}
);
width = 766;
},
{
background = {
paths = (
{
closed = 1;
nodes = (
"183 715 OFFCURVE",
"46 615 OFFCURVE",
"46 451 CURVE SMOOTH",
"46 362 OFFCURVE",
"83 294 OFFCURVE",
"245 83 CURVE",
"222 129 LINE",
"122 129 LINE SMOOTH",
"71 129 OFFCURVE",
"46 108 OFFCURVE",
"46 65 CURVE SMOOTH",
"46 21 OFFCURVE",
"71 0 OFFCURVE",
"122 0 CURVE SMOOTH",
"303 0 LINE SMOOTH",
"366 0 OFFCURVE",
"391 62 OFFCURVE",
"353 125 CURVE SMOOTH",
"239 314 OFFCURVE",
"207 384 OFFCURVE",
"207 446 CURVE SMOOTH",
"207 538 OFFCURVE",
"278 589 OFFCURVE",
"407 589 CURVE SMOOTH",
"536 589 OFFCURVE",
"607 538 OFFCURVE",
"607 446 CURVE SMOOTH",
"607 384 OFFCURVE",
"575 314 OFFCURVE",
"461 125 CURVE SMOOTH",
"423 62 OFFCURVE",
"448 0 OFFCURVE",
"511 0 CURVE SMOOTH",
"692 0 LINE SMOOTH",
"743 0 OFFCURVE",
"768 21 OFFCURVE",
"768 65 CURVE SMOOTH",
"768 108 OFFCURVE",
"743 129 OFFCURVE",
"692 129 CURVE SMOOTH",
"592 129 LINE",
"569 83 LINE",
"731 294 OFFCURVE",
"768 362 OFFCURVE",
"768 451 CURVE SMOOTH",
"768 612 OFFCURVE",
"627 715 OFFCURVE",
"407 715 CURVE SMOOTH"
);
}
);
};
layerId = "E1B555A7-F4E1-459C-9C1A-AE952106EEF9";
paths = (
{
closed = 1;
nodes = (
"183 715 OFFCURVE",
"46 615 OFFCURVE",
"46 451 CURVE SMOOTH",
"46 362 OFFCURVE",
"83 294 OFFCURVE",
"245 83 CURVE",
"222 129 LINE",
"61 129 LINE",
"61 0 LINE",
"353 0 LINE",
"353 125 LINE",
"239 314 OFFCURVE",
"207 384 OFFCURVE",
"207 446 CURVE SMOOTH",
"207 538 OFFCURVE",
"278 589 OFFCURVE",
"407 589 CURVE SMOOTH",
"536 589 OFFCURVE",
"607 538 OFFCURVE",
"607 446 CURVE SMOOTH",
"607 384 OFFCURVE",
"575 314 OFFCURVE",
"461 125 CURVE",
"461 0 LINE",
"753 0 LINE",
"753 129 LINE",
"592 129 LINE",
"569 83 LINE",
"731 294 OFFCURVE",
"768 362 OFFCURVE",
"768 451 CURVE SMOOTH",
"768 612 OFFCURVE",
"627 715 OFFCURVE",
"407 715 CURVE SMOOTH"
);
}
);
width = 814;
}
);
leftKerningGroup = Omega;
rightKerningGroup = Omega;
unicode = 03A9;
},
{
glyphname = mu;
lastChange = "2016-09-26 10:56:33 +0000";
layers = (
{
background = {
paths = (
{
closed = 1;
nodes = (
"333 -7 OFFCURVE",
"401 36 OFFCURVE",
"426 117 CURVE",
"415 108 LINE",
"415 0 LINE",
"468 0 LINE",
"468 485 LINE",
"414 485 LINE",
"414 209 LINE SMOOTH",
"414 108 OFFCURVE",
"351 42 OFFCURVE",
"255 42 CURVE SMOOTH",
"172 42 OFFCURVE",
"134 86 OFFCURVE",
"134 184 CURVE SMOOTH",
"134 485 LINE",
"80 485 LINE",
"80 180 LINE SMOOTH",
"80 57 OFFCURVE",
"139 -7 OFFCURVE",
"252 -7 CURVE SMOOTH"
);
}
);
};
layerId = "9E718F8A-2CEA-4931-B05D-987794BD97DA";
paths = (
{
closed = 1;
nodes = (
"414 485 LINE",
"414 209 LINE SMOOTH",
"414 108 OFFCURVE",
"351 42 OFFCURVE",
"255 42 CURVE SMOOTH",
"172 42 OFFCURVE",
"134 86 OFFCURVE",
"134 184 CURVE SMOOTH",
"134 485 LINE",
"80 485 LINE",
"80 -180 LINE",
"134 -180 LINE",
"134 77 LINE",
"114 53 LINE",
"143 13 OFFCURVE",
"189 -7 OFFCURVE",
"252 -7 CURVE SMOOTH",
"333 -7 OFFCURVE",
"401 36 OFFCURVE",
"426 117 CURVE",
"415 108 LINE",
"415 0 LINE",
"468 0 LINE",
"468 485 LINE"
);
}
);
width = 550;
},
{
background = {
paths = (
{
closed = 1;
nodes = (
"408 501 OFFCURVE",
"378 473 OFFCURVE",
"378 428 CURVE SMOOTH",
"378 220 LINE SMOOTH",
"378 156 OFFCURVE",
"339 113 OFFCURVE",
"282 113 CURVE SMOOTH",
"233 113 OFFCURVE",
"210 140 OFFCURVE",
"210 197 CURVE SMOOTH",
"210 428 LINE SMOOTH",
"210 473 OFFCURVE",
"180 501 OFFCURVE",
"132 501 CURVE SMOOTH",
"84 501 OFFCURVE",
"54 473 OFFCURVE",
"54 428 CURVE SMOOTH",
"54 -117 LINE SMOOTH",
"54 -158 OFFCURVE",
"84 -185 OFFCURVE",
"130 -185 CURVE SMOOTH",
"178 -185 OFFCURVE",
"210 -156 OFFCURVE",
"210 -114 CURVE SMOOTH",
"210 38 LINE",
"180 -2 LINE",
"201 -6 OFFCURVE",
"216 -8 OFFCURVE",
"238 -8 CURVE SMOOTH",
"310 -8 OFFCURVE",
"366 28 OFFCURVE",
"395 94 CURVE",
"382 100 LINE",
"382 62 LINE SMOOTH",
"382 21 OFFCURVE",
"411 -6 OFFCURVE",
"455 -6 CURVE SMOOTH",
"502 -6 OFFCURVE",
"534 23 OFFCURVE",
"534 65 CURVE SMOOTH",
"534 428 LINE SMOOTH",
"534 473 OFFCURVE",
"504 501 OFFCURVE",
"456 501 CURVE SMOOTH"
);
}
);
};
layerId = "E1B555A7-F4E1-459C-9C1A-AE952106EEF9";
paths = (
{
closed = 1;
nodes = (
"378 491 LINE",
"378 220 LINE SMOOTH",
"378 156 OFFCURVE",
"339 113 OFFCURVE",
"282 113 CURVE SMOOTH",
"233 113 OFFCURVE",
"210 140 OFFCURVE",
"210 197 CURVE SMOOTH",
"210 491 LINE",
"54 491 LINE",
"54 -180 LINE",
"210 -180 LINE",
"210 40 LINE",
"180 -2 LINE",
"201 -6 OFFCURVE",
"216 -8 OFFCURVE",
"238 -8 CURVE SMOOTH",
"310 -8 OFFCURVE",
"366 28 OFFCURVE",
"395 94 CURVE",
"382 98 LINE",
"382 0 LINE",
"534 0 LINE",
"534 491 LINE"
);
}
);
width = 591;
}
);
leftKerningGroup = n;
rightKerningGroup = u;
unicode = 03BC;
},
{
glyphname = pi;
lastChange = "2016-09-26 10:56:57 +0000";
layers = (
{
background = {
paths = (
{
closed = 1;
nodes = (
"549 -7 OFFCURVE",
"558 4 OFFCURVE",
"558 18 CURVE SMOOTH",
"558 30 OFFCURVE",
"553 40 OFFCURVE",
"532 42 CURVE SMOOTH",
"505 44 LINE SMOOTH",
"438 49 OFFCURVE",
"402 78 OFFCURVE",
"402 167 CURVE SMOOTH",
"402 462 LINE",
"348 462 LINE",
"348 169 LINE SMOOTH",
"348 55 OFFCURVE",
"396 4 OFFCURVE",
"496 -3 CURVE SMOOTH",
"523 -5 LINE SMOOTH"
);
},
{
closed = 1;
nodes = (
"149 152 OFFCURVE",
"162 319 OFFCURVE",
"162 472 CURVE",
"108 472 LINE",
"108 329 OFFCURVE",
"91 157 OFFCURVE",
"44 33 CURVE SMOOTH",
"27 -13 OFFCURVE",
"84 -24 OFFCURVE",
"98 13 CURVE SMOOTH"
);
},
{
closed = 1;
nodes = (
"508 440 LINE SMOOTH",
"522 440 OFFCURVE",
"531 449 OFFCURVE",
"531 462 CURVE SMOOTH",
"531 475 OFFCURVE",
"522 485 OFFCURVE",
"508 485 CURVE SMOOTH",
"26 485 LINE SMOOTH",
"12 485 OFFCURVE",
"3 475 OFFCURVE",
"3 462 CURVE SMOOTH",
"3 449 OFFCURVE",
"12 440 OFFCURVE",
"26 440 CURVE SMOOTH"
);
}
);
};
layerId = "9E718F8A-2CEA-4931-B05D-987794BD97DA";
paths = (
{
closed = 1;
nodes = (
"137 127 OFFCURVE",
"159 280 OFFCURVE",
"159 472 CURVE",
"105 472 LINE",
"105 291 OFFCURVE",
"80 130 OFFCURVE",
"32 0 CURVE",
"91 0 LINE"
);
},
{
closed = 1;
nodes = (
"523 440 LINE",
"523 485 LINE",
"5 485 LINE",
"5 440 LINE"
);
},
{
closed = 1;
nodes = (
"345 171 LINE SMOOTH",
"345 63 OFFCURVE",
"401 4 OFFCURVE",
"508 -3 CURVE SMOOTH",
"552 -6 LINE",
"557 41 LINE",
"514 44 LINE SMOOTH",
"438 49 OFFCURVE",
"399 90 OFFCURVE",
"399 167 CURVE SMOOTH",
"399 462 LINE",
"345 462 LINE"
);
}
);
width = 566;
},
{
background = {
paths = (
{
closed = 1;
nodes = (
"586 -9 OFFCURVE",
"622 10 OFFCURVE",
"622 53 CURVE SMOOTH",
"622 86 OFFCURVE",
"604 104 OFFCURVE",
"562 107 CURVE SMOOTH",
"534 109 LINE SMOOTH",
"501 111 OFFCURVE",
"482 132 OFFCURVE",
"482 169 CURVE SMOOTH",
"482 437 LINE",
"326 437 LINE",
"326 181 LINE SMOOTH",
"326 71 OFFCURVE",
"382 6 OFFCURVE",
"502 -3 CURVE SMOOTH",
"530 -5 LINE SMOOTH"
);
},
{
closed = 1;
nodes = (
"249 167 OFFCURVE",
"259 294 OFFCURVE",
"259 437 CURVE",
"105 437 LINE",
"105 294 OFFCURVE",
"82 186 OFFCURVE",
"54 83 CURVE SMOOTH",
"28 -13 OFFCURVE",
"177 -43 OFFCURVE",
"207 45 CURVE SMOOTH"
);
},
{
closed = 1;
nodes = (
"529 375 LINE SMOOTH",
"577 375 OFFCURVE",
"599 396 OFFCURVE",
"599 433 CURVE SMOOTH",
"599 470 OFFCURVE",
"577 491 OFFCURVE",
"529 491 CURVE SMOOTH",
"59 491 LINE SMOOTH",
"11 491 OFFCURVE",
"-11 470 OFFCURVE",
"-11 433 CURVE SMOOTH",
"-11 396 OFFCURVE",
"11 375 OFFCURVE",
"59 375 CURVE SMOOTH"
);
}
);
};
layerId = "E1B555A7-F4E1-459C-9C1A-AE952106EEF9";
paths = (
{
closed = 1;
nodes = (
"251 167 OFFCURVE",
"259 294 OFFCURVE",
"259 437 CURVE",
"105 437 LINE",
"105 284 OFFCURVE",
"78 159 OFFCURVE",
"33 -1 CURVE",
"193 0 LINE"
);
},
{
closed = 1;
nodes = (
"584 375 LINE",
"584 491 LINE",
"4 491 LINE",
"4 375 LINE"
);
},
{
closed = 1;
nodes = (
"326 211 LINE SMOOTH",
"326 61 OFFCURVE",
"386 4 OFFCURVE",
"553 -6 CURVE SMOOTH",
"601 -9 LINE",
"612 103 LINE",
"560 107 LINE SMOOTH",
"504 111 OFFCURVE",
"482 133 OFFCURVE",
"482 184 CURVE SMOOTH",
"482 437 LINE",
"326 437 LINE"
);
}
);
width = 619;
}
);
leftKerningGroup = pi;
rightKerningGroup = pi;
unicode = 03C0;
userData = {
com.typemytype.robofont.layerData = {
b = {
anchors = (
);
components = (
);
contours = (
);
lib = {
};
name = pi;
unicodes = (
);
width = 1285;
};
};
};
},
{
glyphname = asterisk;
lastChange = "2016-09-22 07:47:37 +0000";
layers = (
{
background = {
paths = (
{
closed = 1;
nodes = (
"240 529 LINE",
"327 670 LINE SMOOTH",
"347 703 OFFCURVE",
"305 727 OFFCURVE",
"287 693 CURVE SMOOTH",
"209 547 LINE",
"121 405 LINE SMOOTH",
"101 373 OFFCURVE",
"143 349 OFFCURVE",
"161 382 CURVE SMOOTH"
);
},
{
closed = 1;
nodes = (
"305 349 OFFCURVE",
"347 373 OFFCURVE",
"327 406 CURVE SMOOTH",
"240 547 LINE",
"161 694 LINE SMOOTH",
"143 727 OFFCURVE",
"101 703 OFFCURVE",
"121 671 CURVE SMOOTH",
"209 529 LINE",
"287 383 LINE SMOOTH"
);
},
{
closed = 1;
nodes = (
"224 520 LINE",
"390 515 LINE SMOOTH",
"429 514 OFFCURVE",
"429 562 OFFCURVE",
"390 561 CURVE SMOOTH",
"224 556 LINE",
"58 561 LINE SMOOTH",
"20 562 OFFCURVE",
"20 514 OFFCURVE",
"58 515 CURVE SMOOTH"
);
}
);
};
layerId = "9E718F8A-2CEA-4931-B05D-987794BD97DA";
paths = (
{
closed = 1;
nodes = (
"240 529 LINE",
"338 690 LINE",
"299 713 LINE",
"209 547 LINE",
"110 386 LINE",
"149 363 LINE"
);
},
{
closed = 1;
nodes = (
"209 529 LINE",
"299 363 LINE",
"338 386 LINE",
"240 547 LINE",
"149 713 LINE",
"110 690 LINE"
);
},
{
closed = 1;
nodes = (
"224 520 LINE",
"413 515 LINE",
"413 561 LINE",
"224 556 LINE",
"35 561 LINE",
"35 515 LINE"
);
}
);
width = 449;
},
{
background = {
paths = (
{
closed = 1;
nodes = (
"262 503 LINE",
"351 635 LINE SMOOTH",
"387 688 OFFCURVE",
"291 744 OFFCURVE",
"263 686 CURVE SMOOTH",
"192 543 LINE",
"103 410 LINE SMOOTH",
"67 357 OFFCURVE",
"163 302 OFFCURVE",
"191 359 CURVE SMOOTH"
);
},
{
closed = 1;
nodes = (
"290 303 OFFCURVE",
"388 357 OFFCURVE",
"351 410 CURVE SMOOTH",
"262 543 LINE",
"191 686 LINE SMOOTH",
"164 743 OFFCURVE",
"66 689 OFFCURVE",
"103 635 CURVE SMOOTH",
"192 503 LINE",
"263 359 LINE SMOOTH"
);
},
{
closed = 1;
nodes = (
"227 482 LINE",
"387 472 LINE SMOOTH",
"450 468 OFFCURVE",
"451 578 OFFCURVE",
"387 574 CURVE SMOOTH",
"227 563 LINE",
"67 574 LINE SMOOTH",
"4 578 OFFCURVE",
"3 468 OFFCURVE",
"67 472 CURVE SMOOTH"
);
}
);
};
layerId = "E1B555A7-F4E1-459C-9C1A-AE952106EEF9";
paths = (
{
closed = 1;
nodes = (
"192 503 LINE",
"280 324 LINE",
"372 378 LINE",
"262 543 LINE",
"174 721 LINE",
"83 668 LINE"
);
},
{
closed = 1;
nodes = (
"262 503 LINE",
"372 667 LINE",
"280 721 LINE",
"192 543 LINE",
"82 378 LINE",
"173 325 LINE"
);
},
{
closed = 1;
nodes = (
"227 482 LINE",
"425 469 LINE",
"425 576 LINE",
"227 563 LINE",
"29 576 LINE",
"29 470 LINE"
);
}
);
width = 454;
}
);
leftKerningGroup = asterisk;
rightKerningGroup = asterisk;
unicode = 002A;
},
{
glyphname = backslash;
lastChange = "2016-09-22 07:47:37 +0000";
layers = (
{
background = {
paths = (
{
closed = 1;
nodes = (
"239 -74 OFFCURVE",
"288 -57 OFFCURVE",
"276 -20 CURVE SMOOTH",
"37 725 LINE SMOOTH",
"25 762 OFFCURVE",
"-24 745 OFFCURVE",
"-12 708 CURVE SMOOTH",
"227 -37 LINE SMOOTH"
);
}
);
};
layerId = "9E718F8A-2CEA-4931-B05D-987794BD97DA";
paths = (
{
closed = 1;
nodes = (
"283 -43 LINE",
"30 748 LINE",
"-19 731 LINE",
"234 -60 LINE"
);
}
);
width = 264;
},
{
background = {
paths = (
{
closed = 1;
nodes = (
"248 -110 OFFCURVE",
"364 -75 OFFCURVE",
"339 2 CURVE SMOOTH",
"110 721 LINE SMOOTH",
"85 798 OFFCURVE",
"-31 763 OFFCURVE",
"-6 686 CURVE SMOOTH",
"223 -33 LINE SMOOTH"
);
}
);
};
layerId = "E1B555A7-F4E1-459C-9C1A-AE952106EEF9";
paths = (
{
closed = 1;
nodes = (
"354 -43 LINE",
"95 766 LINE",
"-21 731 LINE",
"238 -78 LINE"
);
}
);
width = 333;
}
);
leftKerningGroup = backslash;
rightKerningGroup = backslash;
unicode = 005C;
},
{
glyphname = periodcentered;
lastChange = "2016-09-26 10:56:33 +0000";
layers = (
{
background = {
paths = (
{
closed = 1;
nodes = (
"133 220 OFFCURVE",
"152 238 OFFCURVE",
"152 265 CURVE SMOOTH",
"152 292 OFFCURVE",
"133 310 OFFCURVE",
"109 310 CURVE SMOOTH",
"84 310 OFFCURVE",
"65 292 OFFCURVE",
"65 265 CURVE SMOOTH",
"65 238 OFFCURVE",
"84 220 OFFCURVE",
"109 220 CURVE SMOOTH"
);
}
);
};
layerId = "9E718F8A-2CEA-4931-B05D-987794BD97DA";
paths = (
{
closed = 1;
nodes = (
"69 225 LINE",
"148 225 LINE",
"148 305 LINE",
"69 305 LINE"
);
}
);
width = 217;
},
{
background = {
paths = (
{
closed = 1;
nodes = (
"181 180 OFFCURVE",
"218 218 OFFCURVE",
"218 268 CURVE SMOOTH",
"218 318 OFFCURVE",
"181 356 OFFCURVE",
"131 356 CURVE SMOOTH",
"81 356 OFFCURVE",
"44 318 OFFCURVE",
"44 268 CURVE SMOOTH",
"44 218 OFFCURVE",
"81 180 OFFCURVE",
"131 180 CURVE SMOOTH"
);
}
);
};
layerId = "E1B555A7-F4E1-459C-9C1A-AE952106EEF9";
paths = (
{
closed = 1;
nodes = (
"48 186 LINE",
"214 186 LINE",
"214 350 LINE",
"48 350 LINE"
);
}
);
width = 262;
}
);
leftKerningGroup = hyphen;
rightKerningGroup = hyphen;
unicode = 00B7;
},
{
glyphname = bullet;
lastChange = "2016-09-22 07:47:37 +0000";
layers = (
{
background = {
paths = (
{
closed = 1;
nodes = (
"361 88 OFFCURVE",
"443 167 OFFCURVE",
"443 265 CURVE SMOOTH",
"443 367 OFFCURVE",
"358 443 OFFCURVE",
"262 443 CURVE SMOOTH",
"157 443 OFFCURVE",
"81 356 OFFCURVE",
"81 265 CURVE SMOOTH",
"81 165 OFFCURVE",
"164 88 OFFCURVE",
"262 88 CURVE SMOOTH"
);
}
);
};
layerId = "9E718F8A-2CEA-4931-B05D-987794BD97DA";
paths = (
{
closed = 1;
nodes = (
"361 88 OFFCURVE",
"443 167 OFFCURVE",
"443 265 CURVE SMOOTH",
"443 367 OFFCURVE",
"358 443 OFFCURVE",
"262 443 CURVE SMOOTH",
"157 443 OFFCURVE",
"81 356 OFFCURVE",
"81 265 CURVE SMOOTH",
"81 165 OFFCURVE",
"164 88 OFFCURVE",
"262 88 CURVE SMOOTH"
);
}
);
width = 524;
},
{
background = {
paths = (
{
closed = 1;
nodes = (
"361 88 OFFCURVE",
"443 167 OFFCURVE",
"443 265 CURVE SMOOTH",
"443 367 OFFCURVE",
"358 443 OFFCURVE",
"262 443 CURVE SMOOTH",
"157 443 OFFCURVE",
"81 356 OFFCURVE",
"81 265 CURVE SMOOTH",
"81 165 OFFCURVE",
"164 88 OFFCURVE",
"262 88 CURVE SMOOTH"
);
}
);
};
layerId = "E1B555A7-F4E1-459C-9C1A-AE952106EEF9";
paths = (
{
closed = 1;
nodes = (
"361 88 OFFCURVE",
"443 167 OFFCURVE",
"443 265 CURVE SMOOTH",
"443 367 OFFCURVE",
"358 443 OFFCURVE",
"262 443 CURVE SMOOTH",
"157 443 OFFCURVE",
"81 356 OFFCURVE",
"81 265 CURVE SMOOTH",
"81 165 OFFCURVE",
"164 88 OFFCURVE",
"262 88 CURVE SMOOTH"
);
}
);
width = 524;
}
);
leftKerningGroup = hyphen;
rightKerningGroup = hyphen;
unicode = 2022;
},
{
glyphname = colon;
lastChange = "2016-09-26 10:56:33 +0000";
layers = (
{
background = {
paths = (
{
closed = 1;
nodes = (
"133 -5 OFFCURVE",
"152 13 OFFCURVE",
"152 40 CURVE SMOOTH",
"152 67 OFFCURVE",
"133 85 OFFCURVE",
"109 85 CURVE SMOOTH",
"84 85 OFFCURVE",
"65 67 OFFCURVE",
"65 40 CURVE SMOOTH",
"65 13 OFFCURVE",
"84 -5 OFFCURVE",
"109 -5 CURVE SMOOTH"
);
},
{
closed = 1;
nodes = (
"133 406 OFFCURVE",
"152 424 OFFCURVE",
"152 451 CURVE SMOOTH",
"152 478 OFFCURVE",
"133 496 OFFCURVE",
"109 496 CURVE SMOOTH",
"84 496 OFFCURVE",
"65 478 OFFCURVE",
"65 451 CURVE SMOOTH",
"65 424 OFFCURVE",
"84 406 OFFCURVE",
"109 406 CURVE SMOOTH"
);
}
);
};
layerId = "9E718F8A-2CEA-4931-B05D-987794BD97DA";
paths = (
{
closed = 1;
nodes = (
"69 0 LINE",
"148 0 LINE",
"148 80 LINE",
"69 80 LINE"
);
},
{
closed = 1;
nodes = (
"69 405 LINE",
"148 405 LINE",
"148 485 LINE",
"69 485 LINE"
);
}
);
width = 217;
},
{
background = {
paths = (
{
closed = 1;
nodes = (
"181 -6 OFFCURVE",
"218 32 OFFCURVE",
"218 82 CURVE SMOOTH",
"218 132 OFFCURVE",
"181 170 OFFCURVE",
"131 170 CURVE SMOOTH",
"81 170 OFFCURVE",
"44 132 OFFCURVE",
"44 82 CURVE SMOOTH",
"44 32 OFFCURVE",
"81 -6 OFFCURVE",
"131 -6 CURVE SMOOTH"
);
},
{
closed = 1;
nodes = (
"181 325 OFFCURVE",
"218 363 OFFCURVE",
"218 413 CURVE SMOOTH",
"218 463 OFFCURVE",
"181 501 OFFCURVE",
"131 501 CURVE SMOOTH",
"81 501 OFFCURVE",
"44 463 OFFCURVE",
"44 413 CURVE SMOOTH",
"44 363 OFFCURVE",
"81 325 OFFCURVE",
"131 325 CURVE SMOOTH"
);
}
);
};
layerId = "E1B555A7-F4E1-459C-9C1A-AE952106EEF9";
paths = (
{
closed = 1;
nodes = (
"48 0 LINE",
"214 0 LINE",
"214 164 LINE",
"48 164 LINE"
);
},
{
closed = 1;
nodes = (
"48 327 LINE",
"214 327 LINE",
"214 491 LINE",
"48 491 LINE"
);
}
);
width = 262;
}
);
leftKerningGroup = colon;
rightKerningGroup = colon;
unicode = 003A;
},
{
glyphname = comma;
lastChange = "2016-09-26 10:56:33 +0000";
layers = (
{
background = {
paths = (
{
closed = 1;
nodes = (
"136 -65 OFFCURVE",
"152 -26 OFFCURVE",
"152 20 CURVE SMOOTH",
"152 67 OFFCURVE",
"133 85 OFFCURVE",
"107 85 CURVE SMOOTH",
"83 85 OFFCURVE",
"65 67 OFFCURVE",
"65 40 CURVE SMOOTH",
"65 13 OFFCURVE",
"84 -4 OFFCURVE",
"108 -4 CURVE SMOOTH",
"126 -4 LINE",
"106 20 LINE",
"106 -19 OFFCURVE",
"99 -43 OFFCURVE",
"77 -67 CURVE SMOOTH",
"55 -91 OFFCURVE",
"88 -118 OFFCURVE",
"110 -94 CURVE SMOOTH"
);
}
);
};
layerId = "9E718F8A-2CEA-4931-B05D-987794BD97DA";
paths = (
{
closed = 1;
nodes = (
"136 -66 OFFCURVE",
"148 -26 OFFCURVE",
"148 20 CURVE SMOOTH",
"148 80 LINE",
"69 80 LINE",
"69 0 LINE",
"126 0 LINE",
"106 9 LINE",
"106 -19 OFFCURVE",
"100 -46 OFFCURVE",
"69 -80 CURVE",
"99 -103 LINE"
);
}
);
width = 217;
},
{
background = {
paths = (
{
closed = 1;
nodes = (
"191 -78 OFFCURVE",
"218 -18 OFFCURVE",
"218 57 CURVE SMOOTH",
"218 132 OFFCURVE",
"180 170 OFFCURVE",
"128 170 CURVE SMOOTH",
"80 170 OFFCURVE",
"44 132 OFFCURVE",
"44 82 CURVE SMOOTH",
"44 32 OFFCURVE",
"81 -1 OFFCURVE",
"131 -1 CURVE SMOOTH",
"164 -1 LINE",
"128 57 LINE",
"128 -11 OFFCURVE",
"105 -47 OFFCURVE",
"77 -77 CURVE SMOOTH",
"39 -117 OFFCURVE",
"104 -169 OFFCURVE",
"142 -129 CURVE SMOOTH"
);
}
);
};
layerId = "E1B555A7-F4E1-459C-9C1A-AE952106EEF9";
paths = (
{
closed = 1;
nodes = (
"190 -78 OFFCURVE",
"214 -18 OFFCURVE",
"214 59 CURVE SMOOTH",
"214 164 LINE",
"48 164 LINE",
"48 0 LINE",
"164 0 LINE",
"128 37 LINE",
"128 -11 OFFCURVE",
"109 -50 OFFCURVE",
"62 -98 CURVE",
"122 -146 LINE"
);
}
);
width = 262;
}
);
leftKerningGroup = period;
rightKerningGroup = period;
unicode = 002C;
},
{
glyphname = ellipsis;
lastChange = "2016-09-26 10:56:33 +0000";
layers = (
{
background = {
paths = (
{
closed = 1;
nodes = (
"133 -5 OFFCURVE",
"152 13 OFFCURVE",
"152 40 CURVE SMOOTH",
"152 67 OFFCURVE",
"133 85 OFFCURVE",
"109 85 CURVE SMOOTH",
"84 85 OFFCURVE",
"65 67 OFFCURVE",
"65 40 CURVE SMOOTH",
"65 13 OFFCURVE",
"84 -5 OFFCURVE",
"109 -5 CURVE SMOOTH"
);
},
{
closed = 1;
nodes = (
"350 -5 OFFCURVE",
"369 13 OFFCURVE",
"369 40 CURVE SMOOTH",
"369 67 OFFCURVE",
"350 85 OFFCURVE",
"326 85 CURVE SMOOTH",
"301 85 OFFCURVE",
"282 67 OFFCURVE",
"282 40 CURVE SMOOTH",
"282 13 OFFCURVE",
"301 -5 OFFCURVE",
"326 -5 CURVE SMOOTH"
);
},
{
closed = 1;
nodes = (
"567 -5 OFFCURVE",
"586 13 OFFCURVE",
"586 40 CURVE SMOOTH",
"586 67 OFFCURVE",
"567 85 OFFCURVE",
"543 85 CURVE SMOOTH",
"518 85 OFFCURVE",
"499 67 OFFCURVE",
"499 40 CURVE SMOOTH",
"499 13 OFFCURVE",
"518 -5 OFFCURVE",
"543 -5 CURVE SMOOTH"
);
}
);
};
layerId = "9E718F8A-2CEA-4931-B05D-987794BD97DA";
paths = (
{
closed = 1;
nodes = (
"69 0 LINE",
"148 0 LINE",
"148 80 LINE",
"69 80 LINE"
);
},
{
closed = 1;
nodes = (
"286 0 LINE",
"365 0 LINE",
"365 80 LINE",
"286 80 LINE"
);
},
{
closed = 1;
nodes = (
"503 0 LINE",
"582 0 LINE",
"582 80 LINE",
"503 80 LINE"
);
}
);
width = 651;
},
{
background = {
paths = (
{
closed = 1;
nodes = (
"181 -6 OFFCURVE",
"218 32 OFFCURVE",
"218 82 CURVE SMOOTH",
"218 132 OFFCURVE",
"181 170 OFFCURVE",
"131 170 CURVE SMOOTH",
"81 170 OFFCURVE",
"44 132 OFFCURVE",
"44 82 CURVE SMOOTH",
"44 32 OFFCURVE",
"81 -6 OFFCURVE",
"131 -6 CURVE SMOOTH"
);
},
{
closed = 1;
nodes = (
"443 -6 OFFCURVE",
"480 32 OFFCURVE",
"480 82 CURVE SMOOTH",
"480 132 OFFCURVE",
"443 170 OFFCURVE",
"393 170 CURVE SMOOTH",
"343 170 OFFCURVE",
"306 132 OFFCURVE",
"306 82 CURVE SMOOTH",
"306 32 OFFCURVE",
"343 -6 OFFCURVE",
"393 -6 CURVE SMOOTH"
);
},
{
closed = 1;
nodes = (
"705 -6 OFFCURVE",
"742 32 OFFCURVE",
"742 82 CURVE SMOOTH",
"742 132 OFFCURVE",
"705 170 OFFCURVE",
"655 170 CURVE SMOOTH",
"605 170 OFFCURVE",
"568 132 OFFCURVE",
"568 82 CURVE SMOOTH",
"568 32 OFFCURVE",
"605 -6 OFFCURVE",
"655 -6 CURVE SMOOTH"
);
}
);
};
layerId = "E1B555A7-F4E1-459C-9C1A-AE952106EEF9";
paths = (
{
closed = 1;
nodes = (
"48 0 LINE",
"214 0 LINE",
"214 164 LINE",
"48 164 LINE"
);
},
{
closed = 1;
nodes = (
"310 0 LINE",
"476 0 LINE",
"476 164 LINE",
"310 164 LINE"
);
},
{
closed = 1;
nodes = (
"572 0 LINE",
"738 0 LINE",
"738 164 LINE",
"572 164 LINE"
);
}
);
width = 786;
}
);
leftKerningGroup = period;
rightKerningGroup = period;
unicode = 2026;
},
{
glyphname = exclam;
lastChange = "2016-09-22 07:47:37 +0000";
layers = (
{
background = {
paths = (
{
closed = 1;
nodes = (
"117 164 OFFCURVE",
"125 171 OFFCURVE",
"125 184 CURVE SMOOTH",
"141 677 LINE SMOOTH",
"142 697 OFFCURVE",
"127 710 OFFCURVE",
"108 710 CURVE SMOOTH",
"89 710 OFFCURVE",
"74 697 OFFCURVE",
"75 677 CURVE SMOOTH",
"91 184 LINE SMOOTH",
"91 172 OFFCURVE",
"99 164 OFFCURVE",
"108 164 CURVE SMOOTH"
);
},
{
closed = 1;
nodes = (
"133 -5 OFFCURVE",
"152 13 OFFCURVE",
"152 40 CURVE SMOOTH",
"152 67 OFFCURVE",
"133 85 OFFCURVE",
"109 85 CURVE SMOOTH",
"84 85 OFFCURVE",
"65 67 OFFCURVE",
"65 40 CURVE SMOOTH",
"65 13 OFFCURVE",
"84 -5 OFFCURVE",
"109 -5 CURVE SMOOTH"
);
}
);
};
layerId = "9E718F8A-2CEA-4931-B05D-987794BD97DA";
paths = (
{
closed = 1;
nodes = (
"125 169 LINE",
"142 705 LINE",
"74 705 LINE",
"91 169 LINE"
);
},
{
closed = 1;
nodes = (
"69 0 LINE",
"148 0 LINE",
"148 80 LINE",
"69 80 LINE"
);
}
);
width = 217;
},
{
background = {
paths = (
{
closed = 1;
nodes = (
"155 221 OFFCURVE",
"174 237 OFFCURVE",
"178 269 CURVE SMOOTH",
"224 611 LINE SMOOTH",
"232 674 OFFCURVE",
"188 710 OFFCURVE",
"131 710 CURVE SMOOTH",
"74 710 OFFCURVE",
"30 674 OFFCURVE",
"38 612 CURVE SMOOTH",
"84 269 LINE SMOOTH",
"88 237 OFFCURVE",
"107 221 OFFCURVE",
"131 221 CURVE SMOOTH"
);
},
{
closed = 1;
nodes = (
"181 -6 OFFCURVE",
"218 32 OFFCURVE",
"218 82 CURVE SMOOTH",
"218 132 OFFCURVE",
"181 170 OFFCURVE",
"131 170 CURVE SMOOTH",
"81 170 OFFCURVE",
"44 132 OFFCURVE",
"44 82 CURVE SMOOTH",
"44 32 OFFCURVE",
"81 -6 OFFCURVE",
"131 -6 CURVE SMOOTH"
);
}
);
};
layerId = "E1B555A7-F4E1-459C-9C1A-AE952106EEF9";
paths = (
{
closed = 1;
nodes = (
"178 231 LINE",
"227 705 LINE",
"35 706 LINE",
"84 231 LINE"
);
},
{
closed = 1;
nodes = (
"48 0 LINE",
"214 0 LINE",
"214 164 LINE",
"48 164 LINE"
);
}
);
width = 262;
}
);
leftKerningGroup = exclam;
rightKerningGroup = exclam;
unicode = 0021;
},
{
glyphname = exclamdown;
lastChange = "2016-09-22 07:47:37 +0000";
layers = (
{
background = {
paths = (
{
closed = 1;
nodes = (
"100 326 OFFCURVE",
"92 319 OFFCURVE",
"92 306 CURVE SMOOTH",
"77 -152 LINE SMOOTH",
"76 -172 OFFCURVE",
"90 -185 OFFCURVE",
"109 -185 CURVE SMOOTH",
"128 -185 OFFCURVE",
"142 -172 OFFCURVE",
"141 -152 CURVE SMOOTH",
"126 306 LINE SMOOTH",
"126 318 OFFCURVE",
"118 326 OFFCURVE",
"109 326 CURVE SMOOTH"
);
},
{
closed = 1;
nodes = (
"84 495 OFFCURVE",
"65 477 OFFCURVE",
"65 450 CURVE SMOOTH",
"65 423 OFFCURVE",
"84 405 OFFCURVE",
"108 405 CURVE SMOOTH",
"133 405 OFFCURVE",
"152 423 OFFCURVE",
"152 450 CURVE SMOOTH",
"152 477 OFFCURVE",
"133 495 OFFCURVE",
"108 495 CURVE SMOOTH"
);
}
);
};
layerId = "9E718F8A-2CEA-4931-B05D-987794BD97DA";
paths = (
{
closed = 1;
nodes = (
"74 -180 LINE",
"142 -180 LINE",
"125 316 LINE",
"91 316 LINE"
);
},
{
closed = 1;
nodes = (
"148 405 LINE",
"148 485 LINE",
"69 485 LINE",
"69 405 LINE"
);
}
);
width = 217;
},
{
background = {
paths = (
{
closed = 1;
nodes = (
"107 274 OFFCURVE",
"88 258 OFFCURVE",
"84 226 CURVE SMOOTH",
"41 -87 LINE SMOOTH",
"32 -150 OFFCURVE",
"74 -186 OFFCURVE",
"131 -186 CURVE SMOOTH",
"188 -186 OFFCURVE",
"230 -150 OFFCURVE",
"221 -88 CURVE SMOOTH",
"178 226 LINE SMOOTH",
"174 258 OFFCURVE",
"155 274 OFFCURVE",
"131 274 CURVE SMOOTH"
);
},
{
closed = 1;
nodes = (
"81 501 OFFCURVE",
"44 463 OFFCURVE",
"44 413 CURVE SMOOTH",
"44 363 OFFCURVE",
"81 325 OFFCURVE",
"131 325 CURVE SMOOTH",
"181 325 OFFCURVE",
"218 363 OFFCURVE",
"218 413 CURVE SMOOTH",
"218 463 OFFCURVE",
"181 501 OFFCURVE",
"131 501 CURVE SMOOTH"
);
}
);
};
layerId = "E1B555A7-F4E1-459C-9C1A-AE952106EEF9";
paths = (
{
closed = 1;
nodes = (
"35 -180 LINE",
"227 -179 LINE",
"178 260 LINE",
"84 260 LINE"
);
},
{
closed = 1;
nodes = (
"214 327 LINE",
"214 491 LINE",
"48 491 LINE",
"48 327 LINE"
);
}
);
width = 262;
}
);
leftKerningGroup = exclamdown;
rightKerningGroup = exclam;
unicode = 00A1;
userData = {
com.typemytype.robofont.layerData = {
b = {
anchors = (
);
components = (
);
contours = (
);
lib = {
};
name = exclamdown;
unicodes = (
);
width = 785;
};
};
};
},
{
glyphname = numbersign;
lastChange = "2016-09-22 07:47:37 +0000";
layers = (
{
background = {
paths = (
{
closed = 1;
nodes = (
"276 681 LINE SMOOTH",
"280 699 OFFCURVE",
"269 713 OFFCURVE",
"253 713 CURVE SMOOTH",
"241 713 OFFCURVE",
"231 705 OFFCURVE",
"229 694 CURVE SMOOTH",
"99 27 LINE SMOOTH",
"95 9 OFFCURVE",
"106 -5 OFFCURVE",
"122 -5 CURVE SMOOTH",
"134 -5 OFFCURVE",
"144 3 OFFCURVE",
"146 14 CURVE SMOOTH"
);
},
{
closed = 1;
nodes = (
"505 681 LINE SMOOTH",
"509 699 OFFCURVE",
"498 713 OFFCURVE",
"482 713 CURVE SMOOTH",
"470 713 OFFCURVE",
"460 705 OFFCURVE",
"458 694 CURVE SMOOTH",
"328 27 LINE SMOOTH",
"324 9 OFFCURVE",
"335 -5 OFFCURVE",
"351 -5 CURVE SMOOTH",
"363 -5 OFFCURVE",
"373 3 OFFCURVE",
"375 14 CURVE SMOOTH"
);
},
{
closed = 1;
nodes = (
"69 525 LINE SMOOTH",
"55 525 OFFCURVE",
"44 516 OFFCURVE",
"44 504 CURVE SMOOTH",
"44 490 OFFCURVE",
"55 479 OFFCURVE",
"69 479 CURVE SMOOTH",
"551 479 LINE SMOOTH",
"565 479 OFFCURVE",
"576 488 OFFCURVE",
"576 500 CURVE SMOOTH",
"576 514 OFFCURVE",
"565 525 OFFCURVE",
"551 525 CURVE SMOOTH"
);
},
{
closed = 1;
nodes = (
"49 234 LINE SMOOTH",
"35 234 OFFCURVE",
"24 225 OFFCURVE",
"24 213 CURVE SMOOTH",
"24 199 OFFCURVE",
"35 188 OFFCURVE",
"49 188 CURVE SMOOTH",
"531 188 LINE SMOOTH",
"545 188 OFFCURVE",
"556 197 OFFCURVE",
"556 209 CURVE SMOOTH",
"556 223 OFFCURVE",
"545 234 OFFCURVE",
"531 234 CURVE SMOOTH"
);
}
);
};
layerId = "9E718F8A-2CEA-4931-B05D-987794BD97DA";
paths = (
{
closed = 1;
nodes = (
"370 0 LINE",
"507 705 LINE",
"458 705 LINE",
"321 0 LINE"
);
},
{
closed = 1;
nodes = (
"551 188 LINE",
"551 234 LINE",
"29 234 LINE",
"29 188 LINE"
);
},
{
closed = 1;
nodes = (
"142 0 LINE",
"279 705 LINE",
"230 705 LINE",
"93 0 LINE"
);
},
{
closed = 1;
nodes = (
"571 479 LINE",
"571 525 LINE",
"49 525 LINE",
"49 479 LINE"
);
}
);
width = 600;
},
{
background = {
paths = (
{
closed = 1;
nodes = (
"308 650 LINE SMOOTH",
"315 685 OFFCURVE",
"292 713 OFFCURVE",
"257 713 CURVE SMOOTH",
"233 713 OFFCURVE",
"215 698 OFFCURVE",
"211 676 CURVE SMOOTH",
"90 57 LINE SMOOTH",
"83 22 OFFCURVE",
"106 -5 OFFCURVE",
"140 -5 CURVE SMOOTH",
"162 -5 OFFCURVE",
"181 10 OFFCURVE",
"185 32 CURVE SMOOTH"
);
},
{
closed = 1;
nodes = (
"514 651 LINE SMOOTH",
"521 686 OFFCURVE",
"498 713 OFFCURVE",
"463 713 CURVE SMOOTH",
"438 713 OFFCURVE",
"420 698 OFFCURVE",
"416 676 CURVE SMOOTH",
"295 57 LINE SMOOTH",
"288 22 OFFCURVE",
"311 -5 OFFCURVE",
"346 -5 CURVE SMOOTH",
"371 -5 OFFCURVE",
"389 10 OFFCURVE",
"393 32 CURVE SMOOTH"
);
},
{
closed = 1;
nodes = (
"105 549 LINE SMOOTH",
"77 549 OFFCURVE",
"56 529 OFFCURVE",
"56 502 CURVE SMOOTH",
"56 474 OFFCURVE",
"77 453 OFFCURVE",
"105 453 CURVE SMOOTH",
"515 453 LINE SMOOTH",
"543 453 OFFCURVE",
"564 473 OFFCURVE",
"564 500 CURVE SMOOTH",
"564 528 OFFCURVE",
"543 549 OFFCURVE",
"515 549 CURVE SMOOTH"
);
},
{
closed = 1;
nodes = (
"85 260 LINE SMOOTH",
"57 260 OFFCURVE",
"36 240 OFFCURVE",
"36 213 CURVE SMOOTH",
"36 185 OFFCURVE",
"57 164 OFFCURVE",
"85 164 CURVE SMOOTH",
"495 164 LINE SMOOTH",
"523 164 OFFCURVE",
"544 184 OFFCURVE",
"544 211 CURVE SMOOTH",
"544 239 OFFCURVE",
"523 260 OFFCURVE",
"495 260 CURVE SMOOTH"
);
}
);
};
layerId = "E1B555A7-F4E1-459C-9C1A-AE952106EEF9";
paths = (
{
closed = 1;
nodes = (
"385 0 LINE",
"525 705 LINE",
"422 705 LINE",
"282 0 LINE"
);
},
{
closed = 1;
nodes = (
"528 164 LINE",
"528 260 LINE",
"50 260 LINE",
"50 164 LINE"
);
},
{
closed = 1;
nodes = (
"178 0 LINE",
"318 705 LINE",
"215 705 LINE",
"75 0 LINE"
);
},
{
closed = 1;
nodes = (
"550 453 LINE",
"550 549 LINE",
"72 549 LINE",
"72 453 LINE"
);
}
);
width = 600;
}
);
leftKerningGroup = numbersign;
rightKerningGroup = numbersign;
unicode = 0023;
},
{
glyphname = period;
lastChange = "2016-09-22 07:47:37 +0000";
layers = (
{
background = {
paths = (
{
closed = 1;
nodes = (
"133 -5 OFFCURVE",
"152 13 OFFCURVE",
"152 40 CURVE SMOOTH",
"152 67 OFFCURVE",
"133 85 OFFCURVE",
"109 85 CURVE SMOOTH",
"84 85 OFFCURVE",
"65 67 OFFCURVE",
"65 40 CURVE SMOOTH",
"65 13 OFFCURVE",
"84 -5 OFFCURVE",
"109 -5 CURVE SMOOTH"
);
}
);
};
layerId = "9E718F8A-2CEA-4931-B05D-987794BD97DA";
paths = (
{
closed = 1;
nodes = (
"69 0 LINE",
"148 0 LINE",
"148 80 LINE",
"69 80 LINE"
);
}
);
width = 217;
},
{
background = {
paths = (
{
closed = 1;
nodes = (
"181 -6 OFFCURVE",
"218 32 OFFCURVE",
"218 82 CURVE SMOOTH",
"218 132 OFFCURVE",
"181 170 OFFCURVE",
"131 170 CURVE SMOOTH",
"81 170 OFFCURVE",
"44 132 OFFCURVE",
"44 82 CURVE SMOOTH",
"44 32 OFFCURVE",
"81 -6 OFFCURVE",
"131 -6 CURVE SMOOTH"
);
}
);
};
layerId = "E1B555A7-F4E1-459C-9C1A-AE952106EEF9";
paths = (
{
closed = 1;
nodes = (
"48 0 LINE",
"214 0 LINE",
"214 164 LINE",
"48 164 LINE"
);
}
);
width = 262;
}
);
leftKerningGroup = period;
rightKerningGroup = period;
unicode = 002E;
},
{
glyphname = question;
lastChange = "2016-09-22 07:47:37 +0000";
layers = (
{
background = {
paths = (
{
closed = 1;
nodes = (
"210 164 OFFCURVE",
"216 170 OFFCURVE",
"217 181 CURVE SMOOTH",
"233 354 OFFCURVE",
"404 404 OFFCURVE",
"404 561 CURVE SMOOTH",
"404 652 OFFCURVE",
"330 712 OFFCURVE",
"218 712 CURVE SMOOTH",
"143 712 OFFCURVE",
"61 679 OFFCURVE",
"8 626 CURVE SMOOTH",
"-1 617 OFFCURVE",
"-4 608 OFFCURVE",
"-4 599 CURVE SMOOTH",
"-4 587 OFFCURVE",
"3 575 OFFCURVE",
"14 575 CURVE SMOOTH",
"21 575 OFFCURVE",
"30 580 OFFCURVE",
"35 584 CURVE SMOOTH",
"98 635 OFFCURVE",
"148 663 OFFCURVE",
"218 663 CURVE SMOOTH",
"298 663 OFFCURVE",
"348 623 OFFCURVE",
"348 559 CURVE SMOOTH",
"348 424 OFFCURVE",
"183 368 OFFCURVE",
"183 184 CURVE SMOOTH",
"183 172 OFFCURVE",
"190 164 OFFCURVE",
"200 164 CURVE SMOOTH"
);
},
{
closed = 1;
nodes = (
"225 -5 OFFCURVE",
"243 14 OFFCURVE",
"243 40 CURVE SMOOTH",
"243 66 OFFCURVE",
"225 85 OFFCURVE",
"200 85 CURVE SMOOTH",
"174 85 OFFCURVE",
"156 66 OFFCURVE",
"156 40 CURVE SMOOTH",
"156 14 OFFCURVE",
"174 -5 OFFCURVE",
"200 -5 CURVE SMOOTH"
);
}
);
};
layerId = "9E718F8A-2CEA-4931-B05D-987794BD97DA";
paths = (
{
closed = 1;
nodes = (
"216 169 LINE",
"217 181 LINE SMOOTH",
"231 351 OFFCURVE",
"404 404 OFFCURVE",
"404 561 CURVE SMOOTH",
"404 652 OFFCURVE",
"332 712 OFFCURVE",
"223 712 CURVE SMOOTH",
"144 712 OFFCURVE",
"58 677 OFFCURVE",
"1 622 CURVE",
"25 578 LINE",
"88 634 OFFCURVE",
"156 663 OFFCURVE",
"223 663 CURVE SMOOTH",
"300 663 OFFCURVE",
"348 623 OFFCURVE",
"348 559 CURVE SMOOTH",
"348 424 OFFCURVE",
"183 368 OFFCURVE",
"183 184 CURVE SMOOTH",
"183 169 LINE"
);
},
{
closed = 1;
nodes = (
"239 0 LINE",
"239 80 LINE",
"160 80 LINE",
"160 0 LINE"
);
}
);
width = 433;
},
{
background = {
paths = (
{
closed = 1;
nodes = (
"253 221 OFFCURVE",
"272 236 OFFCURVE",
"277 262 CURVE SMOOTH",
"294 356 OFFCURVE",
"461 405 OFFCURVE",
"461 544 CURVE SMOOTH",
"461 643 OFFCURVE",
"370 714 OFFCURVE",
"243 714 CURVE SMOOTH",
"166 714 OFFCURVE",
"85 687 OFFCURVE",
"26 641 CURVE SMOOTH",
"6 625 OFFCURVE",
"-2 610 OFFCURVE",
"-2 585 CURVE SMOOTH",
"-2 549 OFFCURVE",
"21 520 OFFCURVE",
"50 520 CURVE SMOOTH",
"63 520 OFFCURVE",
"76 524 OFFCURVE",
"99 537 CURVE SMOOTH",
"138 559 OFFCURVE",
"182 588 OFFCURVE",
"230 588 CURVE SMOOTH",
"275 588 OFFCURVE",
"303 566 OFFCURVE",
"303 530 CURVE SMOOTH",
"303 444 OFFCURVE",
"180 414 OFFCURVE",
"180 278 CURVE SMOOTH",
"180 242 OFFCURVE",
"198 221 OFFCURVE",
"228 221 CURVE SMOOTH"
);
},
{
closed = 1;
nodes = (
"280 -6 OFFCURVE",
"317 32 OFFCURVE",
"317 82 CURVE SMOOTH",
"317 132 OFFCURVE",
"280 170 OFFCURVE",
"230 170 CURVE SMOOTH",
"180 170 OFFCURVE",
"143 132 OFFCURVE",
"143 82 CURVE SMOOTH",
"143 32 OFFCURVE",
"180 -6 OFFCURVE",
"230 -6 CURVE SMOOTH"
);
}
);
};
layerId = "E1B555A7-F4E1-459C-9C1A-AE952106EEF9";
paths = (
{
closed = 1;
nodes = (
"273 226 LINE",
"279 260 LINE SMOOTH",
"296 357 OFFCURVE",
"461 405 OFFCURVE",
"461 544 CURVE SMOOTH",
"461 645 OFFCURVE",
"371 714 OFFCURVE",
"241 714 CURVE SMOOTH",
"151 714 OFFCURVE",
"54 683 OFFCURVE",
"-1 636 CURVE",
"50 521 LINE",
"109 563 OFFCURVE",
"175 588 OFFCURVE",
"228 588 CURVE SMOOTH",
"276 588 OFFCURVE",
"303 567 OFFCURVE",
"303 529 CURVE SMOOTH",
"303 444 OFFCURVE",
"182 414 OFFCURVE",
"182 278 CURVE SMOOTH",
"182 226 LINE"
);
},
{
closed = 1;
nodes = (
"313 0 LINE",
"313 164 LINE",
"147 164 LINE",
"147 0 LINE"
);
}
);
width = 470;
}
);
leftKerningGroup = quesion;
rightKerningGroup = question;
unicode = 003F;
},
{
glyphname = questiondown;
lastChange = "2016-09-26 10:56:33 +0000";
layers = (
{
background = {
paths = (
{
closed = 1;
nodes = (
"224 326 OFFCURVE",
"217 319 OFFCURVE",
"216 309 CURVE SMOOTH",
"200 136 OFFCURVE",
"29 118 OFFCURVE",
"29 -39 CURVE SMOOTH",
"29 -128 OFFCURVE",
"103 -187 OFFCURVE",
"215 -187 CURVE SMOOTH",
"290 -187 OFFCURVE",
"372 -154 OFFCURVE",
"425 -101 CURVE SMOOTH",
"434 -92 OFFCURVE",
"437 -83 OFFCURVE",
"437 -74 CURVE SMOOTH",
"437 -62 OFFCURVE",
"430 -50 OFFCURVE",
"419 -50 CURVE SMOOTH",
"412 -50 OFFCURVE",
"403 -55 OFFCURVE",
"398 -59 CURVE SMOOTH",
"335 -110 OFFCURVE",
"285 -138 OFFCURVE",
"215 -138 CURVE SMOOTH",
"136 -138 OFFCURVE",
"85 -98 OFFCURVE",
"85 -37 CURVE SMOOTH",
"85 98 OFFCURVE",
"250 122 OFFCURVE",
"250 306 CURVE SMOOTH",
"250 318 OFFCURVE",
"243 326 OFFCURVE",
"233 326 CURVE SMOOTH"
);
},
{
closed = 1;
nodes = (
"208 495 OFFCURVE",
"190 476 OFFCURVE",
"190 450 CURVE SMOOTH",
"190 424 OFFCURVE",
"208 405 OFFCURVE",
"233 405 CURVE SMOOTH",
"259 405 OFFCURVE",
"277 424 OFFCURVE",
"277 450 CURVE SMOOTH",
"277 476 OFFCURVE",
"259 495 OFFCURVE",
"233 495 CURVE SMOOTH"
);
}
);
};
layerId = "9E718F8A-2CEA-4931-B05D-987794BD97DA";
paths = (
{
closed = 1;
nodes = (
"289 -187 OFFCURVE",
"375 -152 OFFCURVE",
"432 -97 CURVE",
"408 -53 LINE",
"345 -109 OFFCURVE",
"277 -138 OFFCURVE",
"210 -138 CURVE SMOOTH",
"135 -138 OFFCURVE",
"85 -97 OFFCURVE",
"85 -37 CURVE SMOOTH",
"85 98 OFFCURVE",
"250 122 OFFCURVE",
"250 301 CURVE SMOOTH",
"250 316 LINE",
"217 316 LINE",
"216 304 LINE SMOOTH",
"202 136 OFFCURVE",
"29 118 OFFCURVE",
"29 -39 CURVE SMOOTH",
"29 -127 OFFCURVE",
"103 -187 OFFCURVE",
"210 -187 CURVE SMOOTH"
);
},
{
closed = 1;
nodes = (
"273 405 LINE",
"273 485 LINE",
"194 485 LINE",
"194 405 LINE"
);
}
);
width = 433;
},
{
background = {
paths = (
{
closed = 1;
nodes = (
"217 274 OFFCURVE",
"198 259 OFFCURVE",
"193 233 CURVE SMOOTH",
"176 139 OFFCURVE",
"9 112 OFFCURVE",
"9 -20 CURVE SMOOTH",
"9 -119 OFFCURVE",
"99 -188 OFFCURVE",
"227 -188 CURVE SMOOTH",
"307 -188 OFFCURVE",
"388 -162 OFFCURVE",
"444 -117 CURVE SMOOTH",
"464 -101 OFFCURVE",
"472 -86 OFFCURVE",
"472 -61 CURVE SMOOTH",
"472 -25 OFFCURVE",
"449 4 OFFCURVE",
"420 4 CURVE SMOOTH",
"407 4 OFFCURVE",
"394 0 OFFCURVE",
"371 -13 CURVE SMOOTH",
"332 -35 OFFCURVE",
"288 -62 OFFCURVE",
"240 -62 CURVE SMOOTH",
"194 -62 OFFCURVE",
"167 -41 OFFCURVE",
"167 -6 CURVE SMOOTH",
"167 73 OFFCURVE",
"290 81 OFFCURVE",
"290 217 CURVE SMOOTH",
"290 253 OFFCURVE",
"272 274 OFFCURVE",
"242 274 CURVE SMOOTH"
);
},
{
closed = 1;
nodes = (
"190 501 OFFCURVE",
"153 463 OFFCURVE",
"153 413 CURVE SMOOTH",
"153 363 OFFCURVE",
"190 325 OFFCURVE",
"240 325 CURVE SMOOTH",
"290 325 OFFCURVE",
"327 363 OFFCURVE",
"327 413 CURVE SMOOTH",
"327 463 OFFCURVE",
"290 501 OFFCURVE",
"240 501 CURVE SMOOTH"
);
},
{
closed = 1;
nodes = (
"313 -186 OFFCURVE",
"412 -158 OFFCURVE",
"471 -108 CURVE",
"420 7 LINE",
"354 -40 OFFCURVE",
"289 -60 OFFCURVE",
"242 -60 CURVE SMOOTH",
"189 -60 OFFCURVE",
"167 -35 OFFCURVE",
"167 -1 CURVE SMOOTH",
"167 71 OFFCURVE",
"288 81 OFFCURVE",
"288 213 CURVE SMOOTH",
"288 265 LINE",
"197 265 LINE",
"191 231 LINE SMOOTH",
"175 139 OFFCURVE",
"9 112 OFFCURVE",
"9 -16 CURVE SMOOTH",
"9 -126 OFFCURVE",
"111 -186 OFFCURVE",
"229 -186 CURVE SMOOTH"
);
},
{
closed = 1;
nodes = (
"323 327 LINE",
"323 491 LINE",
"157 491 LINE",
"157 327 LINE"
);
}
);
};
layerId = "E1B555A7-F4E1-459C-9C1A-AE952106EEF9";
paths = (
{
closed = 1;
nodes = (
"313 -188 OFFCURVE",
"412 -160 OFFCURVE",
"471 -110 CURVE",
"420 5 LINE",
"354 -42 OFFCURVE",
"289 -62 OFFCURVE",
"242 -62 CURVE SMOOTH",
"189 -62 OFFCURVE",
"167 -37 OFFCURVE",
"167 -3 CURVE SMOOTH",
"167 71 OFFCURVE",
"288 81 OFFCURVE",
"288 213 CURVE SMOOTH",
"288 265 LINE",
"197 265 LINE",
"191 231 LINE SMOOTH",
"175 139 OFFCURVE",
"9 112 OFFCURVE",
"9 -18 CURVE SMOOTH",
"9 -128 OFFCURVE",
"111 -188 OFFCURVE",
"229 -188 CURVE SMOOTH"
);
},
{
closed = 1;
nodes = (
"323 327 LINE",
"323 491 LINE",
"157 491 LINE",
"157 327 LINE"
);
}
);
width = 470;
}
);
leftKerningGroup = questiondown;
rightKerningGroup = questiondown;
unicode = 00BF;
userData = {
com.typemytype.robofont.layerData = {
b = {
anchors = (
);
components = (
);
contours = (
);
lib = {
};
name = questiondown;
unicodes = (
);
width = 1047;
};
};
};
},
{
glyphname = quotesingle;
lastChange = "2016-09-26 10:56:57 +0000";
layers = (
{
background = {
paths = (
{
closed = 1;
nodes = (
"115 431 OFFCURVE",
"122 438 OFFCURVE",
"123 451 CURVE SMOOTH",
"136 671 LINE SMOOTH",
"138 697 OFFCURVE",
"123 710 OFFCURVE",
"104 710 CURVE SMOOTH",
"85 710 OFFCURVE",
"70 697 OFFCURVE",
"72 671 CURVE SMOOTH",
"87 451 LINE SMOOTH",
"87 439 OFFCURVE",
"95 431 OFFCURVE",
"105 431 CURVE SMOOTH"
);
}
);
};
layerId = "9E718F8A-2CEA-4931-B05D-987794BD97DA";
paths = (
{
closed = 1;
nodes = (
"122 436 LINE",
"136 705 LINE",
"70 705 LINE",
"86 436 LINE"
);
}
);
width = 208;
},
{
background = {
paths = (
{
closed = 1;
nodes = (
"158 400 OFFCURVE",
"175 415 OFFCURVE",
"181 448 CURVE SMOOTH",
"208 606 LINE SMOOTH",
"220 672 OFFCURVE",
"186 710 OFFCURVE",
"129 710 CURVE SMOOTH",
"72 710 OFFCURVE",
"37 672 OFFCURVE",
"49 606 CURVE SMOOTH",
"77 448 LINE SMOOTH",
"82 418 OFFCURVE",
"100 400 OFFCURVE",
"129 400 CURVE SMOOTH"
);
}
);
};
layerId = "E1B555A7-F4E1-459C-9C1A-AE952106EEF9";
paths = (
{
closed = 1;
nodes = (
"181 405 LINE",
"218 705 LINE",
"39 705 LINE",
"77 405 LINE"
);
}
);
width = 257;
}
);
leftKerningGroup = quotesingle;
rightKerningGroup = quotesingle;
unicode = 0027;
},
{
glyphname = semicolon;
lastChange = "2016-09-22 07:47:37 +0000";
layers = (
{
background = {
paths = (
{
closed = 1;
nodes = (
"133 406 OFFCURVE",
"152 424 OFFCURVE",
"152 451 CURVE SMOOTH",
"152 478 OFFCURVE",
"133 496 OFFCURVE",
"109 496 CURVE SMOOTH",
"84 496 OFFCURVE",
"65 478 OFFCURVE",
"65 451 CURVE SMOOTH",
"65 424 OFFCURVE",
"84 406 OFFCURVE",
"109 406 CURVE SMOOTH"
);
},
{
closed = 1;
nodes = (
"136 -65 OFFCURVE",
"152 -26 OFFCURVE",
"152 20 CURVE SMOOTH",
"152 67 OFFCURVE",
"133 85 OFFCURVE",
"107 85 CURVE SMOOTH",
"83 85 OFFCURVE",
"65 67 OFFCURVE",
"65 40 CURVE SMOOTH",
"65 13 OFFCURVE",
"84 -4 OFFCURVE",
"108 -4 CURVE SMOOTH",
"126 -4 LINE",
"106 20 LINE",
"106 -19 OFFCURVE",
"99 -43 OFFCURVE",
"77 -67 CURVE SMOOTH",
"55 -91 OFFCURVE",
"88 -118 OFFCURVE",
"110 -94 CURVE SMOOTH"
);
}
);
};
layerId = "9E718F8A-2CEA-4931-B05D-987794BD97DA";
paths = (
{
closed = 1;
nodes = (
"69 405 LINE",
"148 405 LINE",
"148 485 LINE",
"69 485 LINE"
);
},
{
closed = 1;
nodes = (
"136 -66 OFFCURVE",
"148 -26 OFFCURVE",
"148 20 CURVE SMOOTH",
"148 80 LINE",
"69 80 LINE",
"69 0 LINE",
"126 0 LINE",
"106 9 LINE",
"106 -19 OFFCURVE",
"100 -46 OFFCURVE",
"69 -80 CURVE",
"99 -103 LINE"
);
}
);
width = 217;
},
{
background = {
paths = (
{
closed = 1;
nodes = (
"181 325 OFFCURVE",
"218 363 OFFCURVE",
"218 413 CURVE SMOOTH",
"218 463 OFFCURVE",
"181 501 OFFCURVE",
"131 501 CURVE SMOOTH",
"81 501 OFFCURVE",
"44 463 OFFCURVE",
"44 413 CURVE SMOOTH",
"44 363 OFFCURVE",
"81 325 OFFCURVE",
"131 325 CURVE SMOOTH"
);
},
{
closed = 1;
nodes = (
"191 -78 OFFCURVE",
"218 -18 OFFCURVE",
"218 57 CURVE SMOOTH",
"218 132 OFFCURVE",
"180 170 OFFCURVE",
"128 170 CURVE SMOOTH",
"80 170 OFFCURVE",
"44 132 OFFCURVE",
"44 82 CURVE SMOOTH",
"44 32 OFFCURVE",
"81 -1 OFFCURVE",
"131 -1 CURVE SMOOTH",
"164 -1 LINE",
"128 57 LINE",
"128 -11 OFFCURVE",
"105 -47 OFFCURVE",
"77 -77 CURVE SMOOTH",
"39 -117 OFFCURVE",
"104 -169 OFFCURVE",
"142 -129 CURVE SMOOTH"
);
}
);
};
layerId = "E1B555A7-F4E1-459C-9C1A-AE952106EEF9";
paths = (
{
closed = 1;
nodes = (
"48 327 LINE",
"214 327 LINE",
"214 491 LINE",
"48 491 LINE"
);
},
{
closed = 1;
nodes = (
"190 -78 OFFCURVE",
"214 -18 OFFCURVE",
"214 59 CURVE SMOOTH",
"214 164 LINE",
"48 164 LINE",
"48 0 LINE",
"164 0 LINE",
"128 37 LINE",
"128 -11 OFFCURVE",
"109 -50 OFFCURVE",
"62 -98 CURVE",
"122 -146 LINE"
);
}
);
width = 262;
}
);
leftKerningGroup = colon;
rightKerningGroup = colon;
unicode = 003B;
},
{
glyphname = slash;
lastChange = "2016-09-22 07:47:37 +0000";
layers = (
{
background = {
paths = (
{
closed = 1;
nodes = (
"276 708 LINE SMOOTH",
"288 745 OFFCURVE",
"239 762 OFFCURVE",
"227 725 CURVE SMOOTH",
"-12 -20 LINE SMOOTH",
"-24 -57 OFFCURVE",
"25 -74 OFFCURVE",
"37 -37 CURVE SMOOTH"
);
}
);
};
layerId = "9E718F8A-2CEA-4931-B05D-987794BD97DA";
paths = (
{
closed = 1;
nodes = (
"283 731 LINE",
"234 748 LINE",
"-19 -43 LINE",
"30 -60 LINE"
);
}
);
width = 264;
},
{
background = {
paths = (
{
closed = 1;
nodes = (
"339 686 LINE SMOOTH",
"364 763 OFFCURVE",
"248 798 OFFCURVE",
"223 721 CURVE SMOOTH",
"-6 2 LINE SMOOTH",
"-31 -75 OFFCURVE",
"85 -110 OFFCURVE",
"110 -33 CURVE SMOOTH"
);
}
);
};
layerId = "E1B555A7-F4E1-459C-9C1A-AE952106EEF9";
paths = (
{
closed = 1;
nodes = (
"354 731 LINE",
"238 766 LINE",
"-21 -43 LINE",
"95 -78 LINE"
);
}
);
width = 334;
}
);
leftKerningGroup = slash;
rightKerningGroup = slash;
unicode = 002F;
},
{
glyphname = underscore;
lastChange = "2016-09-22 07:47:37 +0000";
layers = (
{
background = {
paths = (
{
closed = 1;
nodes = (
"477 -39 LINE SMOOTH",
"491 -39 OFFCURVE",
"500 -30 OFFCURVE",
"500 -20 CURVE SMOOTH",
"500 -10 OFFCURVE",
"491 0 OFFCURVE",
"477 0 CURVE SMOOTH",
"23 0 LINE SMOOTH",
"9 0 OFFCURVE",
"0 -10 OFFCURVE",
"0 -20 CURVE SMOOTH",
"0 -30 OFFCURVE",
"9 -39 OFFCURVE",
"23 -39 CURVE SMOOTH"
);
}
);
};
layerId = "9E718F8A-2CEA-4931-B05D-987794BD97DA";
paths = (
{
closed = 1;
nodes = (
"495 -39 LINE",
"495 0 LINE",
"5 0 LINE",
"5 -39 LINE"
);
}
);
width = 500;
},
{
background = {
paths = (
{
closed = 1;
nodes = (
"441 -90 LINE SMOOTH",
"477 -90 OFFCURVE",
"500 -72 OFFCURVE",
"500 -45 CURVE SMOOTH",
"500 -18 OFFCURVE",
"477 0 OFFCURVE",
"441 0 CURVE SMOOTH",
"59 0 LINE SMOOTH",
"23 0 OFFCURVE",
"0 -18 OFFCURVE",
"0 -45 CURVE SMOOTH",
"0 -72 OFFCURVE",
"23 -90 OFFCURVE",
"59 -90 CURVE SMOOTH"
);
}
);
};
layerId = "E1B555A7-F4E1-459C-9C1A-AE952106EEF9";
paths = (
{
closed = 1;
nodes = (
"485 -90 LINE",
"485 0 LINE",
"15 0 LINE",
"15 -90 LINE"
);
}
);
width = 500;
}
);
leftKerningGroup = period;
rightKerningGroup = period;
unicode = 005F;
},
{
glyphname = periodcentered.loclCAT;
lastChange = "2016-09-22 07:47:37 +0000";
layers = (
{
anchors = (
{
name = _center;
position = "{150, 255}";
}
);
background = {
anchors = (
{
name = _center;
position = "{150, 255}";
}
);
paths = (
{
closed = 1;
nodes = (
"174 214 OFFCURVE",
"192 230 OFFCURVE",
"192 255 CURVE SMOOTH",
"192 280 OFFCURVE",
"174 296 OFFCURVE",
"150 296 CURVE SMOOTH",
"126 296 OFFCURVE",
"108 280 OFFCURVE",
"108 255 CURVE SMOOTH",
"108 230 OFFCURVE",
"126 214 OFFCURVE",
"150 214 CURVE SMOOTH"
);
}
);
};
layerId = "9E718F8A-2CEA-4931-B05D-987794BD97DA";
paths = (
{
closed = 1;
nodes = (
"111 217 LINE",
"190 217 LINE",
"190 293 LINE",
"111 293 LINE"
);
}
);
width = 300;
},
{
anchors = (
{
name = _center;
position = "{150, 255}";
}
);
background = {
anchors = (
{
name = _center;
position = "{150, 255}";
}
);
paths = (
{
closed = 1;
nodes = (
"204 178 OFFCURVE",
"238 209 OFFCURVE",
"238 256 CURVE SMOOTH",
"238 303 OFFCURVE",
"203 333 OFFCURVE",
"150 333 CURVE SMOOTH",
"96 333 OFFCURVE",
"62 303 OFFCURVE",
"62 256 CURVE SMOOTH",
"62 209 OFFCURVE",
"96 178 OFFCURVE",
"150 178 CURVE SMOOTH"
);
}
);
};
layerId = "E1B555A7-F4E1-459C-9C1A-AE952106EEF9";
paths = (
{
closed = 1;
nodes = (
"67 183 LINE",
"233 183 LINE",
"233 327 LINE",
"67 327 LINE"
);
}
);
width = 300;
}
);
leftKerningGroup = period;
rightKerningGroup = period;
},
{
glyphname = braceleft;
lastChange = "2016-09-22 07:47:37 +0000";
layers = (
{
background = {
paths = (
{
closed = 1;
nodes = (
"301 -180 LINE SMOOTH",
"318 -180 OFFCURVE",
"328 -172 OFFCURVE",
"328 -158 CURVE SMOOTH",
"328 -144 OFFCURVE",
"318 -135 OFFCURVE",
"301 -135 CURVE SMOOTH",
"246 -135 LINE SMOOTH",
"216 -135 OFFCURVE",
"202 -119 OFFCURVE",
"202 -89 CURVE SMOOTH",
"202 163 LINE SMOOTH",
"202 236 OFFCURVE",
"154 265 OFFCURVE",
"114 265 CURVE",
"114 261 LINE",
"154 261 OFFCURVE",
"202 290 OFFCURVE",
"202 363 CURVE SMOOTH",
"202 614 LINE SMOOTH",
"202 644 OFFCURVE",
"216 660 OFFCURVE",
"246 660 CURVE SMOOTH",
"301 660 LINE SMOOTH",
"318 660 OFFCURVE",
"328 669 OFFCURVE",
"328 683 CURVE SMOOTH",
"328 697 OFFCURVE",
"318 705 OFFCURVE",
"301 705 CURVE SMOOTH",
"236 705 LINE SMOOTH",
"178 705 OFFCURVE",
"148 673 OFFCURVE",
"148 615 CURVE SMOOTH",
"148 368 LINE SMOOTH",
"148 314 OFFCURVE",
"130 289 OFFCURVE",
"74 286 CURVE SMOOTH",
"55 285 OFFCURVE",
"47 275 OFFCURVE",
"47 263 CURVE SMOOTH",
"47 251 OFFCURVE",
"55 241 OFFCURVE",
"74 240 CURVE SMOOTH",
"130 237 OFFCURVE",
"148 212 OFFCURVE",
"148 158 CURVE SMOOTH",
"148 -90 LINE SMOOTH",
"148 -148 OFFCURVE",
"178 -180 OFFCURVE",
"236 -180 CURVE SMOOTH"
);
}
);
};
layerId = "9E718F8A-2CEA-4931-B05D-987794BD97DA";
paths = (
{
closed = 1;
nodes = (
"323 -180 LINE",
"323 -135 LINE",
"246 -135 LINE SMOOTH",
"216 -135 OFFCURVE",
"202 -119 OFFCURVE",
"202 -89 CURVE SMOOTH",
"202 163 LINE SMOOTH",
"202 236 OFFCURVE",
"154 265 OFFCURVE",
"114 265 CURVE",
"114 261 LINE",
"154 261 OFFCURVE",
"202 290 OFFCURVE",
"202 363 CURVE SMOOTH",
"202 614 LINE SMOOTH",
"202 644 OFFCURVE",
"216 660 OFFCURVE",
"246 660 CURVE SMOOTH",
"323 660 LINE",
"323 705 LINE",
"236 705 LINE SMOOTH",
"178 705 OFFCURVE",
"148 673 OFFCURVE",
"148 615 CURVE SMOOTH",
"148 368 LINE SMOOTH",
"148 314 OFFCURVE",
"130 289 OFFCURVE",
"74 286 CURVE SMOOTH",
"52 285 LINE",
"52 241 LINE",
"74 240 LINE SMOOTH",
"130 237 OFFCURVE",
"148 212 OFFCURVE",
"148 158 CURVE SMOOTH",
"148 -90 LINE SMOOTH",
"148 -148 OFFCURVE",
"178 -180 OFFCURVE",
"236 -180 CURVE SMOOTH"
);
}
);
width = 328;
},
{
background = {
paths = (
{
closed = 1;
nodes = (
"356 -180 LINE SMOOTH",
"385 -180 OFFCURVE",
"414 -163 OFFCURVE",
"414 -122 CURVE SMOOTH",
"414 -81 OFFCURVE",
"385 -64 OFFCURVE",
"356 -64 CURVE SMOOTH",
"334 -64 LINE SMOOTH",
"308 -64 OFFCURVE",
"293 -54 OFFCURVE",
"293 -21 CURVE SMOOTH",
"293 144 LINE SMOOTH",
"293 217 OFFCURVE",
"238 264 OFFCURVE",
"193 264 CURVE",
"193 260 LINE",
"238 260 OFFCURVE",
"293 307 OFFCURVE",
"293 380 CURVE SMOOTH",
"293 546 LINE SMOOTH",
"293 579 OFFCURVE",
"308 589 OFFCURVE",
"334 589 CURVE SMOOTH",
"356 589 LINE SMOOTH",
"385 589 OFFCURVE",
"414 606 OFFCURVE",
"414 647 CURVE SMOOTH",
"414 688 OFFCURVE",
"385 705 OFFCURVE",
"356 705 CURVE SMOOTH",
"276 705 LINE SMOOTH",
"191 705 OFFCURVE",
"141 655 OFFCURVE",
"141 570 CURVE SMOOTH",
"141 399 LINE SMOOTH",
"141 347 OFFCURVE",
"126 326 OFFCURVE",
"81 322 CURVE SMOOTH",
"43 319 OFFCURVE",
"24 296 OFFCURVE",
"24 263 CURVE SMOOTH",
"24 228 OFFCURVE",
"43 205 OFFCURVE",
"81 202 CURVE SMOOTH",
"126 198 OFFCURVE",
"141 177 OFFCURVE",
"141 125 CURVE SMOOTH",
"141 -45 LINE SMOOTH",
"141 -130 OFFCURVE",
"191 -180 OFFCURVE",
"276 -180 CURVE SMOOTH"
);
}
);
};
layerId = "E1B555A7-F4E1-459C-9C1A-AE952106EEF9";
paths = (
{
closed = 1;
nodes = (
"399 -180 LINE",
"399 -64 LINE",
"334 -64 LINE SMOOTH",
"308 -64 OFFCURVE",
"293 -54 OFFCURVE",
"293 -21 CURVE SMOOTH",
"293 144 LINE SMOOTH",
"293 217 OFFCURVE",
"238 264 OFFCURVE",
"193 264 CURVE",
"193 260 LINE",
"238 260 OFFCURVE",
"293 307 OFFCURVE",
"293 380 CURVE SMOOTH",
"293 546 LINE SMOOTH",
"293 579 OFFCURVE",
"308 589 OFFCURVE",
"334 589 CURVE SMOOTH",
"399 589 LINE",
"399 705 LINE",
"276 705 LINE SMOOTH",
"191 705 OFFCURVE",
"141 655 OFFCURVE",
"141 570 CURVE SMOOTH",
"141 399 LINE SMOOTH",
"141 347 OFFCURVE",
"126 326 OFFCURVE",
"81 322 CURVE SMOOTH",
"39 318 LINE",
"39 206 LINE",
"81 202 LINE SMOOTH",
"126 198 OFFCURVE",
"141 177 OFFCURVE",
"141 125 CURVE SMOOTH",
"141 -45 LINE SMOOTH",
"141 -130 OFFCURVE",
"191 -180 OFFCURVE",
"276 -180 CURVE SMOOTH"
);
}
);
width = 414;
}
);
leftKerningGroup = hyphen;
rightKerningGroup = braceleft;
unicode = 007B;
},
{
glyphname = braceright;
lastChange = "2016-09-26 10:56:33 +0000";
layers = (
{
background = {
paths = (
{
closed = 1;
nodes = (
"150 -180 OFFCURVE",
"180 -148 OFFCURVE",
"180 -90 CURVE SMOOTH",
"182 158 LINE SMOOTH",
"182 212 OFFCURVE",
"198 237 OFFCURVE",
"254 240 CURVE SMOOTH",
"273 241 OFFCURVE",
"281 251 OFFCURVE",
"281 263 CURVE SMOOTH",
"281 275 OFFCURVE",
"273 285 OFFCURVE",
"254 286 CURVE SMOOTH",
"198 289 OFFCURVE",
"180 314 OFFCURVE",
"180 368 CURVE SMOOTH",
"180 615 LINE SMOOTH",
"180 673 OFFCURVE",
"150 705 OFFCURVE",
"92 705 CURVE SMOOTH",
"27 705 LINE SMOOTH",
"10 705 OFFCURVE",
"0 697 OFFCURVE",
"0 683 CURVE SMOOTH",
"0 669 OFFCURVE",
"10 660 OFFCURVE",
"27 660 CURVE SMOOTH",
"82 660 LINE SMOOTH",
"112 660 OFFCURVE",
"126 644 OFFCURVE",
"126 614 CURVE SMOOTH",
"126 363 LINE SMOOTH",
"126 290 OFFCURVE",
"174 261 OFFCURVE",
"214 261 CURVE",
"214 265 LINE",
"174 265 OFFCURVE",
"126 236 OFFCURVE",
"126 163 CURVE SMOOTH",
"126 -89 LINE SMOOTH",
"126 -119 OFFCURVE",
"112 -135 OFFCURVE",
"82 -135 CURVE SMOOTH",
"27 -135 LINE SMOOTH",
"10 -135 OFFCURVE",
"0 -144 OFFCURVE",
"0 -158 CURVE SMOOTH",
"0 -172 OFFCURVE",
"10 -180 OFFCURVE",
"27 -180 CURVE SMOOTH",
"92 -180 LINE SMOOTH"
);
}
);
};
layerId = "9E718F8A-2CEA-4931-B05D-987794BD97DA";
paths = (
{
closed = 1;
nodes = (
"150 -180 OFFCURVE",
"180 -148 OFFCURVE",
"180 -90 CURVE SMOOTH",
"180 158 LINE SMOOTH",
"180 212 OFFCURVE",
"198 237 OFFCURVE",
"254 240 CURVE SMOOTH",
"276 241 LINE",
"276 285 LINE",
"254 286 LINE SMOOTH",
"198 289 OFFCURVE",
"180 314 OFFCURVE",
"180 368 CURVE SMOOTH",
"180 615 LINE SMOOTH",
"180 673 OFFCURVE",
"150 705 OFFCURVE",
"92 705 CURVE SMOOTH",
"5 705 LINE",
"5 660 LINE",
"82 660 LINE SMOOTH",
"112 660 OFFCURVE",
"126 644 OFFCURVE",
"126 614 CURVE SMOOTH",
"126 363 LINE SMOOTH",
"126 290 OFFCURVE",
"174 261 OFFCURVE",
"214 261 CURVE",
"214 265 LINE",
"174 265 OFFCURVE",
"126 236 OFFCURVE",
"126 163 CURVE SMOOTH",
"126 -89 LINE SMOOTH",
"126 -119 OFFCURVE",
"112 -135 OFFCURVE",
"82 -135 CURVE SMOOTH",
"5 -135 LINE",
"5 -180 LINE",
"92 -180 LINE SMOOTH"
);
}
);
width = 328;
},
{
background = {
paths = (
{
closed = 1;
nodes = (
"223 -180 OFFCURVE",
"273 -130 OFFCURVE",
"273 -45 CURVE SMOOTH",
"273 125 LINE SMOOTH",
"273 177 OFFCURVE",
"288 198 OFFCURVE",
"333 202 CURVE SMOOTH",
"371 205 OFFCURVE",
"390 228 OFFCURVE",
"390 263 CURVE SMOOTH",
"390 296 OFFCURVE",
"371 319 OFFCURVE",
"333 322 CURVE SMOOTH",
"288 326 OFFCURVE",
"273 347 OFFCURVE",
"273 399 CURVE SMOOTH",
"273 570 LINE SMOOTH",
"273 655 OFFCURVE",
"223 705 OFFCURVE",
"138 705 CURVE SMOOTH",
"58 705 LINE SMOOTH",
"29 705 OFFCURVE",
"0 688 OFFCURVE",
"0 647 CURVE SMOOTH",
"0 606 OFFCURVE",
"29 589 OFFCURVE",
"58 589 CURVE SMOOTH",
"80 589 LINE SMOOTH",
"106 589 OFFCURVE",
"121 579 OFFCURVE",
"121 546 CURVE SMOOTH",
"121 380 LINE SMOOTH",
"121 307 OFFCURVE",
"176 260 OFFCURVE",
"221 260 CURVE",
"221 264 LINE",
"176 264 OFFCURVE",
"121 217 OFFCURVE",
"121 144 CURVE SMOOTH",
"121 -21 LINE SMOOTH",
"121 -54 OFFCURVE",
"106 -64 OFFCURVE",
"80 -64 CURVE SMOOTH",
"58 -64 LINE SMOOTH",
"29 -64 OFFCURVE",
"0 -81 OFFCURVE",
"0 -122 CURVE SMOOTH",
"0 -163 OFFCURVE",
"29 -180 OFFCURVE",
"58 -180 CURVE SMOOTH",
"138 -180 LINE SMOOTH"
);
}
);
};
layerId = "E1B555A7-F4E1-459C-9C1A-AE952106EEF9";
paths = (
{
closed = 1;
nodes = (
"223 -180 OFFCURVE",
"273 -130 OFFCURVE",
"273 -45 CURVE SMOOTH",
"273 125 LINE SMOOTH",
"273 177 OFFCURVE",
"288 198 OFFCURVE",
"333 202 CURVE SMOOTH",
"375 206 LINE",
"375 318 LINE",
"333 322 LINE SMOOTH",
"288 326 OFFCURVE",
"273 347 OFFCURVE",
"273 399 CURVE SMOOTH",
"273 570 LINE SMOOTH",
"273 655 OFFCURVE",
"223 705 OFFCURVE",
"138 705 CURVE SMOOTH",
"15 705 LINE",
"15 589 LINE",
"80 589 LINE SMOOTH",
"106 589 OFFCURVE",
"121 579 OFFCURVE",
"121 546 CURVE SMOOTH",
"121 380 LINE SMOOTH",
"121 307 OFFCURVE",
"176 260 OFFCURVE",
"221 260 CURVE",
"221 264 LINE",
"176 264 OFFCURVE",
"121 217 OFFCURVE",
"121 144 CURVE SMOOTH",
"121 -21 LINE SMOOTH",
"121 -54 OFFCURVE",
"106 -64 OFFCURVE",
"80 -64 CURVE SMOOTH",
"15 -64 LINE",
"15 -180 LINE",
"138 -180 LINE SMOOTH"
);
}
);
width = 414;
}
);
leftKerningGroup = braceright;
rightKerningGroup = hyphen;
unicode = 007D;
},
{
glyphname = bracketleft;
lastChange = "2016-09-26 10:56:33 +0000";
layers = (
{
background = {
paths = (
{
closed = 1;
nodes = (
"264 -180 LINE SMOOTH",
"281 -180 OFFCURVE",
"291 -172 OFFCURVE",
"291 -158 CURVE SMOOTH",
"291 -144 OFFCURVE",
"281 -135 OFFCURVE",
"264 -135 CURVE SMOOTH",
"209 -135 LINE SMOOTH",
"179 -135 OFFCURVE",
"165 -119 OFFCURVE",
"165 -89 CURVE SMOOTH",
"165 614 LINE SMOOTH",
"165 644 OFFCURVE",
"179 660 OFFCURVE",
"209 660 CURVE SMOOTH",
"264 660 LINE SMOOTH",
"281 660 OFFCURVE",
"291 669 OFFCURVE",
"291 683 CURVE SMOOTH",
"291 697 OFFCURVE",
"281 705 OFFCURVE",
"264 705 CURVE SMOOTH",
"199 705 LINE SMOOTH",
"141 705 OFFCURVE",
"111 673 OFFCURVE",
"111 615 CURVE SMOOTH",
"111 -90 LINE SMOOTH",
"111 -148 OFFCURVE",
"141 -180 OFFCURVE",
"199 -180 CURVE SMOOTH"
);
}
);
};
layerId = "9E718F8A-2CEA-4931-B05D-987794BD97DA";
paths = (
{
closed = 1;
nodes = (
"286 -180 LINE",
"286 -135 LINE",
"165 -135 LINE",
"165 660 LINE",
"286 660 LINE",
"286 705 LINE",
"111 705 LINE",
"111 -180 LINE"
);
}
);
width = 291;
},
{
background = {
paths = (
{
closed = 1;
nodes = (
"319 -180 LINE SMOOTH",
"348 -180 OFFCURVE",
"377 -163 OFFCURVE",
"377 -122 CURVE SMOOTH",
"377 -81 OFFCURVE",
"348 -64 OFFCURVE",
"319 -64 CURVE SMOOTH",
"297 -64 LINE SMOOTH",
"271 -64 OFFCURVE",
"256 -54 OFFCURVE",
"256 -21 CURVE SMOOTH",
"256 546 LINE SMOOTH",
"256 579 OFFCURVE",
"271 589 OFFCURVE",
"297 589 CURVE SMOOTH",
"319 589 LINE SMOOTH",
"348 589 OFFCURVE",
"377 606 OFFCURVE",
"377 647 CURVE SMOOTH",
"377 688 OFFCURVE",
"348 705 OFFCURVE",
"319 705 CURVE SMOOTH",
"239 705 LINE SMOOTH",
"154 705 OFFCURVE",
"104 655 OFFCURVE",
"104 570 CURVE SMOOTH",
"104 -45 LINE SMOOTH",
"104 -130 OFFCURVE",
"154 -180 OFFCURVE",
"239 -180 CURVE SMOOTH"
);
}
);
};
layerId = "E1B555A7-F4E1-459C-9C1A-AE952106EEF9";
paths = (
{
closed = 1;
nodes = (
"362 -180 LINE",
"362 -64 LINE",
"256 -64 LINE",
"256 589 LINE",
"362 589 LINE",
"362 705 LINE",
"104 705 LINE",
"104 -180 LINE"
);
}
);
width = 377;
}
);
leftKerningGroup = parenleft;
rightKerningGroup = braceleft;
unicode = 005B;
},
{
glyphname = bracketright;
lastChange = "2016-09-26 10:56:33 +0000";
layers = (
{
background = {
paths = (
{
closed = 1;
nodes = (
"150 -180 OFFCURVE",
"180 -148 OFFCURVE",
"180 -90 CURVE SMOOTH",
"180 615 LINE SMOOTH",
"180 673 OFFCURVE",
"150 705 OFFCURVE",
"92 705 CURVE SMOOTH",
"27 705 LINE SMOOTH",
"10 705 OFFCURVE",
"0 697 OFFCURVE",
"0 683 CURVE SMOOTH",
"0 669 OFFCURVE",
"10 660 OFFCURVE",
"27 660 CURVE SMOOTH",
"82 660 LINE SMOOTH",
"112 660 OFFCURVE",
"126 644 OFFCURVE",
"126 614 CURVE SMOOTH",
"126 -89 LINE SMOOTH",
"126 -119 OFFCURVE",
"112 -135 OFFCURVE",
"82 -135 CURVE SMOOTH",
"27 -135 LINE SMOOTH",
"10 -135 OFFCURVE",
"0 -144 OFFCURVE",
"0 -158 CURVE SMOOTH",
"0 -172 OFFCURVE",
"10 -180 OFFCURVE",
"27 -180 CURVE SMOOTH",
"92 -180 LINE SMOOTH"
);
}
);
};
layerId = "9E718F8A-2CEA-4931-B05D-987794BD97DA";
paths = (
{
closed = 1;
nodes = (
"180 705 LINE",
"5 705 LINE",
"5 660 LINE",
"126 660 LINE",
"126 -135 LINE",
"5 -135 LINE",
"5 -180 LINE",
"180 -180 LINE"
);
}
);
width = 291;
},
{
background = {
paths = (
{
closed = 1;
nodes = (
"223 -180 OFFCURVE",
"273 -130 OFFCURVE",
"273 -45 CURVE SMOOTH",
"273 570 LINE SMOOTH",
"273 655 OFFCURVE",
"223 705 OFFCURVE",
"138 705 CURVE SMOOTH",
"58 705 LINE SMOOTH",
"29 705 OFFCURVE",
"0 688 OFFCURVE",
"0 647 CURVE SMOOTH",
"0 606 OFFCURVE",
"29 589 OFFCURVE",
"58 589 CURVE SMOOTH",
"80 589 LINE SMOOTH",
"106 589 OFFCURVE",
"121 579 OFFCURVE",
"121 546 CURVE SMOOTH",
"121 -21 LINE SMOOTH",
"121 -54 OFFCURVE",
"106 -64 OFFCURVE",
"80 -64 CURVE SMOOTH",
"58 -64 LINE SMOOTH",
"29 -64 OFFCURVE",
"0 -81 OFFCURVE",
"0 -122 CURVE SMOOTH",
"0 -163 OFFCURVE",
"29 -180 OFFCURVE",
"58 -180 CURVE SMOOTH",
"138 -180 LINE SMOOTH"
);
}
);
};
layerId = "E1B555A7-F4E1-459C-9C1A-AE952106EEF9";
paths = (
{
closed = 1;
nodes = (
"273 705 LINE",
"15 705 LINE",
"15 589 LINE",
"121 589 LINE",
"121 -64 LINE",
"15 -64 LINE",
"15 -180 LINE",
"273 -180 LINE"
);
}
);
width = 377;
}
);
leftKerningGroup = braceright;
rightKerningGroup = parenright;
unicode = 005D;
},
{
glyphname = parenleft;
lastChange = "2016-09-22 07:47:37 +0000";
layers = (
{
background = {
paths = (
{
closed = 1;
nodes = (
"221 -202 OFFCURVE",
"261 -187 OFFCURVE",
"249 -159 CURVE SMOOTH",
"188 -16 OFFCURVE",
"160 128 OFFCURVE",
"160 263 CURVE SMOOTH",
"160 398 OFFCURVE",
"188 542 OFFCURVE",
"249 685 CURVE SMOOTH",
"261 713 OFFCURVE",
"221 728 OFFCURVE",
"208 701 CURVE SMOOTH",
"140 560 OFFCURVE",
"105 415 OFFCURVE",
"105 263 CURVE SMOOTH",
"105 111 OFFCURVE",
"140 -35 OFFCURVE",
"208 -175 CURVE SMOOTH"
);
}
);
};
layerId = "9E718F8A-2CEA-4931-B05D-987794BD97DA";
paths = (
{
closed = 1;
nodes = (
"256 -176 LINE",
"186 -16 OFFCURVE",
"160 128 OFFCURVE",
"160 263 CURVE SMOOTH",
"160 398 OFFCURVE",
"186 542 OFFCURVE",
"256 702 CURVE",
"216 717 LINE",
"138 560 OFFCURVE",
"105 415 OFFCURVE",
"105 263 CURVE SMOOTH",
"105 111 OFFCURVE",
"138 -35 OFFCURVE",
"216 -191 CURVE"
);
}
);
width = 291;
},
{
background = {
paths = (
{
closed = 1;
nodes = (
"260 -213 OFFCURVE",
"360 -186 OFFCURVE",
"327 -102 CURVE SMOOTH",
"279 19 OFFCURVE",
"259 132 OFFCURVE",
"259 263 CURVE SMOOTH",
"259 394 OFFCURVE",
"279 509 OFFCURVE",
"327 630 CURVE SMOOTH",
"360 714 OFFCURVE",
"260 741 OFFCURVE",
"210 661 CURVE SMOOTH",
"137 545 OFFCURVE",
"99 413 OFFCURVE",
"99 263 CURVE SMOOTH",
"99 113 OFFCURVE",
"137 -17 OFFCURVE",
"210 -133 CURVE SMOOTH"
);
}
);
};
layerId = "E1B555A7-F4E1-459C-9C1A-AE952106EEF9";
paths = (
{
closed = 1;
nodes = (
"344 -155 LINE",
"277 17 OFFCURVE",
"259 132 OFFCURVE",
"259 263 CURVE SMOOTH",
"259 394 OFFCURVE",
"277 509 OFFCURVE",
"344 681 CURVE",
"242 723 LINE",
"132 545 OFFCURVE",
"99 413 OFFCURVE",
"99 263 CURVE SMOOTH",
"99 113 OFFCURVE",
"132 -19 OFFCURVE",
"242 -197 CURVE"
);
}
);
width = 379;
}
);
leftKerningGroup = parenleft;
rightKerningGroup = braceleft;
unicode = 0028;
},
{
glyphname = parenright;
lastChange = "2016-09-26 10:56:33 +0000";
layers = (
{
background = {
paths = (
{
closed = 1;
nodes = (
"151 -35 OFFCURVE",
"186 111 OFFCURVE",
"186 263 CURVE SMOOTH",
"186 415 OFFCURVE",
"151 560 OFFCURVE",
"83 701 CURVE SMOOTH",
"70 728 OFFCURVE",
"30 713 OFFCURVE",
"42 685 CURVE SMOOTH",
"103 542 OFFCURVE",
"131 398 OFFCURVE",
"131 263 CURVE SMOOTH",
"131 128 OFFCURVE",
"103 -16 OFFCURVE",
"42 -159 CURVE SMOOTH",
"30 -187 OFFCURVE",
"70 -202 OFFCURVE",
"83 -175 CURVE SMOOTH"
);
}
);
};
layerId = "9E718F8A-2CEA-4931-B05D-987794BD97DA";
paths = (
{
closed = 1;
nodes = (
"153 -35 OFFCURVE",
"186 111 OFFCURVE",
"186 263 CURVE SMOOTH",
"186 415 OFFCURVE",
"153 560 OFFCURVE",
"75 717 CURVE",
"35 702 LINE",
"105 542 OFFCURVE",
"131 398 OFFCURVE",
"131 263 CURVE SMOOTH",
"131 128 OFFCURVE",
"105 -16 OFFCURVE",
"35 -176 CURVE",
"75 -191 LINE"
);
}
);
width = 291;
},
{
background = {
paths = (
{
closed = 1;
nodes = (
"242 -17 OFFCURVE",
"280 113 OFFCURVE",
"280 263 CURVE SMOOTH",
"280 413 OFFCURVE",
"242 545 OFFCURVE",
"169 661 CURVE SMOOTH",
"119 741 OFFCURVE",
"19 714 OFFCURVE",
"52 630 CURVE SMOOTH",
"100 509 OFFCURVE",
"120 394 OFFCURVE",
"120 263 CURVE SMOOTH",
"120 132 OFFCURVE",
"100 19 OFFCURVE",
"52 -102 CURVE SMOOTH",
"19 -186 OFFCURVE",
"119 -213 OFFCURVE",
"169 -133 CURVE SMOOTH"
);
}
);
};
layerId = "E1B555A7-F4E1-459C-9C1A-AE952106EEF9";
paths = (
{
closed = 1;
nodes = (
"247 -19 OFFCURVE",
"280 113 OFFCURVE",
"280 263 CURVE SMOOTH",
"280 413 OFFCURVE",
"247 545 OFFCURVE",
"137 723 CURVE",
"35 681 LINE",
"102 509 OFFCURVE",
"120 394 OFFCURVE",
"120 263 CURVE SMOOTH",
"120 132 OFFCURVE",
"102 17 OFFCURVE",
"35 -155 CURVE",
"137 -197 LINE"
);
}
);
width = 379;
}
);
leftKerningGroup = braceright;
rightKerningGroup = parenright;
unicode = 0029;
},
{
glyphname = emdash;
lastChange = "2016-09-22 07:47:37 +0000";
layers = (
{
background = {
paths = (
{
closed = 1;
nodes = (
"977 246 LINE SMOOTH",
"991 246 OFFCURVE",
"1000 255 OFFCURVE",
"1000 265 CURVE SMOOTH",
"1000 275 OFFCURVE",
"991 285 OFFCURVE",
"977 285 CURVE SMOOTH",
"23 285 LINE SMOOTH",
"9 285 OFFCURVE",
"0 275 OFFCURVE",
"0 265 CURVE SMOOTH",
"0 255 OFFCURVE",
"9 246 OFFCURVE",
"23 246 CURVE SMOOTH"
);
}
);
};
layerId = "9E718F8A-2CEA-4931-B05D-987794BD97DA";
paths = (
{
closed = 1;
nodes = (
"1000 246 LINE",
"1000 285 LINE",
"0 285 LINE",
"0 246 LINE"
);
}
);
width = 1000;
},
{
background = {
paths = (
{
closed = 1;
nodes = (
"941 223 LINE SMOOTH",
"977 223 OFFCURVE",
"1000 241 OFFCURVE",
"1000 268 CURVE SMOOTH",
"1000 295 OFFCURVE",
"977 313 OFFCURVE",
"941 313 CURVE SMOOTH",
"59 313 LINE SMOOTH",
"23 313 OFFCURVE",
"0 295 OFFCURVE",
"0 268 CURVE SMOOTH",
"0 241 OFFCURVE",
"23 223 OFFCURVE",
"59 223 CURVE SMOOTH"
);
}
);
};
layerId = "E1B555A7-F4E1-459C-9C1A-AE952106EEF9";
paths = (
{
closed = 1;
nodes = (
"1000 223 LINE",
"1000 313 LINE",
"0 313 LINE",
"0 223 LINE"
);
}
);
width = 1000;
}
);
leftKerningGroup = hyphen;
rightKerningGroup = hyphen;
unicode = 2014;
},
{
glyphname = endash;
lastChange = "2016-09-22 07:47:37 +0000";
layers = (
{
background = {
paths = (
{
closed = 1;
nodes = (
"477 246 LINE SMOOTH",
"491 246 OFFCURVE",
"500 255 OFFCURVE",
"500 265 CURVE SMOOTH",
"500 275 OFFCURVE",
"491 285 OFFCURVE",
"477 285 CURVE SMOOTH",
"23 285 LINE SMOOTH",
"9 285 OFFCURVE",
"0 275 OFFCURVE",
"0 265 CURVE SMOOTH",
"0 255 OFFCURVE",
"9 246 OFFCURVE",
"23 246 CURVE SMOOTH"
);
}
);
};
layerId = "9E718F8A-2CEA-4931-B05D-987794BD97DA";
paths = (
{
closed = 1;
nodes = (
"500 246 LINE",
"500 285 LINE",
"0 285 LINE",
"0 246 LINE"
);
}
);
width = 500;
},
{
background = {
paths = (
{
closed = 1;
nodes = (
"441 223 LINE SMOOTH",
"477 223 OFFCURVE",
"500 241 OFFCURVE",
"500 268 CURVE SMOOTH",
"500 295 OFFCURVE",
"477 313 OFFCURVE",
"441 313 CURVE SMOOTH",
"59 313 LINE SMOOTH",
"23 313 OFFCURVE",
"0 295 OFFCURVE",
"0 268 CURVE SMOOTH",
"0 241 OFFCURVE",
"23 223 OFFCURVE",
"59 223 CURVE SMOOTH"
);
}
);
};
layerId = "E1B555A7-F4E1-459C-9C1A-AE952106EEF9";
paths = (
{
closed = 1;
nodes = (
"500 223 LINE",
"500 313 LINE",
"0 313 LINE",
"0 223 LINE"
);
}
);
width = 500;
}
);
leftKerningGroup = hyphen;
rightKerningGroup = hyphen;
unicode = 2013;
},
{
glyphname = figuredash;
lastChange = "2016-09-22 07:47:37 +0000";
layers = (
{
background = {
paths = (
{
closed = 1;
nodes = (
"507 246 LINE SMOOTH",
"521 246 OFFCURVE",
"530 255 OFFCURVE",
"530 265 CURVE SMOOTH",
"530 275 OFFCURVE",
"521 285 OFFCURVE",
"507 285 CURVE SMOOTH",
"93 285 LINE SMOOTH",
"79 285 OFFCURVE",
"70 275 OFFCURVE",
"70 265 CURVE SMOOTH",
"70 255 OFFCURVE",
"79 246 OFFCURVE",
"93 246 CURVE SMOOTH"
);
}
);
};
layerId = "9E718F8A-2CEA-4931-B05D-987794BD97DA";
paths = (
{
closed = 1;
nodes = (
"525 246 LINE",
"525 285 LINE",
"75 285 LINE",
"75 246 LINE"
);
}
);
width = 600;
},
{
background = {
paths = (
{
closed = 1;
nodes = (
"491 223 LINE SMOOTH",
"527 223 OFFCURVE",
"550 241 OFFCURVE",
"550 268 CURVE SMOOTH",
"550 295 OFFCURVE",
"527 313 OFFCURVE",
"491 313 CURVE SMOOTH",
"109 313 LINE SMOOTH",
"73 313 OFFCURVE",
"50 295 OFFCURVE",
"50 268 CURVE SMOOTH",
"50 241 OFFCURVE",
"73 223 OFFCURVE",
"109 223 CURVE SMOOTH"
);
}
);
};
layerId = "E1B555A7-F4E1-459C-9C1A-AE952106EEF9";
paths = (
{
closed = 1;
nodes = (
"535 223 LINE",
"535 313 LINE",
"65 313 LINE",
"65 223 LINE"
);
}
);
width = 600;
}
);
leftKerningGroup = hyphen;
rightKerningGroup = hyphen;
unicode = 2012;
},
{
glyphname = horizontalbar;
lastChange = "2016-09-22 07:47:37 +0000";
layers = (
{
background = {
paths = (
{
closed = 1;
nodes = (
"977 246 LINE SMOOTH",
"991 246 OFFCURVE",
"1000 255 OFFCURVE",
"1000 265 CURVE SMOOTH",
"1000 275 OFFCURVE",
"991 285 OFFCURVE",
"977 285 CURVE SMOOTH",
"23 285 LINE SMOOTH",
"9 285 OFFCURVE",
"0 275 OFFCURVE",
"0 265 CURVE SMOOTH",
"0 255 OFFCURVE",
"9 246 OFFCURVE",
"23 246 CURVE SMOOTH"
);
}
);
};
layerId = "9E718F8A-2CEA-4931-B05D-987794BD97DA";
paths = (
{
closed = 1;
nodes = (
"1000 246 LINE",
"1000 285 LINE",
"0 285 LINE",
"0 246 LINE"
);
}
);
width = 1000;
},
{
background = {
paths = (
{
closed = 1;
nodes = (
"941 223 LINE SMOOTH",
"977 223 OFFCURVE",
"1000 241 OFFCURVE",
"1000 268 CURVE SMOOTH",
"1000 295 OFFCURVE",
"977 313 OFFCURVE",
"941 313 CURVE SMOOTH",
"59 313 LINE SMOOTH",
"23 313 OFFCURVE",
"0 295 OFFCURVE",
"0 268 CURVE SMOOTH",
"0 241 OFFCURVE",
"23 223 OFFCURVE",
"59 223 CURVE SMOOTH"
);
}
);
};
layerId = "E1B555A7-F4E1-459C-9C1A-AE952106EEF9";
paths = (
{
closed = 1;
nodes = (
"1000 223 LINE",
"1000 313 LINE",
"0 313 LINE",
"0 223 LINE"
);
}
);
width = 1000;
}
);
leftKerningGroup = hyphen;
rightKerningGroup = hyphen;
unicode = 2015;
},
{
glyphname = hyphen;
lastChange = "2016-09-22 07:47:37 +0000";
layers = (
{
background = {
paths = (
{
closed = 1;
nodes = (
"324 242 LINE SMOOTH",
"340 242 OFFCURVE",
"349 252 OFFCURVE",
"349 265 CURVE SMOOTH",
"349 278 OFFCURVE",
"340 289 OFFCURVE",
"324 289 CURVE SMOOTH",
"95 289 LINE SMOOTH",
"79 289 OFFCURVE",
"70 278 OFFCURVE",
"70 265 CURVE SMOOTH",
"70 252 OFFCURVE",
"79 242 OFFCURVE",
"95 242 CURVE SMOOTH"
);
}
);
};
layerId = "9E718F8A-2CEA-4931-B05D-987794BD97DA";
paths = (
{
closed = 1;
nodes = (
"344 242 LINE",
"344 289 LINE",
"75 289 LINE",
"75 242 LINE"
);
}
);
width = 419;
},
{
background = {
paths = (
{
closed = 1;
nodes = (
"318 207 LINE SMOOTH",
"369 207 OFFCURVE",
"391 231 OFFCURVE",
"391 268 CURVE SMOOTH",
"391 305 OFFCURVE",
"369 329 OFFCURVE",
"318 329 CURVE SMOOTH",
"123 329 LINE SMOOTH",
"72 329 OFFCURVE",
"50 305 OFFCURVE",
"50 268 CURVE SMOOTH",
"50 231 OFFCURVE",
"72 207 OFFCURVE",
"123 207 CURVE SMOOTH"
);
}
);
};
layerId = "E1B555A7-F4E1-459C-9C1A-AE952106EEF9";
paths = (
{
closed = 1;
nodes = (
"376 207 LINE",
"376 329 LINE",
"65 329 LINE",
"65 207 LINE"
);
}
);
width = 441;
}
);
leftKerningGroup = hyphen;
rightKerningGroup = hyphen;
unicode = 002D;
},
{
glyphname = guilsinglleft;
lastChange = "2016-09-22 07:47:37 +0000";
layers = (
{
background = {
paths = (
{
closed = 1;
nodes = (
"160 80 OFFCURVE",
"200 95 OFFCURVE",
"186 123 CURVE SMOOTH",
"114 265 LINE",
"186 407 LINE SMOOTH",
"200 435 OFFCURVE",
"160 451 OFFCURVE",
"144 423 CURVE SMOOTH",
"62 282 LINE SMOOTH",
"55 270 OFFCURVE",
"55 260 OFFCURVE",
"62 248 CURVE SMOOTH",
"144 107 LINE SMOOTH"
);
}
);
};
layerId = "9E718F8A-2CEA-4931-B05D-987794BD97DA";
paths = (
{
closed = 1;
nodes = (
"194 107 LINE",
"114 265 LINE",
"194 423 LINE",
"153 438 LINE",
"60 279 LINE",
"60 251 LINE",
"153 92 LINE"
);
}
);
width = 243;
},
{
background = {
paths = (
{
closed = 1;
nodes = (
"185 36 OFFCURVE",
"282 79 OFFCURVE",
"248 153 CURVE SMOOTH",
"196 266 LINE",
"248 379 LINE SMOOTH",
"283 455 OFFCURVE",
"183 497 OFFCURVE",
"142 431 CURVE SMOOTH",
"67 312 LINE SMOOTH",
"47 280 OFFCURVE",
"47 252 OFFCURVE",
"67 220 CURVE SMOOTH",
"143 101 LINE SMOOTH"
);
}
);
};
layerId = "E1B555A7-F4E1-459C-9C1A-AE952106EEF9";
paths = (
{
closed = 1;
nodes = (
"267 112 LINE",
"196 266 LINE",
"267 419 LINE",
"164 466 LINE",
"62 304 LINE",
"62 228 LINE",
"166 66 LINE"
);
}
);
width = 306;
}
);
leftKerningGroup = guilsinglleft;
rightKerningGroup = guilsinglleft;
unicode = 2039;
},
{
glyphname = guilsinglright;
lastChange = "2016-09-26 10:57:09 +0000";
layers = (
{
background = {
paths = (
{
closed = 1;
nodes = (
"181 248 LINE SMOOTH",
"188 260 OFFCURVE",
"188 270 OFFCURVE",
"181 282 CURVE SMOOTH",
"99 423 LINE SMOOTH",
"83 451 OFFCURVE",
"43 435 OFFCURVE",
"57 407 CURVE SMOOTH",
"129 265 LINE",
"57 123 LINE SMOOTH",
"43 95 OFFCURVE",
"83 80 OFFCURVE",
"99 107 CURVE SMOOTH"
);
}
);
};
layerId = "9E718F8A-2CEA-4931-B05D-987794BD97DA";
paths = (
{
closed = 1;
nodes = (
"183 251 LINE",
"183 279 LINE",
"90 438 LINE",
"49 423 LINE",
"129 265 LINE",
"49 107 LINE",
"90 92 LINE"
);
}
);
width = 243;
},
{
background = {
paths = (
{
closed = 1;
nodes = (
"234 220 LINE SMOOTH",
"253 252 OFFCURVE",
"253 280 OFFCURVE",
"234 312 CURVE SMOOTH",
"164 431 LINE SMOOTH",
"125 497 OFFCURVE",
"22 455 OFFCURVE",
"59 379 CURVE SMOOTH",
"112 266 LINE",
"59 153 LINE SMOOTH",
"23 79 OFFCURVE",
"125 34 OFFCURVE",
"164 101 CURVE SMOOTH"
);
}
);
};
layerId = "E1B555A7-F4E1-459C-9C1A-AE952106EEF9";
paths = (
{
closed = 1;
nodes = (
"244 228 LINE",
"244 304 LINE",
"142 466 LINE",
"39 419 LINE",
"110 266 LINE",
"39 112 LINE",
"140 66 LINE"
);
}
);
width = 300;
}
);
leftKerningGroup = guilsinglright;
rightKerningGroup = guilsinglright;
unicode = 203A;
},
{
glyphname = quoteleft;
lastChange = "2016-09-22 07:47:37 +0000";
layers = (
{
background = {
paths = (
{
closed = 1;
nodes = (
"81 672 OFFCURVE",
"65 633 OFFCURVE",
"65 587 CURVE SMOOTH",
"65 540 OFFCURVE",
"84 522 OFFCURVE",
"110 522 CURVE SMOOTH",
"134 522 OFFCURVE",
"152 540 OFFCURVE",
"152 567 CURVE SMOOTH",
"152 594 OFFCURVE",
"133 611 OFFCURVE",
"109 611 CURVE SMOOTH",
"91 611 LINE",
"111 587 LINE",
"111 626 OFFCURVE",
"118 650 OFFCURVE",
"140 674 CURVE SMOOTH",
"162 698 OFFCURVE",
"129 725 OFFCURVE",
"107 701 CURVE SMOOTH"
);
}
);
};
layerId = "9E718F8A-2CEA-4931-B05D-987794BD97DA";
paths = (
{
closed = 1;
nodes = (
"81 673 OFFCURVE",
"69 633 OFFCURVE",
"69 587 CURVE SMOOTH",
"69 527 LINE",
"148 527 LINE",
"148 607 LINE",
"91 607 LINE",
"111 598 LINE",
"111 626 OFFCURVE",
"117 653 OFFCURVE",
"148 687 CURVE",
"118 710 LINE"
);
}
);
width = 217;
},
{
background = {
paths = (
{
closed = 1;
nodes = (
"71 645 OFFCURVE",
"44 585 OFFCURVE",
"44 510 CURVE SMOOTH",
"44 435 OFFCURVE",
"82 397 OFFCURVE",
"134 397 CURVE SMOOTH",
"182 397 OFFCURVE",
"218 435 OFFCURVE",
"218 485 CURVE SMOOTH",
"218 535 OFFCURVE",
"181 568 OFFCURVE",
"131 568 CURVE SMOOTH",
"98 568 LINE",
"134 510 LINE",
"134 578 OFFCURVE",
"157 614 OFFCURVE",
"185 644 CURVE SMOOTH",
"223 684 OFFCURVE",
"158 736 OFFCURVE",
"120 696 CURVE SMOOTH"
);
}
);
};
layerId = "E1B555A7-F4E1-459C-9C1A-AE952106EEF9";
paths = (
{
closed = 1;
nodes = (
"72 645 OFFCURVE",
"48 585 OFFCURVE",
"48 508 CURVE SMOOTH",
"48 403 LINE",
"214 403 LINE",
"214 567 LINE",
"98 567 LINE",
"134 530 LINE",
"134 578 OFFCURVE",
"153 617 OFFCURVE",
"200 665 CURVE",
"140 713 LINE"
);
}
);
width = 262;
}
);
leftKerningGroup = quoteleft;
rightKerningGroup = quoteleft;
unicode = 2018;
userData = {
anchors = (
);
b = {
};
com.typemytype.robofont.layerData = {
b = {
anchors = (
);
components = (
);
contours = (
);
lib = {
};
name = quoteleft;
unicodes = (
);
width = 584;
};
};
components = (
);
contours = (
);
lib = {
};
name = quoteleft;
unicodes = (
);
width = 615;
};
},
{
glyphname = quoteright;
lastChange = "2016-09-22 07:47:37 +0000";
layers = (
{
background = {
paths = (
{
closed = 1;
nodes = (
"136 560 OFFCURVE",
"152 599 OFFCURVE",
"152 645 CURVE SMOOTH",
"152 692 OFFCURVE",
"133 710 OFFCURVE",
"107 710 CURVE SMOOTH",
"83 710 OFFCURVE",
"65 692 OFFCURVE",
"65 665 CURVE SMOOTH",
"65 638 OFFCURVE",
"84 621 OFFCURVE",
"108 621 CURVE SMOOTH",
"126 621 LINE",
"106 645 LINE",
"106 606 OFFCURVE",
"99 582 OFFCURVE",
"77 558 CURVE SMOOTH",
"55 534 OFFCURVE",
"88 507 OFFCURVE",
"110 531 CURVE SMOOTH"
);
}
);
};
layerId = "9E718F8A-2CEA-4931-B05D-987794BD97DA";
paths = (
{
closed = 1;
nodes = (
"136 559 OFFCURVE",
"148 599 OFFCURVE",
"148 645 CURVE SMOOTH",
"148 705 LINE",
"69 705 LINE",
"69 625 LINE",
"126 625 LINE",
"106 634 LINE",
"106 606 OFFCURVE",
"100 579 OFFCURVE",
"69 545 CURVE",
"99 522 LINE"
);
}
);
width = 217;
},
{
background = {
paths = (
{
closed = 1;
nodes = (
"191 462 OFFCURVE",
"218 522 OFFCURVE",
"218 597 CURVE SMOOTH",
"218 672 OFFCURVE",
"180 710 OFFCURVE",
"128 710 CURVE SMOOTH",
"80 710 OFFCURVE",
"44 672 OFFCURVE",
"44 622 CURVE SMOOTH",
"44 572 OFFCURVE",
"81 539 OFFCURVE",
"131 539 CURVE SMOOTH",
"164 539 LINE",
"128 597 LINE",
"128 529 OFFCURVE",
"105 493 OFFCURVE",
"77 463 CURVE SMOOTH",
"39 423 OFFCURVE",
"104 371 OFFCURVE",
"142 411 CURVE SMOOTH"
);
}
);
};
layerId = "E1B555A7-F4E1-459C-9C1A-AE952106EEF9";
paths = (
{
closed = 1;
nodes = (
"190 463 OFFCURVE",
"214 523 OFFCURVE",
"214 600 CURVE SMOOTH",
"214 705 LINE",
"48 705 LINE",
"48 541 LINE",
"164 541 LINE",
"128 578 LINE",
"128 530 OFFCURVE",
"109 491 OFFCURVE",
"62 443 CURVE",
"122 395 LINE"
);
}
);
width = 262;
}
);
leftKerningGroup = quoteleft;
rightKerningGroup = quoteleft;
unicode = 2019;
userData = {
anchors = (
);
b = {
};
com.typemytype.robofont.layerData = {
b = {
anchors = (
);
components = (
);
contours = (
);
lib = {
};
name = quoteright;
unicodes = (
);
width = 584;
};
};
components = (
);
contours = (
);
lib = {
};
name = quoteright;
unicodes = (
);
width = 615;
};
},
{
glyphname = quotesinglbase;
lastChange = "2016-09-26 10:56:33 +0000";
layers = (
{
background = {
paths = (
{
closed = 1;
nodes = (
"136 -65 OFFCURVE",
"152 -26 OFFCURVE",
"152 20 CURVE SMOOTH",
"152 67 OFFCURVE",
"133 85 OFFCURVE",
"107 85 CURVE SMOOTH",
"83 85 OFFCURVE",
"65 67 OFFCURVE",
"65 40 CURVE SMOOTH",
"65 13 OFFCURVE",
"84 -4 OFFCURVE",
"108 -4 CURVE SMOOTH",
"126 -4 LINE",
"106 20 LINE",
"106 -19 OFFCURVE",
"99 -43 OFFCURVE",
"77 -67 CURVE SMOOTH",
"55 -91 OFFCURVE",
"88 -118 OFFCURVE",
"110 -94 CURVE SMOOTH"
);
}
);
};
layerId = "9E718F8A-2CEA-4931-B05D-987794BD97DA";
paths = (
{
closed = 1;
nodes = (
"136 -66 OFFCURVE",
"148 -26 OFFCURVE",
"148 20 CURVE SMOOTH",
"148 80 LINE",
"69 80 LINE",
"69 0 LINE",
"126 0 LINE",
"106 9 LINE",
"106 -19 OFFCURVE",
"100 -46 OFFCURVE",
"69 -80 CURVE",
"99 -103 LINE"
);
}
);
width = 217;
},
{
background = {
paths = (
{
closed = 1;
nodes = (
"191 -78 OFFCURVE",
"218 -18 OFFCURVE",
"218 57 CURVE SMOOTH",
"218 132 OFFCURVE",
"180 170 OFFCURVE",
"128 170 CURVE SMOOTH",
"80 170 OFFCURVE",
"44 132 OFFCURVE",
"44 82 CURVE SMOOTH",
"44 32 OFFCURVE",
"81 -1 OFFCURVE",
"131 -1 CURVE SMOOTH",
"164 -1 LINE",
"128 57 LINE",
"128 -11 OFFCURVE",
"105 -47 OFFCURVE",
"77 -77 CURVE SMOOTH",
"39 -117 OFFCURVE",
"104 -169 OFFCURVE",
"142 -129 CURVE SMOOTH"
);
}
);
};
layerId = "E1B555A7-F4E1-459C-9C1A-AE952106EEF9";
paths = (
{
closed = 1;
nodes = (
"190 -78 OFFCURVE",
"214 -18 OFFCURVE",
"214 59 CURVE SMOOTH",
"214 164 LINE",
"48 164 LINE",
"48 0 LINE",
"164 0 LINE",
"128 37 LINE",
"128 -11 OFFCURVE",
"109 -50 OFFCURVE",
"62 -98 CURVE",
"122 -146 LINE"
);
}
);
width = 262;
}
);
leftKerningGroup = period;
unicode = 201A;
userData = {
com.typemytype.robofont.layerData = {
b = {
anchors = (
);
components = (
);
contours = (
);
lib = {
};
name = quotesinglbase;
unicodes = (
);
width = 615;
};
};
};
},
{
glyphname = bulletoperator;
lastChange = "2016-09-22 07:47:37 +0000";
layers = (
{
background = {
paths = (
{
closed = 1;
nodes = (
"325 220 OFFCURVE",
"344 238 OFFCURVE",
"344 265 CURVE SMOOTH",
"344 292 OFFCURVE",
"325 310 OFFCURVE",
"301 310 CURVE SMOOTH",
"276 310 OFFCURVE",
"257 292 OFFCURVE",
"257 265 CURVE SMOOTH",
"257 238 OFFCURVE",
"276 220 OFFCURVE",
"301 220 CURVE SMOOTH"
);
}
);
};
layerId = "9E718F8A-2CEA-4931-B05D-987794BD97DA";
paths = (
{
closed = 1;
nodes = (
"261 225 LINE",
"340 225 LINE",
"340 305 LINE",
"261 305 LINE"
);
}
);
width = 600;
},
{
background = {
paths = (
{
closed = 1;
nodes = (
"350 180 OFFCURVE",
"387 218 OFFCURVE",
"387 268 CURVE SMOOTH",
"387 318 OFFCURVE",
"350 356 OFFCURVE",
"300 356 CURVE SMOOTH",
"250 356 OFFCURVE",
"213 318 OFFCURVE",
"213 268 CURVE SMOOTH",
"213 218 OFFCURVE",
"250 180 OFFCURVE",
"300 180 CURVE SMOOTH"
);
}
);
};
layerId = "E1B555A7-F4E1-459C-9C1A-AE952106EEF9";
paths = (
{
closed = 1;
nodes = (
"217 186 LINE",
"383 186 LINE",
"383 350 LINE",
"217 350 LINE"
);
}
);
width = 600;
}
);
leftKerningGroup = hyphen;
rightKerningGroup = hyphen;
unicode = 2219;
},
{
glyphname = divisionslash;
lastChange = "2016-09-22 07:47:37 +0000";
layers = (
{
background = {
paths = (
{
closed = 1;
nodes = (
"444 708 LINE SMOOTH",
"456 745 OFFCURVE",
"407 762 OFFCURVE",
"395 725 CURVE SMOOTH",
"156 -20 LINE SMOOTH",
"144 -57 OFFCURVE",
"193 -74 OFFCURVE",
"205 -37 CURVE SMOOTH"
);
}
);
};
layerId = "9E718F8A-2CEA-4931-B05D-987794BD97DA";
paths = (
{
closed = 1;
nodes = (
"451 731 LINE",
"402 748 LINE",
"149 -43 LINE",
"198 -60 LINE"
);
}
);
width = 600;
},
{
background = {
paths = (
{
closed = 1;
nodes = (
"472 686 LINE SMOOTH",
"497 763 OFFCURVE",
"381 798 OFFCURVE",
"356 721 CURVE SMOOTH",
"127 2 LINE SMOOTH",
"102 -75 OFFCURVE",
"218 -110 OFFCURVE",
"243 -33 CURVE SMOOTH"
);
}
);
};
layerId = "E1B555A7-F4E1-459C-9C1A-AE952106EEF9";
paths = (
{
closed = 1;
nodes = (
"488 731 LINE",
"372 766 LINE",
"113 -43 LINE",
"229 -78 LINE"
);
}
);
width = 600;
}
);
leftKerningGroup = slash;
rightKerningGroup = slash;
unicode = 2215;
},
{
glyphname = plus;
lastChange = "2016-09-22 07:47:37 +0000";
layers = (
{
background = {
paths = (
{
closed = 1;
nodes = (
"81 307 LINE SMOOTH",
"67 307 OFFCURVE",
"56 297 OFFCURVE",
"56 284 CURVE SMOOTH",
"56 271 OFFCURVE",
"67 260 OFFCURVE",
"81 260 CURVE SMOOTH",
"519 260 LINE SMOOTH",
"533 260 OFFCURVE",
"544 270 OFFCURVE",
"544 284 CURVE SMOOTH",
"544 297 OFFCURVE",
"533 307 OFFCURVE",
"519 307 CURVE SMOOTH"
);
},
{
closed = 1;
nodes = (
"277 65 LINE SMOOTH",
"277 51 OFFCURVE",
"287 40 OFFCURVE",
"300 40 CURVE SMOOTH",
"313 40 OFFCURVE",
"323 51 OFFCURVE",
"323 65 CURVE SMOOTH",
"323 503 LINE SMOOTH",
"323 517 OFFCURVE",
"313 528 OFFCURVE",
"300 528 CURVE SMOOTH",
"287 528 OFFCURVE",
"277 517 OFFCURVE",
"277 503 CURVE SMOOTH"
);
}
);
};
layerId = "9E718F8A-2CEA-4931-B05D-987794BD97DA";
paths = (
{
closed = 1;
nodes = (
"56 307 LINE",
"56 260 LINE",
"544 260 LINE",
"544 307 LINE"
);
},
{
closed = 1;
nodes = (
"277 40 LINE",
"323 40 LINE",
"323 528 LINE",
"277 528 LINE"
);
}
);
width = 600;
},
{
background = {
paths = (
{
closed = 1;
nodes = (
"109 340 LINE SMOOTH",
"79 340 OFFCURVE",
"56 317 OFFCURVE",
"56 287 CURVE SMOOTH",
"56 257 OFFCURVE",
"79 234 OFFCURVE",
"109 234 CURVE SMOOTH",
"491 234 LINE SMOOTH",
"521 234 OFFCURVE",
"544 257 OFFCURVE",
"544 287 CURVE SMOOTH",
"544 317 OFFCURVE",
"521 340 OFFCURVE",
"491 340 CURVE SMOOTH"
);
},
{
closed = 1;
nodes = (
"247 96 LINE SMOOTH",
"247 66 OFFCURVE",
"270 43 OFFCURVE",
"300 43 CURVE SMOOTH",
"330 43 OFFCURVE",
"353 66 OFFCURVE",
"353 96 CURVE SMOOTH",
"353 478 LINE SMOOTH",
"353 508 OFFCURVE",
"330 531 OFFCURVE",
"300 531 CURVE SMOOTH",
"270 531 OFFCURVE",
"247 508 OFFCURVE",
"247 478 CURVE SMOOTH"
);
}
);
};
layerId = "E1B555A7-F4E1-459C-9C1A-AE952106EEF9";
paths = (
{
closed = 1;
nodes = (
"56 340 LINE",
"56 234 LINE",
"544 234 LINE",
"544 340 LINE"
);
},
{
closed = 1;
nodes = (
"247 43 LINE",
"353 43 LINE",
"353 531 LINE",
"247 531 LINE"
);
}
);
width = 600;
}
);
leftKerningGroup = plus;
rightKerningGroup = plus;
unicode = 002B;
},
{
glyphname = minus;
lastChange = "2016-09-22 07:47:37 +0000";
layers = (
{
background = {
paths = (
{
closed = 1;
nodes = (
"81 307 LINE SMOOTH",
"67 307 OFFCURVE",
"56 297 OFFCURVE",
"56 285 CURVE SMOOTH",
"56 271 OFFCURVE",
"67 260 OFFCURVE",
"81 260 CURVE SMOOTH",
"519 260 LINE SMOOTH",
"533 260 OFFCURVE",
"544 270 OFFCURVE",
"544 282 CURVE SMOOTH",
"544 296 OFFCURVE",
"533 307 OFFCURVE",
"519 307 CURVE SMOOTH"
);
}
);
};
layerId = "9E718F8A-2CEA-4931-B05D-987794BD97DA";
paths = (
{
closed = 1;
nodes = (
"56 307 LINE",
"56 260 LINE",
"544 260 LINE",
"544 307 LINE"
);
}
);
width = 600;
},
{
background = {
paths = (
{
closed = 1;
nodes = (
"109 340 LINE SMOOTH",
"79 340 OFFCURVE",
"56 317 OFFCURVE",
"56 287 CURVE SMOOTH",
"56 257 OFFCURVE",
"79 234 OFFCURVE",
"109 234 CURVE SMOOTH",
"491 234 LINE SMOOTH",
"521 234 OFFCURVE",
"544 257 OFFCURVE",
"544 287 CURVE SMOOTH",
"544 317 OFFCURVE",
"521 340 OFFCURVE",
"491 340 CURVE SMOOTH"
);
}
);
};
layerId = "E1B555A7-F4E1-459C-9C1A-AE952106EEF9";
paths = (
{
closed = 1;
nodes = (
"56 340 LINE",
"56 234 LINE",
"544 234 LINE",
"544 340 LINE"
);
}
);
width = 600;
}
);
leftKerningGroup = plus;
rightKerningGroup = plus;
unicode = 2212;
},
{
glyphname = multiply;
lastChange = "2016-09-22 07:47:37 +0000";
layers = (
{
background = {
paths = (
{
closed = 1;
nodes = (
"84 100 LINE SMOOTH",
"74 90 OFFCURVE",
"73 75 OFFCURVE",
"81 67 CURVE SMOOTH",
"91 57 OFFCURVE",
"107 58 OFFCURVE",
"117 68 CURVE SMOOTH",
"516 467 LINE SMOOTH",
"526 477 OFFCURVE",
"527 492 OFFCURVE",
"519 500 CURVE SMOOTH",
"509 510 OFFCURVE",
"493 510 OFFCURVE",
"483 500 CURVE SMOOTH"
);
},
{
closed = 1;
nodes = (
"73 492 OFFCURVE",
"74 477 OFFCURVE",
"84 467 CURVE SMOOTH",
"483 68 LINE SMOOTH",
"494 57 OFFCURVE",
"507 56 OFFCURVE",
"515 64 CURVE SMOOTH",
"526 75 OFFCURVE",
"526 90 OFFCURVE",
"516 100 CURVE SMOOTH",
"117 500 LINE SMOOTH",
"107 510 OFFCURVE",
"92 511 OFFCURVE",
"83 502 CURVE SMOOTH"
);
}
);
};
layerId = "9E718F8A-2CEA-4931-B05D-987794BD97DA";
paths = (
{
closed = 1;
nodes = (
"66 82 LINE",
"99 50 LINE",
"534 485 LINE",
"501 518 LINE"
);
},
{
closed = 1;
nodes = (
"66 485 LINE",
"501 50 LINE",
"534 82 LINE",
"99 518 LINE"
);
}
);
width = 600;
},
{
background = {
paths = (
{
closed = 1;
nodes = (
"104 166 LINE SMOOTH",
"83 145 OFFCURVE",
"82 112 OFFCURVE",
"103 91 CURVE SMOOTH",
"124 70 OFFCURVE",
"158 70 OFFCURVE",
"179 91 CURVE SMOOTH",
"496 408 LINE SMOOTH",
"517 429 OFFCURVE",
"518 462 OFFCURVE",
"497 483 CURVE SMOOTH",
"476 504 OFFCURVE",
"442 504 OFFCURVE",
"421 483 CURVE SMOOTH"
);
},
{
closed = 1;
nodes = (
"83 463 OFFCURVE",
"83 429 OFFCURVE",
"104 408 CURVE SMOOTH",
"421 91 LINE SMOOTH",
"442 70 OFFCURVE",
"475 69 OFFCURVE",
"496 90 CURVE SMOOTH",
"517 111 OFFCURVE",
"517 145 OFFCURVE",
"496 166 CURVE SMOOTH",
"179 483 LINE SMOOTH",
"158 504 OFFCURVE",
"125 505 OFFCURVE",
"104 484 CURVE SMOOTH"
);
}
);
};
layerId = "E1B555A7-F4E1-459C-9C1A-AE952106EEF9";
paths = (
{
closed = 1;
nodes = (
"66 128 LINE",
"141 53 LINE",
"534 446 LINE",
"459 521 LINE"
);
},
{
closed = 1;
nodes = (
"66 446 LINE",
"459 53 LINE",
"534 128 LINE",
"141 521 LINE"
);
}
);
width = 600;
}
);
leftKerningGroup = plus;
rightKerningGroup = plus;
unicode = 00D7;
},
{
glyphname = divide;
lastChange = "2016-09-22 07:47:37 +0000";
layers = (
{
background = {
components = (
{
name = minus;
transform = "{1, 0, 0, 1, 6, 0}";
}
);
paths = (
{
closed = 1;
nodes = (
"324 36 OFFCURVE",
"343 54 OFFCURVE",
"343 81 CURVE SMOOTH",
"343 108 OFFCURVE",
"324 126 OFFCURVE",
"300 126 CURVE SMOOTH",
"275 126 OFFCURVE",
"256 108 OFFCURVE",
"256 81 CURVE SMOOTH",
"256 54 OFFCURVE",
"275 36 OFFCURVE",
"300 36 CURVE SMOOTH"
);
},
{
closed = 1;
nodes = (
"324 442 OFFCURVE",
"343 460 OFFCURVE",
"343 487 CURVE SMOOTH",
"343 514 OFFCURVE",
"324 532 OFFCURVE",
"300 532 CURVE SMOOTH",
"275 532 OFFCURVE",
"256 514 OFFCURVE",
"256 487 CURVE SMOOTH",
"256 460 OFFCURVE",
"275 442 OFFCURVE",
"300 442 CURVE SMOOTH"
);
}
);
};
layerId = "9E718F8A-2CEA-4931-B05D-987794BD97DA";
paths = (
{
closed = 1;
nodes = (
"336 442 LINE",
"336 528 LINE",
"252 528 LINE",
"252 442 LINE"
);
},
{
closed = 1;
nodes = (
"336 40 LINE",
"336 126 LINE",
"252 126 LINE",
"252 40 LINE"
);
},
{
closed = 1;
nodes = (
"56 307 LINE",
"56 260 LINE",
"544 260 LINE",
"544 307 LINE"
);
}
);
width = 600;
},
{
background = {
components = (
{
name = minus;
transform = "{1, 0, 0, 1, 6, 0}";
}
);
paths = (
{
closed = 1;
nodes = (
"335 31 OFFCURVE",
"361 58 OFFCURVE",
"361 92 CURVE SMOOTH",
"361 126 OFFCURVE",
"335 153 OFFCURVE",
"301 153 CURVE SMOOTH",
"267 153 OFFCURVE",
"241 126 OFFCURVE",
"241 92 CURVE SMOOTH",
"241 58 OFFCURVE",
"267 31 OFFCURVE",
"301 31 CURVE SMOOTH"
);
},
{
closed = 1;
nodes = (
"335 421 OFFCURVE",
"361 448 OFFCURVE",
"361 482 CURVE SMOOTH",
"361 516 OFFCURVE",
"335 543 OFFCURVE",
"301 543 CURVE SMOOTH",
"267 543 OFFCURVE",
"241 516 OFFCURVE",
"241 482 CURVE SMOOTH",
"241 448 OFFCURVE",
"267 421 OFFCURVE",
"301 421 CURVE SMOOTH"
);
}
);
};
layerId = "E1B555A7-F4E1-459C-9C1A-AE952106EEF9";
paths = (
{
closed = 1;
nodes = (
"354 416 LINE",
"354 537 LINE",
"234 537 LINE",
"234 416 LINE"
);
},
{
closed = 1;
nodes = (
"354 31 LINE",
"354 152 LINE",
"234 152 LINE",
"234 31 LINE"
);
},
{
closed = 1;
nodes = (
"56 340 LINE",
"56 234 LINE",
"544 234 LINE",
"544 340 LINE"
);
}
);
width = 600;
}
);
leftKerningGroup = plus;
rightKerningGroup = plus;
unicode = 00F7;
},
{
glyphname = equal;
lastChange = "2016-09-22 07:47:37 +0000";
layers = (
{
background = {
components = (
{
name = minus;
transform = "{1, 0, 0, 1, 6, 100}";
},
{
name = minus;
transform = "{1, 0, 0, 1, 6, -100}";
}
);
};
layerId = "9E718F8A-2CEA-4931-B05D-987794BD97DA";
paths = (
{
closed = 1;
nodes = (
"56 407 LINE",
"56 360 LINE",
"544 360 LINE",
"544 407 LINE"
);
},
{
closed = 1;
nodes = (
"56 207 LINE",
"56 160 LINE",
"544 160 LINE",
"544 207 LINE"
);
}
);
width = 600;
},
{
background = {
components = (
{
name = minus;
transform = "{1, 0, 0, 1, 6, 100}";
},
{
name = minus;
transform = "{1, 0, 0, 1, 6, -100}";
}
);
};
layerId = "E1B555A7-F4E1-459C-9C1A-AE952106EEF9";
paths = (
{
closed = 1;
nodes = (
"56 440 LINE",
"56 334 LINE",
"544 334 LINE",
"544 440 LINE"
);
},
{
closed = 1;
nodes = (
"56 240 LINE",
"56 134 LINE",
"544 134 LINE",
"544 240 LINE"
);
}
);
width = 600;
}
);
leftKerningGroup = minus;
rightKerningGroup = plus;
unicode = 003D;
},
{
glyphname = notequal;
lastChange = "2016-09-22 07:47:37 +0000";
layers = (
{
background = {
components = (
{
name = minus;
transform = "{1, 0, 0, 1, 6, 100}";
},
{
name = minus;
transform = "{1, 0, 0, 1, 6, -100}";
}
);
paths = (
{
closed = 1;
nodes = (
"183 65 LINE SMOOTH",
"178 52 OFFCURVE",
"182 39 OFFCURVE",
"192 34 CURVE SMOOTH",
"206 28 OFFCURVE",
"220 33 OFFCURVE",
"226 48 CURVE SMOOTH",
"415 503 LINE SMOOTH",
"420 516 OFFCURVE",
"416 529 OFFCURVE",
"406 534 CURVE SMOOTH",
"393 540 OFFCURVE",
"378 533 OFFCURVE",
"372 520 CURVE SMOOTH"
);
}
);
};
layerId = "9E718F8A-2CEA-4931-B05D-987794BD97DA";
paths = (
{
closed = 1;
nodes = (
"168 42 LINE",
"210 23 LINE",
"418 526 LINE",
"376 544 LINE"
);
},
{
closed = 1;
nodes = (
"56 407 LINE",
"56 360 LINE",
"544 360 LINE",
"544 407 LINE"
);
},
{
closed = 1;
nodes = (
"56 207 LINE",
"56 160 LINE",
"544 160 LINE",
"544 207 LINE"
);
}
);
width = 600;
},
{
background = {
components = (
{
name = minus;
transform = "{1, 0, 0, 1, 6, 100}";
},
{
name = minus;
transform = "{1, 0, 0, 1, 6, -100}";
}
);
paths = (
{
closed = 1;
nodes = (
"163 94 LINE SMOOTH",
"151 66 OFFCURVE",
"163 37 OFFCURVE",
"191 25 CURVE SMOOTH",
"219 13 OFFCURVE",
"248 25 OFFCURVE",
"260 53 CURVE SMOOTH",
"437 480 LINE SMOOTH",
"449 508 OFFCURVE",
"437 537 OFFCURVE",
"409 549 CURVE SMOOTH",
"381 561 OFFCURVE",
"352 550 OFFCURVE",
"340 521 CURVE SMOOTH"
);
}
);
};
layerId = "E1B555A7-F4E1-459C-9C1A-AE952106EEF9";
paths = (
{
closed = 1;
nodes = (
"136 45 LINE",
"234 4 LINE",
"452 529 LINE",
"354 570 LINE"
);
},
{
closed = 1;
nodes = (
"56 440 LINE",
"56 334 LINE",
"544 334 LINE",
"544 440 LINE"
);
},
{
closed = 1;
nodes = (
"56 240 LINE",
"56 134 LINE",
"544 134 LINE",
"544 240 LINE"
);
}
);
width = 600;
}
);
leftKerningGroup = plus;
rightKerningGroup = plus;
unicode = 2260;
},
{
glyphname = greater;
lastChange = "2016-09-22 07:47:37 +0000";
layers = (
{
background = {
paths = (
{
closed = 1;
nodes = (
"544 298 OFFCURVE",
"536 310 OFFCURVE",
"523 316 CURVE SMOOTH",
"99 514 LINE SMOOTH",
"78 524 OFFCURVE",
"56 515 OFFCURVE",
"56 497 CURVE SMOOTH",
"56 488 OFFCURVE",
"61 481 OFFCURVE",
"69 477 CURVE SMOOTH",
"515 270 LINE",
"515 296 LINE",
"69 89 LINE SMOOTH",
"61 85 OFFCURVE",
"56 78 OFFCURVE",
"56 69 CURVE SMOOTH",
"56 51 OFFCURVE",
"78 42 OFFCURVE",
"99 52 CURVE SMOOTH",
"523 250 LINE SMOOTH",
"536 256 OFFCURVE",
"544 268 OFFCURVE",
"544 284 CURVE SMOOTH"
);
}
);
};
layerId = "9E718F8A-2CEA-4931-B05D-987794BD97DA";
paths = (
{
closed = 1;
nodes = (
"544 306 LINE",
"56 534 LINE",
"56 483 LINE",
"515 270 LINE",
"515 297 LINE",
"56 84 LINE",
"56 33 LINE",
"544 261 LINE"
);
}
);
width = 600;
},
{
background = {
paths = (
{
closed = 1;
nodes = (
"544 323 OFFCURVE",
"523 354 OFFCURVE",
"489 368 CURVE SMOOTH",
"140 509 LINE SMOOTH",
"96 527 OFFCURVE",
"56 502 OFFCURVE",
"56 459 CURVE SMOOTH",
"56 439 OFFCURVE",
"67 423 OFFCURVE",
"86 415 CURVE SMOOTH",
"503 249 LINE",
"503 325 LINE",
"86 159 LINE SMOOTH",
"67 151 OFFCURVE",
"56 135 OFFCURVE",
"56 115 CURVE SMOOTH",
"56 72 OFFCURVE",
"96 47 OFFCURVE",
"140 65 CURVE SMOOTH",
"489 206 LINE SMOOTH",
"523 220 OFFCURVE",
"544 249 OFFCURVE",
"544 287 CURVE SMOOTH"
);
}
);
};
layerId = "E1B555A7-F4E1-459C-9C1A-AE952106EEF9";
paths = (
{
closed = 1;
nodes = (
"544 346 LINE",
"56 543 LINE",
"56 427 LINE",
"503 249 LINE",
"503 325 LINE",
"56 147 LINE",
"56 31 LINE",
"544 229 LINE"
);
}
);
width = 600;
}
);
leftKerningGroup = plus;
rightKerningGroup = plus;
unicode = 003E;
},
{
glyphname = less;
lastChange = "2016-09-22 07:47:37 +0000";
layers = (
{
background = {
paths = (
{
closed = 1;
nodes = (
"56 268 OFFCURVE",
"64 256 OFFCURVE",
"77 250 CURVE SMOOTH",
"501 52 LINE SMOOTH",
"522 42 OFFCURVE",
"544 51 OFFCURVE",
"544 69 CURVE SMOOTH",
"544 78 OFFCURVE",
"539 85 OFFCURVE",
"531 89 CURVE SMOOTH",
"85 296 LINE",
"85 270 LINE",
"531 477 LINE SMOOTH",
"539 481 OFFCURVE",
"544 488 OFFCURVE",
"544 497 CURVE SMOOTH",
"544 515 OFFCURVE",
"522 524 OFFCURVE",
"501 514 CURVE SMOOTH",
"77 316 LINE SMOOTH",
"64 310 OFFCURVE",
"56 298 OFFCURVE",
"56 284 CURVE SMOOTH"
);
}
);
};
layerId = "9E718F8A-2CEA-4931-B05D-987794BD97DA";
paths = (
{
closed = 1;
nodes = (
"544 33 LINE",
"544 84 LINE",
"85 297 LINE",
"85 270 LINE",
"544 483 LINE",
"544 534 LINE",
"56 306 LINE",
"56 261 LINE"
);
}
);
width = 600;
},
{
background = {
paths = (
{
closed = 1;
nodes = (
"56 249 OFFCURVE",
"77 220 OFFCURVE",
"111 206 CURVE SMOOTH",
"460 65 LINE SMOOTH",
"504 47 OFFCURVE",
"544 72 OFFCURVE",
"544 115 CURVE SMOOTH",
"544 135 OFFCURVE",
"533 151 OFFCURVE",
"514 159 CURVE SMOOTH",
"97 325 LINE",
"97 249 LINE",
"514 415 LINE SMOOTH",
"533 423 OFFCURVE",
"544 439 OFFCURVE",
"544 459 CURVE SMOOTH",
"544 502 OFFCURVE",
"504 527 OFFCURVE",
"460 509 CURVE SMOOTH",
"111 368 LINE SMOOTH",
"77 354 OFFCURVE",
"56 323 OFFCURVE",
"56 287 CURVE SMOOTH"
);
}
);
};
layerId = "E1B555A7-F4E1-459C-9C1A-AE952106EEF9";
paths = (
{
closed = 1;
nodes = (
"544 31 LINE",
"544 147 LINE",
"97 325 LINE",
"97 249 LINE",
"544 427 LINE",
"544 543 LINE",
"56 346 LINE",
"56 229 LINE"
);
}
);
width = 600;
}
);
leftKerningGroup = plus;
rightKerningGroup = plus;
unicode = 003C;
},
{
glyphname = greaterequal;
lastChange = "2016-09-22 07:47:37 +0000";
layers = (
{
background = {
components = (
{
name = minus;
transform = "{1, 0, 0, 1, 6, -260}";
}
);
paths = (
{
closed = 1;
nodes = (
"544 337 OFFCURVE",
"536 350 OFFCURVE",
"523 355 CURVE SMOOTH",
"99 514 LINE SMOOTH",
"78 522 OFFCURVE",
"56 515 OFFCURVE",
"56 497 CURVE SMOOTH",
"56 488 OFFCURVE",
"61 480 OFFCURVE",
"69 477 CURVE SMOOTH",
"515 309 LINE",
"515 335 LINE",
"69 169 LINE SMOOTH",
"60 166 OFFCURVE",
"56 158 OFFCURVE",
"56 149 CURVE SMOOTH",
"56 131 OFFCURVE",
"76 124 OFFCURVE",
"99 132 CURVE SMOOTH",
"523 289 LINE SMOOTH",
"537 294 OFFCURVE",
"544 307 OFFCURVE",
"544 323 CURVE SMOOTH"
);
}
);
};
layerId = "9E718F8A-2CEA-4931-B05D-987794BD97DA";
paths = (
{
closed = 1;
nodes = (
"544 344 LINE",
"56 534 LINE",
"56 482 LINE",
"508 308 LINE",
"508 336 LINE",
"56 162 LINE",
"56 110 LINE",
"544 300 LINE"
);
},
{
closed = 1;
nodes = (
"56 47 LINE",
"56 0 LINE",
"544 0 LINE",
"544 47 LINE"
);
}
);
width = 600;
},
{
background = {
components = (
{
name = minus;
transform = "{1, 0, 0, 1, 6, -234}";
}
);
paths = (
{
closed = 1;
nodes = (
"544 373 OFFCURVE",
"523 403 OFFCURVE",
"489 413 CURVE SMOOTH",
"140 518 LINE SMOOTH",
"94 532 OFFCURVE",
"56 511 OFFCURVE",
"56 468 CURVE SMOOTH",
"56 448 OFFCURVE",
"67 429 OFFCURVE",
"86 424 CURVE SMOOTH",
"518 300 LINE",
"518 376 LINE",
"86 252 LINE SMOOTH",
"66 246 OFFCURVE",
"56 228 OFFCURVE",
"56 208 CURVE SMOOTH",
"56 165 OFFCURVE",
"93 144 OFFCURVE",
"140 158 CURVE SMOOTH",
"489 262 LINE SMOOTH",
"526 273 OFFCURVE",
"544 299 OFFCURVE",
"544 337 CURVE SMOOTH"
);
}
);
};
layerId = "E1B555A7-F4E1-459C-9C1A-AE952106EEF9";
paths = (
{
closed = 1;
nodes = (
"544 396 LINE",
"56 543 LINE",
"56 432 LINE",
"518 300 LINE",
"518 376 LINE",
"56 243 LINE",
"56 132 LINE",
"544 279 LINE"
);
},
{
closed = 1;
nodes = (
"56 106 LINE",
"56 0 LINE",
"544 0 LINE",
"544 106 LINE"
);
}
);
width = 600;
}
);
leftKerningGroup = plus;
rightKerningGroup = plus;
unicode = 2265;
},
{
glyphname = lessequal;
lastChange = "2016-09-22 07:47:37 +0000";
layers = (
{
background = {
components = (
{
name = minus;
transform = "{1, 0, 0, 1, 6, -260}";
}
);
paths = (
{
closed = 1;
nodes = (
"56 307 OFFCURVE",
"63 294 OFFCURVE",
"77 289 CURVE SMOOTH",
"501 132 LINE SMOOTH",
"524 124 OFFCURVE",
"544 131 OFFCURVE",
"544 149 CURVE SMOOTH",
"544 158 OFFCURVE",
"540 166 OFFCURVE",
"531 169 CURVE SMOOTH",
"85 335 LINE",
"85 309 LINE",
"531 477 LINE SMOOTH",
"539 480 OFFCURVE",
"544 488 OFFCURVE",
"544 497 CURVE SMOOTH",
"544 515 OFFCURVE",
"522 522 OFFCURVE",
"501 514 CURVE SMOOTH",
"77 355 LINE SMOOTH",
"64 350 OFFCURVE",
"56 337 OFFCURVE",
"56 323 CURVE SMOOTH"
);
}
);
};
layerId = "9E718F8A-2CEA-4931-B05D-987794BD97DA";
paths = (
{
closed = 1;
nodes = (
"544 110 LINE",
"544 162 LINE",
"92 336 LINE",
"92 308 LINE",
"544 482 LINE",
"544 534 LINE",
"56 344 LINE",
"56 300 LINE"
);
},
{
closed = 1;
nodes = (
"56 47 LINE",
"56 0 LINE",
"544 0 LINE",
"544 47 LINE"
);
}
);
width = 600;
},
{
background = {
components = (
{
name = minus;
transform = "{1, 0, 0, 1, 6, -234}";
}
);
paths = (
{
closed = 1;
nodes = (
"56 299 OFFCURVE",
"74 273 OFFCURVE",
"111 262 CURVE SMOOTH",
"460 158 LINE SMOOTH",
"507 144 OFFCURVE",
"544 165 OFFCURVE",
"544 208 CURVE SMOOTH",
"544 228 OFFCURVE",
"534 246 OFFCURVE",
"514 252 CURVE SMOOTH",
"82 376 LINE",
"82 300 LINE",
"514 424 LINE SMOOTH",
"533 429 OFFCURVE",
"544 448 OFFCURVE",
"544 468 CURVE SMOOTH",
"544 511 OFFCURVE",
"506 532 OFFCURVE",
"460 518 CURVE SMOOTH",
"111 413 LINE SMOOTH",
"77 403 OFFCURVE",
"56 373 OFFCURVE",
"56 337 CURVE SMOOTH"
);
}
);
};
layerId = "E1B555A7-F4E1-459C-9C1A-AE952106EEF9";
paths = (
{
closed = 1;
nodes = (
"544 132 LINE",
"544 243 LINE",
"82 376 LINE",
"82 300 LINE",
"544 432 LINE",
"544 543 LINE",
"56 396 LINE",
"56 279 LINE"
);
},
{
closed = 1;
nodes = (
"56 106 LINE",
"56 0 LINE",
"544 0 LINE",
"544 106 LINE"
);
}
);
width = 600;
}
);
leftKerningGroup = plus;
rightKerningGroup = plus;
unicode = 2264;
},
{
glyphname = plusminus;
lastChange = "2016-09-22 07:47:37 +0000";
layers = (
{
background = {
components = (
{
name = minus;
transform = "{1, 0, 0, 1, 6, -260}";
}
);
paths = (
{
closed = 1;
nodes = (
"81 345 LINE SMOOTH",
"67 345 OFFCURVE",
"56 336 OFFCURVE",
"56 324 CURVE SMOOTH",
"56 310 OFFCURVE",
"67 299 OFFCURVE",
"81 299 CURVE SMOOTH",
"519 299 LINE SMOOTH",
"533 299 OFFCURVE",
"544 308 OFFCURVE",
"544 320 CURVE SMOOTH",
"544 334 OFFCURVE",
"533 345 OFFCURVE",
"519 345 CURVE SMOOTH"
);
},
{
closed = 1;
nodes = (
"277 141 LINE SMOOTH",
"277 127 OFFCURVE",
"286 116 OFFCURVE",
"298 116 CURVE SMOOTH",
"312 116 OFFCURVE",
"323 128 OFFCURVE",
"323 142 CURVE SMOOTH",
"323 503 LINE SMOOTH",
"323 517 OFFCURVE",
"314 528 OFFCURVE",
"302 528 CURVE SMOOTH",
"288 528 OFFCURVE",
"277 517 OFFCURVE",
"277 503 CURVE SMOOTH"
);
}
);
};
layerId = "9E718F8A-2CEA-4931-B05D-987794BD97DA";
paths = (
{
closed = 1;
nodes = (
"56 345 LINE",
"56 299 LINE",
"544 299 LINE",
"544 345 LINE"
);
},
{
closed = 1;
nodes = (
"277 116 LINE",
"323 116 LINE",
"323 528 LINE",
"277 528 LINE"
);
},
{
closed = 1;
nodes = (
"56 47 LINE",
"56 0 LINE",
"544 0 LINE",
"544 47 LINE"
);
}
);
width = 600;
},
{
background = {
components = (
{
name = minus;
transform = "{1, 0, 0, 1, 6, -234}";
}
);
paths = (
{
closed = 1;
nodes = (
"109 391 LINE SMOOTH",
"79 391 OFFCURVE",
"56 368 OFFCURVE",
"56 337 CURVE SMOOTH",
"56 307 OFFCURVE",
"79 284 OFFCURVE",
"109 284 CURVE SMOOTH",
"491 284 LINE SMOOTH",
"521 284 OFFCURVE",
"544 307 OFFCURVE",
"544 338 CURVE SMOOTH",
"544 368 OFFCURVE",
"521 391 OFFCURVE",
"491 391 CURVE SMOOTH"
);
},
{
closed = 1;
nodes = (
"247 197 LINE SMOOTH",
"247 167 OFFCURVE",
"270 144 OFFCURVE",
"300 144 CURVE SMOOTH",
"330 144 OFFCURVE",
"353 167 OFFCURVE",
"353 197 CURVE SMOOTH",
"353 478 LINE SMOOTH",
"353 508 OFFCURVE",
"330 531 OFFCURVE",
"300 531 CURVE SMOOTH",
"270 531 OFFCURVE",
"247 508 OFFCURVE",
"247 478 CURVE SMOOTH"
);
}
);
};
layerId = "E1B555A7-F4E1-459C-9C1A-AE952106EEF9";
paths = (
{
closed = 1;
nodes = (
"56 391 LINE",
"56 284 LINE",
"544 284 LINE",
"544 391 LINE"
);
},
{
closed = 1;
nodes = (
"247 144 LINE",
"353 144 LINE",
"353 531 LINE",
"247 531 LINE"
);
},
{
closed = 1;
nodes = (
"56 106 LINE",
"56 0 LINE",
"544 0 LINE",
"544 106 LINE"
);
}
);
width = 600;
}
);
leftKerningGroup = plus;
rightKerningGroup = plus;
unicode = 00B1;
},
{
glyphname = approxequal;
lastChange = "2016-09-26 10:56:57 +0000";
layers = (
{
background = {
components = (
{
name = asciitilde;
transform = "{1, 0, 0, 1, 6, 100}";
},
{
name = asciitilde;
transform = "{1, 0, 0, 1, 6, -100}";
}
);
};
layerId = "9E718F8A-2CEA-4931-B05D-987794BD97DA";
paths = (
{
closed = 1;
nodes = (
"481 395 OFFCURVE",
"456 364 OFFCURVE",
"408 364 CURVE SMOOTH",
"344 364 OFFCURVE",
"266 448 OFFCURVE",
"175 448 CURVE SMOOTH",
"115 448 OFFCURVE",
"74 413 OFFCURVE",
"49 354 CURVE",
"89 335 LINE",
"105 372 OFFCURVE",
"130 403 OFFCURVE",
"178 403 CURVE SMOOTH",
"242 403 OFFCURVE",
"320 319 OFFCURVE",
"411 319 CURVE SMOOTH",
"471 319 OFFCURVE",
"511 354 OFFCURVE",
"537 413 CURVE",
"497 432 LINE"
);
},
{
closed = 1;
nodes = (
"481 195 OFFCURVE",
"456 164 OFFCURVE",
"408 164 CURVE SMOOTH",
"344 164 OFFCURVE",
"266 248 OFFCURVE",
"175 248 CURVE SMOOTH",
"115 248 OFFCURVE",
"74 213 OFFCURVE",
"49 154 CURVE",
"89 135 LINE",
"105 172 OFFCURVE",
"130 203 OFFCURVE",
"178 203 CURVE SMOOTH",
"242 203 OFFCURVE",
"320 119 OFFCURVE",
"411 119 CURVE SMOOTH",
"471 119 OFFCURVE",
"511 154 OFFCURVE",
"537 213 CURVE",
"497 232 LINE"
);
}
);
width = 600;
},
{
background = {
components = (
{
name = asciitilde;
transform = "{1, 0, 0, 1, 6, 100}";
},
{
name = asciitilde;
transform = "{1, 0, 0, 1, 6, -100}";
}
);
};
layerId = "E1B555A7-F4E1-459C-9C1A-AE952106EEF9";
paths = (
{
closed = 1;
nodes = (
"451 423 OFFCURVE",
"429 404 OFFCURVE",
"396 404 CURVE SMOOTH",
"346 404 OFFCURVE",
"273 471 OFFCURVE",
"194 471 CURVE SMOOTH",
"134 471 OFFCURVE",
"78 430 OFFCURVE",
"56 362 CURVE",
"135 311 LINE",
"149 351 OFFCURVE",
"171 371 OFFCURVE",
"204 371 CURVE SMOOTH",
"254 371 OFFCURVE",
"327 303 OFFCURVE",
"406 303 CURVE SMOOTH",
"466 303 OFFCURVE",
"523 345 OFFCURVE",
"544 412 CURVE",
"465 463 LINE"
);
},
{
closed = 1;
nodes = (
"451 223 OFFCURVE",
"429 204 OFFCURVE",
"396 204 CURVE SMOOTH",
"346 204 OFFCURVE",
"273 271 OFFCURVE",
"194 271 CURVE SMOOTH",
"134 271 OFFCURVE",
"78 230 OFFCURVE",
"56 162 CURVE",
"135 111 LINE",
"149 151 OFFCURVE",
"171 171 OFFCURVE",
"204 171 CURVE SMOOTH",
"254 171 OFFCURVE",
"327 103 OFFCURVE",
"406 103 CURVE SMOOTH",
"466 103 OFFCURVE",
"523 145 OFFCURVE",
"544 212 CURVE",
"465 263 LINE"
);
}
);
width = 600;
}
);
leftKerningGroup = asciitilde;
rightKerningGroup = asciitilde;
unicode = 2248;
},
{
glyphname = asciitilde;
lastChange = "2016-09-22 07:47:37 +0000";
layers = (
{
background = {
paths = (
{
closed = 1;
nodes = (
"477 284 OFFCURVE",
"453 264 OFFCURVE",
"415 264 CURVE SMOOTH",
"351 264 OFFCURVE",
"273 348 OFFCURVE",
"182 348 CURVE SMOOTH",
"130 348 OFFCURVE",
"92 322 OFFCURVE",
"67 277 CURVE SMOOTH",
"60 264 OFFCURVE",
"64 250 OFFCURVE",
"74 245 CURVE SMOOTH",
"87 239 OFFCURVE",
"100 244 OFFCURVE",
"107 257 CURVE SMOOTH",
"123 283 OFFCURVE",
"147 303 OFFCURVE",
"185 303 CURVE SMOOTH",
"249 303 OFFCURVE",
"327 219 OFFCURVE",
"418 219 CURVE SMOOTH",
"470 219 OFFCURVE",
"507 245 OFFCURVE",
"532 290 CURVE SMOOTH",
"540 303 OFFCURVE",
"536 317 OFFCURVE",
"526 322 CURVE SMOOTH",
"513 328 OFFCURVE",
"500 323 OFFCURVE",
"493 310 CURVE SMOOTH"
);
}
);
};
layerId = "9E718F8A-2CEA-4931-B05D-987794BD97DA";
paths = (
{
closed = 1;
nodes = (
"488 295 OFFCURVE",
"463 264 OFFCURVE",
"415 264 CURVE SMOOTH",
"351 264 OFFCURVE",
"273 348 OFFCURVE",
"182 348 CURVE SMOOTH",
"122 348 OFFCURVE",
"81 313 OFFCURVE",
"56 254 CURVE",
"96 235 LINE",
"112 272 OFFCURVE",
"137 303 OFFCURVE",
"185 303 CURVE SMOOTH",
"249 303 OFFCURVE",
"327 219 OFFCURVE",
"418 219 CURVE SMOOTH",
"478 219 OFFCURVE",
"518 254 OFFCURVE",
"544 313 CURVE",
"504 332 LINE"
);
}
);
width = 600;
},
{
background = {
paths = (
{
closed = 1;
nodes = (
"428 310 OFFCURVE",
"414 304 OFFCURVE",
"396 304 CURVE SMOOTH",
"346 304 OFFCURVE",
"273 371 OFFCURVE",
"194 371 CURVE SMOOTH",
"147 371 OFFCURVE",
"103 346 OFFCURVE",
"75 302 CURVE SMOOTH",
"61 279 OFFCURVE",
"69 251 OFFCURVE",
"89 238 CURVE SMOOTH",
"115 220 OFFCURVE",
"139 233 OFFCURVE",
"160 254 CURVE SMOOTH",
"172 265 OFFCURVE",
"186 271 OFFCURVE",
"204 271 CURVE SMOOTH",
"254 271 OFFCURVE",
"327 203 OFFCURVE",
"406 203 CURVE SMOOTH",
"453 203 OFFCURVE",
"497 228 OFFCURVE",
"525 271 CURVE SMOOTH",
"540 294 OFFCURVE",
"531 323 OFFCURVE",
"510 337 CURVE SMOOTH",
"484 354 OFFCURVE",
"461 342 OFFCURVE",
"440 321 CURVE SMOOTH"
);
}
);
};
layerId = "E1B555A7-F4E1-459C-9C1A-AE952106EEF9";
paths = (
{
closed = 1;
nodes = (
"451 323 OFFCURVE",
"429 304 OFFCURVE",
"396 304 CURVE SMOOTH",
"346 304 OFFCURVE",
"273 371 OFFCURVE",
"194 371 CURVE SMOOTH",
"134 371 OFFCURVE",
"78 330 OFFCURVE",
"56 262 CURVE",
"135 211 LINE",
"149 251 OFFCURVE",
"171 271 OFFCURVE",
"204 271 CURVE SMOOTH",
"254 271 OFFCURVE",
"327 203 OFFCURVE",
"406 203 CURVE SMOOTH",
"466 203 OFFCURVE",
"523 245 OFFCURVE",
"544 312 CURVE",
"465 363 LINE"
);
}
);
width = 600;
}
);
leftKerningGroup = plus;
rightKerningGroup = plus;
unicode = 007E;
},
{
glyphname = logicalnot;
lastChange = "2016-09-22 07:47:37 +0000";
layers = (
{
background = {
paths = (
{
closed = 1;
nodes = (
"81 412 LINE SMOOTH",
"67 412 OFFCURVE",
"56 403 OFFCURVE",
"56 391 CURVE SMOOTH",
"56 377 OFFCURVE",
"67 366 OFFCURVE",
"81 366 CURVE SMOOTH",
"500 366 LINE",
"500 180 LINE SMOOTH",
"500 166 OFFCURVE",
"508 155 OFFCURVE",
"519 155 CURVE SMOOTH",
"533 155 OFFCURVE",
"544 166 OFFCURVE",
"544 180 CURVE SMOOTH",
"544 387 LINE SMOOTH",
"544 401 OFFCURVE",
"533 412 OFFCURVE",
"519 412 CURVE SMOOTH"
);
}
);
};
layerId = "9E718F8A-2CEA-4931-B05D-987794BD97DA";
paths = (
{
closed = 1;
nodes = (
"56 412 LINE",
"56 366 LINE",
"500 366 LINE",
"500 155 LINE",
"544 155 LINE",
"544 412 LINE"
);
}
);
width = 600;
},
{
background = {
paths = (
{
closed = 1;
nodes = (
"109 440 LINE SMOOTH",
"79 440 OFFCURVE",
"56 417 OFFCURVE",
"56 387 CURVE SMOOTH",
"56 357 OFFCURVE",
"79 334 OFFCURVE",
"109 334 CURVE SMOOTH",
"435 334 LINE",
"435 187 LINE SMOOTH",
"435 159 OFFCURVE",
"455 134 OFFCURVE",
"490 134 CURVE SMOOTH",
"521 134 OFFCURVE",
"544 157 OFFCURVE",
"544 187 CURVE SMOOTH",
"544 387 LINE SMOOTH",
"544 417 OFFCURVE",
"521 440 OFFCURVE",
"491 440 CURVE SMOOTH"
);
}
);
};
layerId = "E1B555A7-F4E1-459C-9C1A-AE952106EEF9";
paths = (
{
closed = 1;
nodes = (
"56 440 LINE",
"56 334 LINE",
"435 334 LINE",
"435 134 LINE",
"544 134 LINE",
"544 440 LINE"
);
}
);
width = 600;
}
);
leftKerningGroup = plus;
rightKerningGroup = plus;
unicode = 00AC;
},
{
glyphname = emptyset;
lastChange = "2016-09-22 07:47:37 +0000";
layers = (
{
background = {
paths = (
{
closed = 1;
nodes = (
"90 -8 OFFCURVE",
"102 8 OFFCURVE",
"112 22 CURVE SMOOTH",
"153 75 LINE",
"197 51 OFFCURVE",
"248 37 OFFCURVE",
"301 37 CURVE SMOOTH",
"463 37 OFFCURVE",
"596 164 OFFCURVE",
"596 319 CURVE SMOOTH",
"596 402 OFFCURVE",
"559 475 OFFCURVE",
"503 525 CURVE",
"552 588 LINE",
"560 599 OFFCURVE",
"571 611 OFFCURVE",
"571 624 CURVE SMOOTH",
"571 637 OFFCURVE",
"561 651 OFFCURVE",
"545 651 CURVE SMOOTH",
"537 651 OFFCURVE",
"529 648 OFFCURVE",
"520 638 CURVE SMOOTH",
"459 558 LINE",
"413 587 OFFCURVE",
"357 603 OFFCURVE",
"301 603 CURVE SMOOTH",
"131 603 OFFCURVE",
"4 469 OFFCURVE",
"4 319 CURVE SMOOTH",
"4 231 OFFCURVE",
"45 156 OFFCURVE",
"108 105 CURVE",
"68 54 LINE SMOOTH",
"61 45 OFFCURVE",
"50 30 OFFCURVE",
"50 22 CURVE SMOOTH",
"50 9 OFFCURVE",
"61 -8 OFFCURVE",
"76 -8 CURVE SMOOTH"
);
},
{
closed = 1;
nodes = (
"88 186 OFFCURVE",
"60 249 OFFCURVE",
"60 319 CURVE SMOOTH",
"60 453 OFFCURVE",
"165 555 OFFCURVE",
"301 555 CURVE SMOOTH",
"349 555 OFFCURVE",
"393 542 OFFCURVE",
"429 520 CURVE",
"137 143 LINE"
);
},
{
closed = 1;
nodes = (
"256 82 OFFCURVE",
"216 93 OFFCURVE",
"182 111 CURVE",
"473 486 LINE",
"515 443 OFFCURVE",
"541 384 OFFCURVE",
"541 319 CURVE SMOOTH",
"541 180 OFFCURVE",
"431 82 OFFCURVE",
"301 82 CURVE SMOOTH"
);
}
);
};
layerId = "9E718F8A-2CEA-4931-B05D-987794BD97DA";
paths = (
{
closed = 1;
nodes = (
"76 -27 LINE",
"153 75 LINE",
"197 51 OFFCURVE",
"248 37 OFFCURVE",
"301 37 CURVE SMOOTH",
"463 37 OFFCURVE",
"596 164 OFFCURVE",
"596 319 CURVE SMOOTH",
"596 402 OFFCURVE",
"559 475 OFFCURVE",
"503 525 CURVE",
"580 625 LINE",
"536 658 LINE",
"459 558 LINE",
"413 587 OFFCURVE",
"357 603 OFFCURVE",
"301 603 CURVE SMOOTH",
"131 603 OFFCURVE",
"4 469 OFFCURVE",
"4 319 CURVE SMOOTH",
"4 231 OFFCURVE",
"45 156 OFFCURVE",
"108 105 CURVE",
"31 3 LINE"
);
},
{
closed = 1;
nodes = (
"88 186 OFFCURVE",
"60 249 OFFCURVE",
"60 319 CURVE SMOOTH",
"60 453 OFFCURVE",
"165 555 OFFCURVE",
"301 555 CURVE SMOOTH",
"349 555 OFFCURVE",
"393 542 OFFCURVE",
"429 520 CURVE",
"137 143 LINE"
);
},
{
closed = 1;
nodes = (
"256 82 OFFCURVE",
"216 93 OFFCURVE",
"182 111 CURVE",
"473 486 LINE",
"515 443 OFFCURVE",
"541 384 OFFCURVE",
"541 319 CURVE SMOOTH",
"541 180 OFFCURVE",
"431 82 OFFCURVE",
"301 82 CURVE SMOOTH"
);
}
);
width = 600;
},
{
background = {
paths = (
{
closed = 1;
nodes = (
"92 -3 OFFCURVE",
"106 16 OFFCURVE",
"119 33 CURVE SMOOTH",
"159 85 LINE",
"202 63 OFFCURVE",
"250 50 OFFCURVE",
"301 50 CURVE SMOOTH",
"463 50 OFFCURVE",
"596 177 OFFCURVE",
"596 332 CURVE SMOOTH",
"596 413 OFFCURVE",
"561 484 OFFCURVE",
"507 535 CURVE",
"547 586 LINE",
"556 600 OFFCURVE",
"568 615 OFFCURVE",
"568 629 CURVE SMOOTH",
"568 646 OFFCURVE",
"554 661 OFFCURVE",
"538 661 CURVE SMOOTH",
"527 661 OFFCURVE",
"518 656 OFFCURVE",
"509 645 CURVE SMOOTH",
"455 574 LINE",
"409 601 OFFCURVE",
"356 616 OFFCURVE",
"301 616 CURVE SMOOTH",
"131 616 OFFCURVE",
"4 482 OFFCURVE",
"4 332 CURVE SMOOTH",
"4 246 OFFCURVE",
"44 171 OFFCURVE",
"105 121 CURVE",
"67 71 LINE SMOOTH",
"58 60 OFFCURVE",
"47 44 OFFCURVE",
"46 36 CURVE",
"43 19 OFFCURVE",
"57 1 OFFCURVE",
"75 -1 CURVE SMOOTH"
);
},
{
closed = 1;
nodes = (
"114 221 OFFCURVE",
"90 274 OFFCURVE",
"90 332 CURVE SMOOTH",
"90 448 OFFCURVE",
"182 535 OFFCURVE",
"301 535 CURVE SMOOTH",
"339 535 OFFCURVE",
"375 525 OFFCURVE",
"405 509 CURVE",
"154 184 LINE"
);
},
{
closed = 1;
nodes = (
"267 129 OFFCURVE",
"236 136 OFFCURVE",
"208 149 CURVE",
"457 470 LINE",
"491 433 OFFCURVE",
"511 385 OFFCURVE",
"511 332 CURVE SMOOTH",
"511 213 OFFCURVE",
"414 129 OFFCURVE",
"301 129 CURVE SMOOTH"
);
}
);
};
layerId = "E1B555A7-F4E1-459C-9C1A-AE952106EEF9";
paths = (
{
closed = 1;
nodes = (
"79 -17 LINE",
"159 85 LINE",
"202 63 OFFCURVE",
"250 50 OFFCURVE",
"301 50 CURVE SMOOTH",
"463 50 OFFCURVE",
"596 177 OFFCURVE",
"596 332 CURVE SMOOTH",
"596 413 OFFCURVE",
"561 484 OFFCURVE",
"507 535 CURVE",
"587 637 LINE",
"534 677 LINE",
"454 575 LINE",
"409 601 OFFCURVE",
"356 616 OFFCURVE",
"301 616 CURVE SMOOTH",
"131 616 OFFCURVE",
"4 482 OFFCURVE",
"4 332 CURVE SMOOTH",
"4 246 OFFCURVE",
"44 171 OFFCURVE",
"105 121 CURVE",
"25 19 LINE"
);
},
{
closed = 1;
nodes = (
"114 221 OFFCURVE",
"90 274 OFFCURVE",
"90 332 CURVE SMOOTH",
"90 448 OFFCURVE",
"182 535 OFFCURVE",
"301 535 CURVE SMOOTH",
"339 535 OFFCURVE",
"375 525 OFFCURVE",
"405 509 CURVE",
"154 184 LINE"
);
},
{
closed = 1;
nodes = (
"267 129 OFFCURVE",
"236 136 OFFCURVE",
"208 149 CURVE",
"457 470 LINE",
"491 433 OFFCURVE",
"511 385 OFFCURVE",
"511 332 CURVE SMOOTH",
"511 213 OFFCURVE",
"414 129 OFFCURVE",
"301 129 CURVE SMOOTH"
);
}
);
width = 600;
}
);
leftKerningGroup = emptyset;
rightKerningGroup = emptyset;
unicode = 2205;
},
{
glyphname = infinity;
lastChange = "2016-09-22 07:47:37 +0000";
layers = (
{
background = {
paths = (
{
closed = 1;
nodes = (
"48 214 OFFCURVE",
"94 156 OFFCURVE",
"173 156 CURVE SMOOTH",
"221 156 OFFCURVE",
"280 186 OFFCURVE",
"309 256 CURVE",
"309 312 LINE",
"280 382 OFFCURVE",
"221 412 OFFCURVE",
"173 412 CURVE SMOOTH",
"94 412 OFFCURVE",
"48 353 OFFCURVE",
"48 284 CURVE SMOOTH"
);
},
{
closed = 1;
nodes = (
"94 332 OFFCURVE",
"123 371 OFFCURVE",
"173 371 CURVE SMOOTH",
"206 371 OFFCURVE",
"247 359 OFFCURVE",
"280 285 CURVE",
"247 210 OFFCURVE",
"206 197 OFFCURVE",
"173 197 CURVE SMOOTH",
"123 197 OFFCURVE",
"94 236 OFFCURVE",
"94 284 CURVE SMOOTH"
);
},
{
closed = 1;
nodes = (
"552 353 OFFCURVE",
"506 412 OFFCURVE",
"427 412 CURVE SMOOTH",
"379 412 OFFCURVE",
"320 382 OFFCURVE",
"291 312 CURVE",
"291 256 LINE",
"320 186 OFFCURVE",
"379 156 OFFCURVE",
"427 156 CURVE SMOOTH",
"506 156 OFFCURVE",
"552 214 OFFCURVE",
"552 284 CURVE SMOOTH"
);
},
{
closed = 1;
nodes = (
"506 236 OFFCURVE",
"477 197 OFFCURVE",
"427 197 CURVE SMOOTH",
"394 197 OFFCURVE",
"353 210 OFFCURVE",
"320 285 CURVE",
"353 359 OFFCURVE",
"394 371 OFFCURVE",
"427 371 CURVE SMOOTH",
"477 371 OFFCURVE",
"506 332 OFFCURVE",
"506 284 CURVE SMOOTH"
);
}
);
};
layerId = "9E718F8A-2CEA-4931-B05D-987794BD97DA";
paths = (
{
closed = 1;
nodes = (
"48 214 OFFCURVE",
"94 156 OFFCURVE",
"173 156 CURVE SMOOTH",
"221 156 OFFCURVE",
"280 186 OFFCURVE",
"309 256 CURVE",
"309 312 LINE",
"280 382 OFFCURVE",
"221 412 OFFCURVE",
"173 412 CURVE SMOOTH",
"94 412 OFFCURVE",
"48 353 OFFCURVE",
"48 284 CURVE SMOOTH"
);
},
{
closed = 1;
nodes = (
"94 332 OFFCURVE",
"123 371 OFFCURVE",
"173 371 CURVE SMOOTH",
"206 371 OFFCURVE",
"247 359 OFFCURVE",
"280 285 CURVE",
"247 210 OFFCURVE",
"206 197 OFFCURVE",
"173 197 CURVE SMOOTH",
"123 197 OFFCURVE",
"94 236 OFFCURVE",
"94 284 CURVE SMOOTH"
);
},
{
closed = 1;
nodes = (
"552 353 OFFCURVE",
"506 412 OFFCURVE",
"427 412 CURVE SMOOTH",
"379 412 OFFCURVE",
"320 382 OFFCURVE",
"291 312 CURVE",
"291 256 LINE",
"320 186 OFFCURVE",
"379 156 OFFCURVE",
"427 156 CURVE SMOOTH",
"506 156 OFFCURVE",
"552 214 OFFCURVE",
"552 284 CURVE SMOOTH"
);
},
{
closed = 1;
nodes = (
"506 236 OFFCURVE",
"477 197 OFFCURVE",
"427 197 CURVE SMOOTH",
"394 197 OFFCURVE",
"353 210 OFFCURVE",
"320 285 CURVE",
"353 359 OFFCURVE",
"394 371 OFFCURVE",
"427 371 CURVE SMOOTH",
"477 371 OFFCURVE",
"506 332 OFFCURVE",
"506 284 CURVE SMOOTH"
);
}
);
width = 600;
},
{
background = {
paths = (
{
closed = 1;
nodes = (
"30 175 OFFCURVE",
"88 110 OFFCURVE",
"180 110 CURVE SMOOTH",
"230 110 OFFCURVE",
"290 136 OFFCURVE",
"321 234 CURVE",
"321 334 LINE",
"290 432 OFFCURVE",
"230 458 OFFCURVE",
"180 458 CURVE SMOOTH",
"87 458 OFFCURVE",
"30 390 OFFCURVE",
"30 284 CURVE SMOOTH"
);
},
{
closed = 1;
nodes = (
"124 331 OFFCURVE",
"146 368 OFFCURVE",
"187 368 CURVE SMOOTH",
"218 368 OFFCURVE",
"249 345 OFFCURVE",
"266 285 CURVE",
"249 224 OFFCURVE",
"218 200 OFFCURVE",
"187 200 CURVE SMOOTH",
"146 200 OFFCURVE",
"124 237 OFFCURVE",
"124 284 CURVE SMOOTH"
);
},
{
closed = 1;
nodes = (
"570 390 OFFCURVE",
"513 458 OFFCURVE",
"420 458 CURVE SMOOTH",
"370 458 OFFCURVE",
"310 432 OFFCURVE",
"279 334 CURVE",
"279 234 LINE",
"310 136 OFFCURVE",
"370 110 OFFCURVE",
"420 110 CURVE SMOOTH",
"512 110 OFFCURVE",
"570 175 OFFCURVE",
"570 284 CURVE SMOOTH"
);
},
{
closed = 1;
nodes = (
"476 237 OFFCURVE",
"454 200 OFFCURVE",
"413 200 CURVE SMOOTH",
"382 200 OFFCURVE",
"351 224 OFFCURVE",
"334 285 CURVE",
"351 345 OFFCURVE",
"382 368 OFFCURVE",
"413 368 CURVE SMOOTH",
"454 368 OFFCURVE",
"476 331 OFFCURVE",
"476 284 CURVE SMOOTH"
);
}
);
};
layerId = "E1B555A7-F4E1-459C-9C1A-AE952106EEF9";
paths = (
{
closed = 1;
nodes = (
"30 175 OFFCURVE",
"88 110 OFFCURVE",
"180 110 CURVE SMOOTH",
"230 110 OFFCURVE",
"290 136 OFFCURVE",
"321 234 CURVE",
"321 334 LINE",
"290 432 OFFCURVE",
"230 458 OFFCURVE",
"180 458 CURVE SMOOTH",
"87 458 OFFCURVE",
"30 390 OFFCURVE",
"30 284 CURVE SMOOTH"
);
},
{
closed = 1;
nodes = (
"124 331 OFFCURVE",
"146 368 OFFCURVE",
"187 368 CURVE SMOOTH",
"218 368 OFFCURVE",
"249 345 OFFCURVE",
"266 285 CURVE",
"249 224 OFFCURVE",
"218 200 OFFCURVE",
"187 200 CURVE SMOOTH",
"146 200 OFFCURVE",
"124 237 OFFCURVE",
"124 284 CURVE SMOOTH"
);
},
{
closed = 1;
nodes = (
"570 390 OFFCURVE",
"513 458 OFFCURVE",
"420 458 CURVE SMOOTH",
"370 458 OFFCURVE",
"310 432 OFFCURVE",
"279 334 CURVE",
"279 234 LINE",
"310 136 OFFCURVE",
"370 110 OFFCURVE",
"420 110 CURVE SMOOTH",
"512 110 OFFCURVE",
"570 175 OFFCURVE",
"570 284 CURVE SMOOTH"
);
},
{
closed = 1;
nodes = (
"476 237 OFFCURVE",
"454 200 OFFCURVE",
"413 200 CURVE SMOOTH",
"382 200 OFFCURVE",
"351 224 OFFCURVE",
"334 285 CURVE",
"351 345 OFFCURVE",
"382 368 OFFCURVE",
"413 368 CURVE SMOOTH",
"454 368 OFFCURVE",
"476 331 OFFCURVE",
"476 284 CURVE SMOOTH"
);
}
);
width = 600;
}
);
leftKerningGroup = infinity;
rightKerningGroup = infinity;
unicode = 221E;
},
{
glyphname = integral;
lastChange = "2016-09-22 07:47:37 +0000";
layers = (
{
background = {
paths = (
{
closed = 1;
nodes = (
"161 -185 OFFCURVE",
"168 -185 OFFCURVE",
"174 -185 CURVE SMOOTH",
"272 -185 OFFCURVE",
"327 -132 OFFCURVE",
"327 -33 CURVE SMOOTH",
"327 553 LINE SMOOTH",
"327 635 OFFCURVE",
"360 661 OFFCURVE",
"425 661 CURVE SMOOTH",
"442 661 LINE SMOOTH",
"456 661 OFFCURVE",
"467 671 OFFCURVE",
"467 685 CURVE SMOOTH",
"467 698 OFFCURVE",
"458 709 OFFCURVE",
"445 709 CURVE SMOOTH",
"439 709 OFFCURVE",
"432 710 OFFCURVE",
"425 710 CURVE SMOOTH",
"327 710 OFFCURVE",
"272 656 OFFCURVE",
"272 557 CURVE SMOOTH",
"272 -29 LINE SMOOTH",
"272 -110 OFFCURVE",
"238 -137 OFFCURVE",
"174 -137 CURVE SMOOTH",
"157 -137 LINE SMOOTH",
"143 -137 OFFCURVE",
"132 -147 OFFCURVE",
"132 -160 CURVE SMOOTH",
"132 -173 OFFCURVE",
"142 -185 OFFCURVE",
"155 -185 CURVE SMOOTH"
);
}
);
};
layerId = "9E718F8A-2CEA-4931-B05D-987794BD97DA";
paths = (
{
closed = 1;
nodes = (
"327 705 OFFCURVE",
"272 651 OFFCURVE",
"272 552 CURVE SMOOTH",
"272 -24 LINE SMOOTH",
"272 -105 OFFCURVE",
"238 -132 OFFCURVE",
"174 -132 CURVE SMOOTH",
"132 -132 LINE",
"132 -180 LINE",
"174 -180 LINE SMOOTH",
"272 -180 OFFCURVE",
"327 -127 OFFCURVE",
"327 -28 CURVE SMOOTH",
"327 548 LINE SMOOTH",
"327 630 OFFCURVE",
"360 656 OFFCURVE",
"425 656 CURVE SMOOTH",
"467 656 LINE",
"467 705 LINE",
"425 705 LINE SMOOTH"
);
}
);
width = 600;
},
{
background = {
paths = (
{
closed = 1;
nodes = (
"152 -185 OFFCURVE",
"159 -185 OFFCURVE",
"166 -185 CURVE SMOOTH",
"281 -185 OFFCURVE",
"377 -139 OFFCURVE",
"377 9 CURVE SMOOTH",
"377 511 LINE SMOOTH",
"377 561 OFFCURVE",
"401 587 OFFCURVE",
"443 587 CURVE SMOOTH",
"456 587 LINE SMOOTH",
"488 587 OFFCURVE",
"512 613 OFFCURVE",
"512 649 CURVE SMOOTH",
"512 682 OFFCURVE",
"489 710 OFFCURVE",
"455 710 CURVE SMOOTH",
"448 710 OFFCURVE",
"441 710 OFFCURVE",
"434 710 CURVE SMOOTH",
"319 710 OFFCURVE",
"223 663 OFFCURVE",
"223 515 CURVE SMOOTH",
"223 13 LINE SMOOTH",
"223 -37 OFFCURVE",
"199 -63 OFFCURVE",
"157 -63 CURVE SMOOTH",
"144 -63 LINE SMOOTH",
"112 -63 OFFCURVE",
"88 -89 OFFCURVE",
"88 -124 CURVE SMOOTH",
"88 -157 OFFCURVE",
"111 -185 OFFCURVE",
"145 -185 CURVE SMOOTH"
);
}
);
};
layerId = "E1B555A7-F4E1-459C-9C1A-AE952106EEF9";
paths = (
{
closed = 1;
nodes = (
"319 705 OFFCURVE",
"223 658 OFFCURVE",
"223 510 CURVE SMOOTH",
"223 18 LINE SMOOTH",
"223 -35 OFFCURVE",
"196 -58 OFFCURVE",
"144 -58 CURVE SMOOTH",
"88 -58 LINE",
"88 -180 LINE",
"166 -180 LINE SMOOTH",
"281 -180 OFFCURVE",
"377 -134 OFFCURVE",
"377 14 CURVE SMOOTH",
"377 506 LINE SMOOTH",
"377 559 OFFCURVE",
"404 582 OFFCURVE",
"456 582 CURVE SMOOTH",
"512 582 LINE",
"512 705 LINE",
"434 705 LINE SMOOTH"
);
}
);
width = 600;
}
);
unicode = 222B;
},
{
glyphname = Ohm;
lastChange = "2016-09-22 07:47:37 +0000";
layers = (
{
background = {
paths = (
{
closed = 1;
nodes = (
"187 713 OFFCURVE",
"59 609 OFFCURVE",
"59 449 CURVE SMOOTH",
"59 348 OFFCURVE",
"96 275 OFFCURVE",
"271 28 CURVE",
"278 48 LINE",
"84 48 LINE SMOOTH",
"72 48 OFFCURVE",
"59 36 OFFCURVE",
"59 24 CURVE SMOOTH",
"59 12 OFFCURVE",
"71 0 OFFCURVE",
"84 0 CURVE SMOOTH",
"294 0 LINE SMOOTH",
"319 0 OFFCURVE",
"329 22 OFFCURVE",
"313 45 CURVE SMOOTH",
"165 260 OFFCURVE",
"116 359 OFFCURVE",
"116 449 CURVE SMOOTH",
"116 581 OFFCURVE",
"218 663 OFFCURVE",
"383 663 CURVE SMOOTH",
"548 663 OFFCURVE",
"650 581 OFFCURVE",
"650 449 CURVE SMOOTH",
"650 361 OFFCURVE",
"603 265 OFFCURVE",
"453 45 CURVE SMOOTH",
"437 22 OFFCURVE",
"447 0 OFFCURVE",
"472 0 CURVE SMOOTH",
"682 0 LINE SMOOTH",
"695 0 OFFCURVE",
"707 12 OFFCURVE",
"707 24 CURVE SMOOTH",
"707 36 OFFCURVE",
"695 48 OFFCURVE",
"682 48 CURVE SMOOTH",
"488 48 LINE",
"495 28 LINE",
"662 254 OFFCURVE",
"707 343 OFFCURVE",
"707 449 CURVE SMOOTH",
"707 609 OFFCURVE",
"579 713 OFFCURVE",
"383 713 CURVE SMOOTH"
);
}
);
};
layerId = "9E718F8A-2CEA-4931-B05D-987794BD97DA";
paths = (
{
closed = 1;
nodes = (
"187 713 OFFCURVE",
"59 609 OFFCURVE",
"59 449 CURVE SMOOTH",
"59 348 OFFCURVE",
"96 275 OFFCURVE",
"271 28 CURVE",
"278 48 LINE",
"64 48 LINE",
"64 0 LINE",
"313 0 LINE",
"313 45 LINE",
"165 260 OFFCURVE",
"116 359 OFFCURVE",
"116 449 CURVE SMOOTH",
"116 581 OFFCURVE",
"218 663 OFFCURVE",
"383 663 CURVE SMOOTH",
"548 663 OFFCURVE",
"650 581 OFFCURVE",
"650 449 CURVE SMOOTH",
"650 361 OFFCURVE",
"603 265 OFFCURVE",
"453 45 CURVE",
"453 0 LINE",
"702 0 LINE",
"702 48 LINE",
"488 48 LINE",
"495 28 LINE",
"662 254 OFFCURVE",
"707 343 OFFCURVE",
"707 449 CURVE SMOOTH",
"707 609 OFFCURVE",
"579 713 OFFCURVE",
"383 713 CURVE SMOOTH"
);
}
);
width = 766;
},
{
background = {
paths = (
{
closed = 1;
nodes = (
"183 715 OFFCURVE",
"46 615 OFFCURVE",
"46 451 CURVE SMOOTH",
"46 362 OFFCURVE",
"83 294 OFFCURVE",
"245 83 CURVE",
"222 129 LINE",
"122 129 LINE SMOOTH",
"71 129 OFFCURVE",
"46 108 OFFCURVE",
"46 65 CURVE SMOOTH",
"46 21 OFFCURVE",
"71 0 OFFCURVE",
"122 0 CURVE SMOOTH",
"303 0 LINE SMOOTH",
"366 0 OFFCURVE",
"391 62 OFFCURVE",
"353 125 CURVE SMOOTH",
"239 314 OFFCURVE",
"207 384 OFFCURVE",
"207 446 CURVE SMOOTH",
"207 538 OFFCURVE",
"278 589 OFFCURVE",
"407 589 CURVE SMOOTH",
"536 589 OFFCURVE",
"607 538 OFFCURVE",
"607 446 CURVE SMOOTH",
"607 384 OFFCURVE",
"575 314 OFFCURVE",
"461 125 CURVE SMOOTH",
"423 62 OFFCURVE",
"448 0 OFFCURVE",
"511 0 CURVE SMOOTH",
"692 0 LINE SMOOTH",
"743 0 OFFCURVE",
"768 21 OFFCURVE",
"768 65 CURVE SMOOTH",
"768 108 OFFCURVE",
"743 129 OFFCURVE",
"692 129 CURVE SMOOTH",
"592 129 LINE",
"569 83 LINE",
"731 294 OFFCURVE",
"768 362 OFFCURVE",
"768 451 CURVE SMOOTH",
"768 612 OFFCURVE",
"627 715 OFFCURVE",
"407 715 CURVE SMOOTH"
);
}
);
};
layerId = "E1B555A7-F4E1-459C-9C1A-AE952106EEF9";
paths = (
{
closed = 1;
nodes = (
"183 715 OFFCURVE",
"46 615 OFFCURVE",
"46 451 CURVE SMOOTH",
"46 362 OFFCURVE",
"83 294 OFFCURVE",
"245 83 CURVE",
"222 129 LINE",
"61 129 LINE",
"61 0 LINE",
"353 0 LINE",
"353 125 LINE",
"239 314 OFFCURVE",
"207 384 OFFCURVE",
"207 446 CURVE SMOOTH",
"207 538 OFFCURVE",
"278 589 OFFCURVE",
"407 589 CURVE SMOOTH",
"536 589 OFFCURVE",
"607 538 OFFCURVE",
"607 446 CURVE SMOOTH",
"607 384 OFFCURVE",
"575 314 OFFCURVE",
"461 125 CURVE",
"461 0 LINE",
"753 0 LINE",
"753 129 LINE",
"592 129 LINE",
"569 83 LINE",
"731 294 OFFCURVE",
"768 362 OFFCURVE",
"768 451 CURVE SMOOTH",
"768 612 OFFCURVE",
"627 715 OFFCURVE",
"407 715 CURVE SMOOTH"
);
}
);
width = 814;
}
);
leftKerningGroup = Ohm;
rightKerningGroup = Ohm;
unicode = 2126;
},
{
glyphname = increment;
lastChange = "2016-09-22 07:47:37 +0000";
layers = (
{
background = {
paths = (
{
closed = 1;
nodes = (
"187 713 OFFCURVE",
"59 609 OFFCURVE",
"59 449 CURVE SMOOTH",
"59 348 OFFCURVE",
"96 275 OFFCURVE",
"271 28 CURVE",
"278 48 LINE",
"84 48 LINE SMOOTH",
"72 48 OFFCURVE",
"59 36 OFFCURVE",
"59 24 CURVE SMOOTH",
"59 12 OFFCURVE",
"71 0 OFFCURVE",
"84 0 CURVE SMOOTH",
"294 0 LINE SMOOTH",
"319 0 OFFCURVE",
"329 22 OFFCURVE",
"313 45 CURVE SMOOTH",
"165 260 OFFCURVE",
"116 359 OFFCURVE",
"116 449 CURVE SMOOTH",
"116 581 OFFCURVE",
"218 663 OFFCURVE",
"383 663 CURVE SMOOTH",
"548 663 OFFCURVE",
"650 581 OFFCURVE",
"650 449 CURVE SMOOTH",
"650 361 OFFCURVE",
"603 265 OFFCURVE",
"453 45 CURVE SMOOTH",
"437 22 OFFCURVE",
"447 0 OFFCURVE",
"472 0 CURVE SMOOTH",
"682 0 LINE SMOOTH",
"695 0 OFFCURVE",
"707 12 OFFCURVE",
"707 24 CURVE SMOOTH",
"707 36 OFFCURVE",
"695 48 OFFCURVE",
"682 48 CURVE SMOOTH",
"488 48 LINE",
"495 28 LINE",
"662 254 OFFCURVE",
"707 343 OFFCURVE",
"707 449 CURVE SMOOTH",
"707 609 OFFCURVE",
"579 713 OFFCURVE",
"383 713 CURVE SMOOTH"
);
}
);
};
layerId = "9E718F8A-2CEA-4931-B05D-987794BD97DA";
paths = (
{
closed = 1;
nodes = (
"187 713 OFFCURVE",
"59 609 OFFCURVE",
"59 449 CURVE SMOOTH",
"59 348 OFFCURVE",
"96 275 OFFCURVE",
"271 28 CURVE",
"278 48 LINE",
"64 48 LINE",
"64 0 LINE",
"313 0 LINE",
"313 45 LINE",
"165 260 OFFCURVE",
"116 359 OFFCURVE",
"116 449 CURVE SMOOTH",
"116 581 OFFCURVE",
"218 663 OFFCURVE",
"383 663 CURVE SMOOTH",
"548 663 OFFCURVE",
"650 581 OFFCURVE",
"650 449 CURVE SMOOTH",
"650 361 OFFCURVE",
"603 265 OFFCURVE",
"453 45 CURVE",
"453 0 LINE",
"702 0 LINE",
"702 48 LINE",
"488 48 LINE",
"495 28 LINE",
"662 254 OFFCURVE",
"707 343 OFFCURVE",
"707 449 CURVE SMOOTH",
"707 609 OFFCURVE",
"579 713 OFFCURVE",
"383 713 CURVE SMOOTH"
);
}
);
width = 766;
},
{
background = {
paths = (
{
closed = 1;
nodes = (
"183 715 OFFCURVE",
"46 615 OFFCURVE",
"46 451 CURVE SMOOTH",
"46 362 OFFCURVE",
"83 294 OFFCURVE",
"245 83 CURVE",
"222 129 LINE",
"122 129 LINE SMOOTH",
"71 129 OFFCURVE",
"46 108 OFFCURVE",
"46 65 CURVE SMOOTH",
"46 21 OFFCURVE",
"71 0 OFFCURVE",
"122 0 CURVE SMOOTH",
"303 0 LINE SMOOTH",
"366 0 OFFCURVE",
"391 62 OFFCURVE",
"353 125 CURVE SMOOTH",
"239 314 OFFCURVE",
"207 384 OFFCURVE",
"207 446 CURVE SMOOTH",
"207 538 OFFCURVE",
"278 589 OFFCURVE",
"407 589 CURVE SMOOTH",
"536 589 OFFCURVE",
"607 538 OFFCURVE",
"607 446 CURVE SMOOTH",
"607 384 OFFCURVE",
"575 314 OFFCURVE",
"461 125 CURVE SMOOTH",
"423 62 OFFCURVE",
"448 0 OFFCURVE",
"511 0 CURVE SMOOTH",
"692 0 LINE SMOOTH",
"743 0 OFFCURVE",
"768 21 OFFCURVE",
"768 65 CURVE SMOOTH",
"768 108 OFFCURVE",
"743 129 OFFCURVE",
"692 129 CURVE SMOOTH",
"592 129 LINE",
"569 83 LINE",
"731 294 OFFCURVE",
"768 362 OFFCURVE",
"768 451 CURVE SMOOTH",
"768 612 OFFCURVE",
"627 715 OFFCURVE",
"407 715 CURVE SMOOTH"
);
}
);
};
layerId = "E1B555A7-F4E1-459C-9C1A-AE952106EEF9";
paths = (
{
closed = 1;
nodes = (
"183 715 OFFCURVE",
"46 615 OFFCURVE",
"46 451 CURVE SMOOTH",
"46 362 OFFCURVE",
"83 294 OFFCURVE",
"245 83 CURVE",
"222 129 LINE",
"61 129 LINE",
"61 0 LINE",
"353 0 LINE",
"353 125 LINE",
"239 314 OFFCURVE",
"207 384 OFFCURVE",
"207 446 CURVE SMOOTH",
"207 538 OFFCURVE",
"278 589 OFFCURVE",
"407 589 CURVE SMOOTH",
"536 589 OFFCURVE",
"607 538 OFFCURVE",
"607 446 CURVE SMOOTH",
"607 384 OFFCURVE",
"575 314 OFFCURVE",
"461 125 CURVE",
"461 0 LINE",
"753 0 LINE",
"753 129 LINE",
"592 129 LINE",
"569 83 LINE",
"731 294 OFFCURVE",
"768 362 OFFCURVE",
"768 451 CURVE SMOOTH",
"768 612 OFFCURVE",
"627 715 OFFCURVE",
"407 715 CURVE SMOOTH"
);
}
);
width = 814;
}
);
leftKerningGroup = increment;
rightKerningGroup = increment;
unicode = 2206;
},
{
glyphname = product;
lastChange = "2016-09-22 07:47:37 +0000";
layers = (
{
background = {
paths = (
{
closed = 1;
nodes = (
"81 705 LINE SMOOTH",
"67 705 OFFCURVE",
"56 694 OFFCURVE",
"56 680 CURVE SMOOTH",
"56 -160 LINE SMOOTH",
"56 -174 OFFCURVE",
"67 -185 OFFCURVE",
"81 -185 CURVE SMOOTH",
"97 -185 OFFCURVE",
"108 -174 OFFCURVE",
"108 -160 CURVE SMOOTH",
"108 655 LINE",
"492 655 LINE",
"492 -160 LINE SMOOTH",
"492 -174 OFFCURVE",
"503 -185 OFFCURVE",
"517 -185 CURVE SMOOTH",
"533 -185 OFFCURVE",
"544 -174 OFFCURVE",
"544 -160 CURVE SMOOTH",
"544 680 LINE SMOOTH",
"544 694 OFFCURVE",
"533 705 OFFCURVE",
"519 705 CURVE SMOOTH"
);
}
);
};
layerId = "9E718F8A-2CEA-4931-B05D-987794BD97DA";
paths = (
{
closed = 1;
nodes = (
"56 705 LINE",
"56 -180 LINE",
"108 -180 LINE",
"108 655 LINE",
"492 655 LINE",
"492 -180 LINE",
"544 -180 LINE",
"544 705 LINE"
);
}
);
width = 600;
},
{
background = {
paths = (
{
closed = 1;
nodes = (
"128 705 LINE SMOOTH",
"86 705 OFFCURVE",
"56 675 OFFCURVE",
"56 633 CURVE SMOOTH",
"56 -113 LINE SMOOTH",
"56 -155 OFFCURVE",
"87 -185 OFFCURVE",
"128 -185 CURVE SMOOTH",
"170 -185 OFFCURVE",
"200 -155 OFFCURVE",
"200 -113 CURVE SMOOTH",
"200 579 LINE",
"400 579 LINE",
"400 -113 LINE SMOOTH",
"400 -155 OFFCURVE",
"431 -185 OFFCURVE",
"472 -185 CURVE SMOOTH",
"514 -185 OFFCURVE",
"544 -155 OFFCURVE",
"544 -113 CURVE SMOOTH",
"544 633 LINE SMOOTH",
"544 675 OFFCURVE",
"514 705 OFFCURVE",
"472 705 CURVE SMOOTH"
);
}
);
};
layerId = "E1B555A7-F4E1-459C-9C1A-AE952106EEF9";
paths = (
{
closed = 1;
nodes = (
"56 705 LINE",
"56 -180 LINE",
"200 -180 LINE",
"200 579 LINE",
"400 579 LINE",
"400 -180 LINE",
"544 -180 LINE",
"544 705 LINE"
);
}
);
width = 600;
}
);
leftKerningGroup = product;
rightKerningGroup = product;
unicode = 220F;
},
{
glyphname = summation;
lastChange = "2016-09-22 07:47:37 +0000";
layers = (
{
background = {
paths = (
{
closed = 1;
nodes = (
"78 -130 LINE",
"78 -173 LINE",
"358 232 LINE SMOOTH",
"375 257 OFFCURVE",
"374 270 OFFCURVE",
"358 294 CURVE SMOOTH",
"78 698 LINE",
"78 655 LINE",
"512 655 LINE SMOOTH",
"526 655 OFFCURVE",
"536 665 OFFCURVE",
"536 680 CURVE SMOOTH",
"536 695 OFFCURVE",
"526 705 OFFCURVE",
"512 705 CURVE SMOOTH",
"62 705 LINE SMOOTH",
"36 705 OFFCURVE",
"27 682 OFFCURVE",
"42 661 CURVE SMOOTH",
"343 226 LINE",
"343 300 LINE",
"42 -136 LINE SMOOTH",
"27 -157 OFFCURVE",
"36 -180 OFFCURVE",
"62 -180 CURVE SMOOTH",
"512 -180 LINE SMOOTH",
"526 -180 OFFCURVE",
"536 -170 OFFCURVE",
"536 -155 CURVE SMOOTH",
"536 -140 OFFCURVE",
"526 -130 OFFCURVE",
"512 -130 CURVE SMOOTH"
);
}
);
};
layerId = "9E718F8A-2CEA-4931-B05D-987794BD97DA";
paths = (
{
closed = 1;
nodes = (
"78 -132 LINE",
"78 -173 LINE",
"365 242 LINE",
"365 284 LINE",
"78 698 LINE",
"78 657 LINE",
"532 657 LINE",
"532 705 LINE",
"40 705 LINE",
"40 665 LINE",
"343 226 LINE",
"343 300 LINE",
"40 -140 LINE",
"40 -180 LINE",
"532 -180 LINE",
"532 -132 LINE"
);
}
);
width = 573;
},
{
background = {
paths = (
{
closed = 1;
nodes = (
"195 -51 LINE",
"195 -97 LINE",
"407 197 LINE SMOOTH",
"443 246 OFFCURVE",
"443 280 OFFCURVE",
"408 329 CURVE SMOOTH",
"195 622 LINE",
"195 576 LINE",
"497 576 LINE SMOOTH",
"550 576 OFFCURVE",
"573 599 OFFCURVE",
"573 640 CURVE SMOOTH",
"573 682 OFFCURVE",
"550 705 OFFCURVE",
"497 705 CURVE SMOOTH",
"101 705 LINE SMOOTH",
"34 705 OFFCURVE",
"9 637 OFFCURVE",
"51 580 CURVE SMOOTH",
"306 227 LINE",
"306 298 LINE",
"51 -55 LINE SMOOTH",
"10 -112 OFFCURVE",
"34 -180 OFFCURVE",
"101 -180 CURVE SMOOTH",
"497 -180 LINE SMOOTH",
"550 -180 OFFCURVE",
"573 -157 OFFCURVE",
"573 -115 CURVE SMOOTH",
"573 -74 OFFCURVE",
"550 -51 OFFCURVE",
"497 -51 CURVE SMOOTH"
);
}
);
};
layerId = "E1B555A7-F4E1-459C-9C1A-AE952106EEF9";
paths = (
{
closed = 1;
nodes = (
"195 -51 LINE",
"195 -97 LINE",
"419 214 LINE",
"420 312 LINE",
"195 622 LINE",
"195 576 LINE",
"560 576 LINE",
"560 705 LINE",
"45 705 LINE",
"45 589 LINE",
"306 227 LINE",
"306 298 LINE",
"45 -64 LINE",
"45 -180 LINE",
"560 -180 LINE",
"560 -51 LINE"
);
}
);
width = 607;
}
);
leftKerningGroup = summation;
rightKerningGroup = summation;
unicode = 2211;
},
{
glyphname = radical;
lastChange = "2016-09-22 07:47:37 +0000";
layers = (
{
background = {
paths = (
{
closed = 1;
nodes = (
"537 718 CURVE SMOOTH",
"527 718 OFFCURVE",
"517 712 OFFCURVE",
"514 701 CURVE SMOOTH",
"278 -109 LINE",
"139 291 LINE SMOOTH",
"136 300 OFFCURVE",
"127 307 OFFCURVE",
"117 307 CURVE SMOOTH",
"31 307 LINE SMOOTH",
"17 307 OFFCURVE",
"6 297 OFFCURVE",
"6 285 CURVE SMOOTH",
"6 271 OFFCURVE",
"17 260 OFFCURVE",
"31 260 CURVE SMOOTH",
"98 260 LINE",
"248 -162 LINE SMOOTH",
"254 -180 OFFCURVE",
"263 -190 OFFCURVE",
"278 -190 CURVE SMOOTH",
"292 -190 OFFCURVE",
"302 -185 OFFCURVE",
"309 -161 CURVE SMOOTH",
"560 682 LINE SMOOTH",
"568 708 OFFCURVE",
"558 718 OFFCURVE"
);
}
);
};
layerId = "9E718F8A-2CEA-4931-B05D-987794BD97DA";
paths = (
{
closed = 1;
nodes = (
"530 758 LINE",
"278 -122 LINE",
"134 307 LINE",
"6 307 LINE",
"6 260 LINE",
"98 260 LINE",
"256 -200 LINE",
"301 -200 LINE",
"582 758 LINE"
);
}
);
width = 600;
},
{
background = {
paths = (
{
closed = 1;
nodes = (
"496 718 CURVE SMOOTH",
"472 718 OFFCURVE",
"453 703 OFFCURVE",
"447 679 CURVE SMOOTH",
"287 -21 LINE",
"202 303 LINE SMOOTH",
"196 326 OFFCURVE",
"177 340 OFFCURVE",
"154 340 CURVE SMOOTH",
"59 340 LINE SMOOTH",
"29 340 OFFCURVE",
"6 317 OFFCURVE",
"6 287 CURVE SMOOTH",
"6 257 OFFCURVE",
"29 234 OFFCURVE",
"59 234 CURVE SMOOTH",
"110 234 LINE",
"209 -119 LINE SMOOTH",
"225 -176 OFFCURVE",
"247 -200 OFFCURVE",
"290 -200 CURVE SMOOTH",
"333 -200 OFFCURVE",
"355 -176 OFFCURVE",
"369 -116 CURVE SMOOTH",
"551 647 LINE SMOOTH",
"561 689 OFFCURVE",
"546 718 OFFCURVE"
);
}
);
};
layerId = "E1B555A7-F4E1-459C-9C1A-AE952106EEF9";
paths = (
{
closed = 1;
nodes = (
"464 758 LINE",
"287 -21 LINE",
"192 340 LINE",
"6 340 LINE",
"6 234 LINE",
"110 234 LINE",
"232 -200 LINE",
"349 -200 LINE",
"576 758 LINE"
);
}
);
width = 600;
}
);
unicode = 221A;
},
{
glyphname = micro;
lastChange = "2016-09-26 10:56:33 +0000";
layers = (
{
background = {
paths = (
{
closed = 1;
nodes = (
"425 495 OFFCURVE",
"414 485 OFFCURVE",
"414 467 CURVE SMOOTH",
"414 209 LINE SMOOTH",
"414 100 OFFCURVE",
"343 42 OFFCURVE",
"255 42 CURVE SMOOTH",
"180 42 OFFCURVE",
"134 77 OFFCURVE",
"134 184 CURVE SMOOTH",
"134 467 LINE SMOOTH",
"134 485 OFFCURVE",
"123 495 OFFCURVE",
"107 495 CURVE SMOOTH",
"91 495 OFFCURVE",
"80 485 OFFCURVE",
"80 467 CURVE SMOOTH",
"80 -157 LINE SMOOTH",
"80 -175 OFFCURVE",
"91 -185 OFFCURVE",
"107 -185 CURVE SMOOTH",
"123 -185 OFFCURVE",
"134 -175 OFFCURVE",
"134 -157 CURVE SMOOTH",
"134 77 LINE",
"114 53 LINE",
"145 12 OFFCURVE",
"193 -7 OFFCURVE",
"252 -7 CURVE SMOOTH",
"333 -7 OFFCURVE",
"401 36 OFFCURVE",
"426 117 CURVE",
"415 108 LINE",
"415 23 LINE SMOOTH",
"415 5 OFFCURVE",
"426 -5 OFFCURVE",
"441 -5 CURVE SMOOTH",
"457 -5 OFFCURVE",
"468 5 OFFCURVE",
"468 23 CURVE SMOOTH",
"468 467 LINE SMOOTH",
"468 485 OFFCURVE",
"457 495 OFFCURVE",
"441 495 CURVE SMOOTH"
);
}
);
};
layerId = "9E718F8A-2CEA-4931-B05D-987794BD97DA";
paths = (
{
closed = 1;
nodes = (
"414 485 LINE",
"414 209 LINE SMOOTH",
"414 108 OFFCURVE",
"351 42 OFFCURVE",
"255 42 CURVE SMOOTH",
"172 42 OFFCURVE",
"134 86 OFFCURVE",
"134 184 CURVE SMOOTH",
"134 485 LINE",
"80 485 LINE",
"80 -180 LINE",
"134 -180 LINE",
"134 77 LINE",
"114 53 LINE",
"143 13 OFFCURVE",
"189 -7 OFFCURVE",
"252 -7 CURVE SMOOTH",
"333 -7 OFFCURVE",
"401 36 OFFCURVE",
"426 117 CURVE",
"415 108 LINE",
"415 0 LINE",
"468 0 LINE",
"468 485 LINE"
);
}
);
width = 550;
},
{
background = {
paths = (
{
closed = 1;
nodes = (
"408 501 OFFCURVE",
"378 473 OFFCURVE",
"378 428 CURVE SMOOTH",
"378 220 LINE SMOOTH",
"378 156 OFFCURVE",
"339 113 OFFCURVE",
"282 113 CURVE SMOOTH",
"233 113 OFFCURVE",
"210 140 OFFCURVE",
"210 197 CURVE SMOOTH",
"210 428 LINE SMOOTH",
"210 473 OFFCURVE",
"180 501 OFFCURVE",
"132 501 CURVE SMOOTH",
"84 501 OFFCURVE",
"54 473 OFFCURVE",
"54 428 CURVE SMOOTH",
"54 -117 LINE SMOOTH",
"54 -158 OFFCURVE",
"84 -185 OFFCURVE",
"130 -185 CURVE SMOOTH",
"178 -185 OFFCURVE",
"210 -156 OFFCURVE",
"210 -114 CURVE SMOOTH",
"210 38 LINE",
"180 -2 LINE",
"201 -6 OFFCURVE",
"216 -8 OFFCURVE",
"238 -8 CURVE SMOOTH",
"310 -8 OFFCURVE",
"366 28 OFFCURVE",
"395 94 CURVE",
"382 100 LINE",
"382 62 LINE SMOOTH",
"382 21 OFFCURVE",
"411 -6 OFFCURVE",
"455 -6 CURVE SMOOTH",
"502 -6 OFFCURVE",
"534 23 OFFCURVE",
"534 65 CURVE SMOOTH",
"534 428 LINE SMOOTH",
"534 473 OFFCURVE",
"504 501 OFFCURVE",
"456 501 CURVE SMOOTH"
);
}
);
};
layerId = "E1B555A7-F4E1-459C-9C1A-AE952106EEF9";
paths = (
{
closed = 1;
nodes = (
"378 491 LINE",
"378 220 LINE SMOOTH",
"378 156 OFFCURVE",
"339 113 OFFCURVE",
"282 113 CURVE SMOOTH",
"233 113 OFFCURVE",
"210 140 OFFCURVE",
"210 197 CURVE SMOOTH",
"210 491 LINE",
"54 491 LINE",
"54 -180 LINE",
"210 -180 LINE",
"210 40 LINE",
"180 -2 LINE",
"201 -6 OFFCURVE",
"216 -8 OFFCURVE",
"238 -8 CURVE SMOOTH",
"310 -8 OFFCURVE",
"366 28 OFFCURVE",
"395 94 CURVE",
"382 98 LINE",
"382 0 LINE",
"534 0 LINE",
"534 491 LINE"
);
}
);
width = 591;
}
);
leftKerningGroup = n;
rightKerningGroup = u;
unicode = 00B5;
},
{
glyphname = partialdiff;
lastChange = "2016-09-22 07:47:37 +0000";
layers = (
{
background = {
paths = (
{
closed = 1;
nodes = (
"433 -15 OFFCURVE",
"538 74 OFFCURVE",
"538 303 CURVE SMOOTH",
"538 674 OFFCURVE",
"366 761 OFFCURVE",
"229 761 CURVE SMOOTH",
"215 761 OFFCURVE",
"204 760 OFFCURVE",
"191 759 CURVE SMOOTH",
"179 757 OFFCURVE",
"170 748 OFFCURVE",
"170 736 CURVE SMOOTH",
"170 725 OFFCURVE",
"182 715 OFFCURVE",
"196 715 CURVE SMOOTH",
"218 715 LINE SMOOTH",
"329 715 OFFCURVE",
"453 653 OFFCURVE",
"479 408 CURVE",
"491 408 LINE",
"447 503 OFFCURVE",
"378 531 OFFCURVE",
"303 531 CURVE SMOOTH",
"175 531 OFFCURVE",
"64 439 OFFCURVE",
"64 258 CURVE SMOOTH",
"64 81 OFFCURVE",
"169 -15 OFFCURVE",
"305 -15 CURVE SMOOTH"
);
},
{
closed = 1;
nodes = (
"198 32 OFFCURVE",
"116 112 OFFCURVE",
"118 259 CURVE SMOOTH",
"120 409 OFFCURVE",
"202 485 OFFCURVE",
"303 485 CURVE SMOOTH",
"400 485 OFFCURVE",
"485 416 OFFCURVE",
"485 277 CURVE SMOOTH",
"485 118 OFFCURVE",
"408 32 OFFCURVE",
"302 32 CURVE SMOOTH"
);
}
);
};
layerId = "9E718F8A-2CEA-4931-B05D-987794BD97DA";
paths = (
{
closed = 1;
nodes = (
"433 -15 OFFCURVE",
"538 74 OFFCURVE",
"538 303 CURVE SMOOTH",
"538 674 OFFCURVE",
"366 761 OFFCURVE",
"229 761 CURVE SMOOTH",
"207 761 OFFCURVE",
"192 759 OFFCURVE",
"170 756 CURVE",
"170 715 LINE",
"218 715 LINE SMOOTH",
"329 715 OFFCURVE",
"453 653 OFFCURVE",
"479 408 CURVE",
"491 408 LINE",
"447 503 OFFCURVE",
"378 531 OFFCURVE",
"303 531 CURVE SMOOTH",
"175 531 OFFCURVE",
"64 439 OFFCURVE",
"64 258 CURVE SMOOTH",
"64 81 OFFCURVE",
"169 -15 OFFCURVE",
"305 -15 CURVE SMOOTH"
);
},
{
closed = 1;
nodes = (
"198 32 OFFCURVE",
"116 112 OFFCURVE",
"118 259 CURVE SMOOTH",
"120 409 OFFCURVE",
"202 485 OFFCURVE",
"303 485 CURVE SMOOTH",
"400 485 OFFCURVE",
"485 416 OFFCURVE",
"485 277 CURVE SMOOTH",
"485 118 OFFCURVE",
"408 32 OFFCURVE",
"302 32 CURVE SMOOTH"
);
}
);
width = 600;
},
{
background = {
paths = (
{
closed = 1;
nodes = (
"469 -18 OFFCURVE",
"552 125 OFFCURVE",
"552 353 CURVE SMOOTH",
"552 652 OFFCURVE",
"388 773 OFFCURVE",
"205 773 CURVE SMOOTH",
"189 773 OFFCURVE",
"175 771 OFFCURVE",
"161 769 CURVE SMOOTH",
"115 762 OFFCURVE",
"94 742 OFFCURVE",
"94 708 CURVE SMOOTH",
"94 675 OFFCURVE",
"122 650 OFFCURVE",
"152 650 CURVE SMOOTH",
"168 650 LINE SMOOTH",
"312 650 OFFCURVE",
"391 562 OFFCURVE",
"391 416 CURVE",
"406 416 LINE",
"376 471 OFFCURVE",
"322 499 OFFCURVE",
"250 499 CURVE SMOOTH",
"131 499 OFFCURVE",
"24 404 OFFCURVE",
"24 240 CURVE SMOOTH",
"24 77 OFFCURVE",
"132 -16 OFFCURVE",
"277 -17 CURVE SMOOTH"
);
},
{
closed = 1;
nodes = (
"223 108 OFFCURVE",
"182 157 OFFCURVE",
"181 240 CURVE SMOOTH",
"181 324 OFFCURVE",
"223 373 OFFCURVE",
"281 373 CURVE SMOOTH",
"340 373 OFFCURVE",
"382 323 OFFCURVE",
"382 240 CURVE SMOOTH",
"382 157 OFFCURVE",
"339 108 OFFCURVE",
"281 108 CURVE SMOOTH"
);
}
);
};
layerId = "E1B555A7-F4E1-459C-9C1A-AE952106EEF9";
paths = (
{
closed = 1;
nodes = (
"457 -18 OFFCURVE",
"552 109 OFFCURVE",
"552 353 CURVE SMOOTH",
"552 613 OFFCURVE",
"420 773 OFFCURVE",
"205 773 CURVE SMOOTH",
"173 773 OFFCURVE",
"147 771 OFFCURVE",
"117 766 CURVE",
"117 650 LINE",
"152 650 LINE SMOOTH",
"309 650 OFFCURVE",
"392 569 OFFCURVE",
"391 418 CURVE",
"406 416 LINE",
"376 471 OFFCURVE",
"322 499 OFFCURVE",
"250 499 CURVE SMOOTH",
"119 499 OFFCURVE",
"24 391 OFFCURVE",
"24 240 CURVE SMOOTH",
"24 85 OFFCURVE",
"124 -16 OFFCURVE",
"277 -17 CURVE SMOOTH"
);
},
{
closed = 1;
nodes = (
"221 108 OFFCURVE",
"182 159 OFFCURVE",
"181 240 CURVE SMOOTH",
"180 321 OFFCURVE",
"221 373 OFFCURVE",
"281 373 CURVE SMOOTH",
"342 373 OFFCURVE",
"382 321 OFFCURVE",
"382 240 CURVE SMOOTH",
"382 160 OFFCURVE",
"341 108 OFFCURVE",
"281 108 CURVE SMOOTH"
);
}
);
width = 600;
}
);
unicode = 2202;
},
{
glyphname = percent;
lastChange = "2016-09-22 07:47:37 +0000";
layers = (
{
background = {
paths = (
{
closed = 1;
nodes = (
"328 281 OFFCURVE",
"392 350 OFFCURVE",
"392 497 CURVE SMOOTH",
"392 644 OFFCURVE",
"328 712 OFFCURVE",
"227 712 CURVE SMOOTH",
"126 712 OFFCURVE",
"62 644 OFFCURVE",
"62 497 CURVE SMOOTH",
"62 350 OFFCURVE",
"126 281 OFFCURVE",
"227 281 CURVE SMOOTH"
);
},
{
closed = 1;
nodes = (
"152 325 OFFCURVE",
"116 378 OFFCURVE",
"116 497 CURVE SMOOTH",
"116 615 OFFCURVE",
"152 668 OFFCURVE",
"227 668 CURVE SMOOTH",
"302 668 OFFCURVE",
"338 615 OFFCURVE",
"338 497 CURVE SMOOTH",
"338 378 OFFCURVE",
"302 325 OFFCURVE",
"227 325 CURVE SMOOTH"
);
},
{
closed = 1;
nodes = (
"679 680 LINE SMOOTH",
"698 714 OFFCURVE",
"654 739 OFFCURVE",
"635 705 CURVE SMOOTH",
"242 25 LINE SMOOTH",
"223 -9 OFFCURVE",
"267 -34 OFFCURVE",
"286 0 CURVE SMOOTH"
);
},
{
closed = 1;
nodes = (
"795 -7 OFFCURVE",
"859 62 OFFCURVE",
"859 209 CURVE SMOOTH",
"859 356 OFFCURVE",
"795 424 OFFCURVE",
"694 424 CURVE SMOOTH",
"593 424 OFFCURVE",
"529 356 OFFCURVE",
"529 209 CURVE SMOOTH",
"529 62 OFFCURVE",
"593 -7 OFFCURVE",
"694 -7 CURVE SMOOTH"
);
},
{
closed = 1;
nodes = (
"619 37 OFFCURVE",
"583 90 OFFCURVE",
"583 209 CURVE SMOOTH",
"583 327 OFFCURVE",
"619 380 OFFCURVE",
"694 380 CURVE SMOOTH",
"769 380 OFFCURVE",
"805 327 OFFCURVE",
"805 209 CURVE SMOOTH",
"805 90 OFFCURVE",
"769 37 OFFCURVE",
"694 37 CURVE SMOOTH"
);
}
);
};
layerId = "9E718F8A-2CEA-4931-B05D-987794BD97DA";
paths = (
{
closed = 1;
nodes = (
"328 281 OFFCURVE",
"392 350 OFFCURVE",
"392 497 CURVE SMOOTH",
"392 644 OFFCURVE",
"328 712 OFFCURVE",
"227 712 CURVE SMOOTH",
"126 712 OFFCURVE",
"62 644 OFFCURVE",
"62 497 CURVE SMOOTH",
"62 350 OFFCURVE",
"126 281 OFFCURVE",
"227 281 CURVE SMOOTH"
);
},
{
closed = 1;
nodes = (
"152 325 OFFCURVE",
"116 378 OFFCURVE",
"116 497 CURVE SMOOTH",
"116 615 OFFCURVE",
"152 668 OFFCURVE",
"227 668 CURVE SMOOTH",
"302 668 OFFCURVE",
"338 615 OFFCURVE",
"338 497 CURVE SMOOTH",
"338 378 OFFCURVE",
"302 325 OFFCURVE",
"227 325 CURVE SMOOTH"
);
},
{
closed = 1;
nodes = (
"795 -7 OFFCURVE",
"859 62 OFFCURVE",
"859 209 CURVE SMOOTH",
"859 356 OFFCURVE",
"795 424 OFFCURVE",
"694 424 CURVE SMOOTH",
"593 424 OFFCURVE",
"529 356 OFFCURVE",
"529 209 CURVE SMOOTH",
"529 62 OFFCURVE",
"593 -7 OFFCURVE",
"694 -7 CURVE SMOOTH"
);
},
{
closed = 1;
nodes = (
"619 37 OFFCURVE",
"583 90 OFFCURVE",
"583 209 CURVE SMOOTH",
"583 327 OFFCURVE",
"619 380 OFFCURVE",
"694 380 CURVE SMOOTH",
"769 380 OFFCURVE",
"805 327 OFFCURVE",
"805 209 CURVE SMOOTH",
"805 90 OFFCURVE",
"769 37 OFFCURVE",
"694 37 CURVE SMOOTH"
);
},
{
closed = 1;
nodes = (
"692 703 LINE",
"648 728 LINE",
"229 2 LINE",
"273 -23 LINE"
);
}
);
width = 921;
},
{
background = {
paths = (
{
closed = 1;
nodes = (
"332 285 OFFCURVE",
"403 358 OFFCURVE",
"403 501 CURVE SMOOTH",
"403 642 OFFCURVE",
"332 716 OFFCURVE",
"219 716 CURVE SMOOTH",
"106 716 OFFCURVE",
"35 642 OFFCURVE",
"35 502 CURVE SMOOTH",
"35 358 OFFCURVE",
"106 285 OFFCURVE",
"219 285 CURVE SMOOTH"
);
},
{
closed = 1;
nodes = (
"181 382 OFFCURVE",
"163 414 OFFCURVE",
"163 501 CURVE SMOOTH",
"163 586 OFFCURVE",
"181 619 OFFCURVE",
"219 619 CURVE SMOOTH",
"256 619 OFFCURVE",
"275 586 OFFCURVE",
"275 501 CURVE SMOOTH",
"275 414 OFFCURVE",
"257 382 OFFCURVE",
"219 382 CURVE SMOOTH"
);
},
{
closed = 1;
nodes = (
"704 627 LINE SMOOTH",
"751 708 OFFCURVE",
"651 766 OFFCURVE",
"604 685 CURVE SMOOTH",
"252 78 LINE SMOOTH",
"205 -3 OFFCURVE",
"305 -61 OFFCURVE",
"352 20 CURVE SMOOTH"
);
},
{
closed = 1;
nodes = (
"850 -7 OFFCURVE",
"921 66 OFFCURVE",
"921 209 CURVE SMOOTH",
"921 350 OFFCURVE",
"850 424 OFFCURVE",
"737 424 CURVE SMOOTH",
"624 424 OFFCURVE",
"553 350 OFFCURVE",
"553 210 CURVE SMOOTH",
"553 66 OFFCURVE",
"624 -7 OFFCURVE",
"737 -7 CURVE SMOOTH"
);
},
{
closed = 1;
nodes = (
"699 90 OFFCURVE",
"681 122 OFFCURVE",
"681 209 CURVE SMOOTH",
"681 294 OFFCURVE",
"699 327 OFFCURVE",
"737 327 CURVE SMOOTH",
"774 327 OFFCURVE",
"793 294 OFFCURVE",
"793 209 CURVE SMOOTH",
"793 122 OFFCURVE",
"775 90 OFFCURVE",
"737 90 CURVE SMOOTH"
);
}
);
};
layerId = "E1B555A7-F4E1-459C-9C1A-AE952106EEF9";
paths = (
{
closed = 1;
nodes = (
"332 285 OFFCURVE",
"403 358 OFFCURVE",
"403 501 CURVE SMOOTH",
"403 642 OFFCURVE",
"332 716 OFFCURVE",
"219 716 CURVE SMOOTH",
"106 716 OFFCURVE",
"35 642 OFFCURVE",
"35 502 CURVE SMOOTH",
"35 358 OFFCURVE",
"106 285 OFFCURVE",
"219 285 CURVE SMOOTH"
);
},
{
closed = 1;
nodes = (
"181 382 OFFCURVE",
"163 414 OFFCURVE",
"163 501 CURVE SMOOTH",
"163 586 OFFCURVE",
"181 619 OFFCURVE",
"219 619 CURVE SMOOTH",
"256 619 OFFCURVE",
"275 586 OFFCURVE",
"275 501 CURVE SMOOTH",
"275 414 OFFCURVE",
"257 382 OFFCURVE",
"219 382 CURVE SMOOTH"
);
},
{
closed = 1;
nodes = (
"850 -7 OFFCURVE",
"921 66 OFFCURVE",
"921 209 CURVE SMOOTH",
"921 350 OFFCURVE",
"850 424 OFFCURVE",
"737 424 CURVE SMOOTH",
"624 424 OFFCURVE",
"553 350 OFFCURVE",
"553 210 CURVE SMOOTH",
"553 66 OFFCURVE",
"624 -7 OFFCURVE",
"737 -7 CURVE SMOOTH"
);
},
{
closed = 1;
nodes = (
"699 90 OFFCURVE",
"681 122 OFFCURVE",
"681 209 CURVE SMOOTH",
"681 294 OFFCURVE",
"699 327 OFFCURVE",
"737 327 CURVE SMOOTH",
"774 327 OFFCURVE",
"793 294 OFFCURVE",
"793 209 CURVE SMOOTH",
"793 122 OFFCURVE",
"775 90 OFFCURVE",
"737 90 CURVE SMOOTH"
);
},
{
closed = 1;
nodes = (
"733 677 LINE",
"633 735 LINE",
"223 28 LINE",
"323 -30 LINE"
);
}
);
width = 956;
}
);
leftKerningGroup = percent;
rightKerningGroup = percent;
unicode = 0025;
},
{
glyphname = perthousand;
lastChange = "2016-09-26 10:56:33 +0000";
layers = (
{
background = {
components = (
{
name = percent;
}
);
paths = (
{
closed = 1;
nodes = (
"1190 -7 OFFCURVE",
"1254 62 OFFCURVE",
"1254 209 CURVE SMOOTH",
"1254 356 OFFCURVE",
"1190 424 OFFCURVE",
"1089 424 CURVE SMOOTH",
"988 424 OFFCURVE",
"924 356 OFFCURVE",
"924 209 CURVE SMOOTH",
"924 62 OFFCURVE",
"988 -7 OFFCURVE",
"1089 -7 CURVE SMOOTH"
);
},
{
closed = 1;
nodes = (
"1014 37 OFFCURVE",
"978 90 OFFCURVE",
"978 209 CURVE SMOOTH",
"978 327 OFFCURVE",
"1014 380 OFFCURVE",
"1089 380 CURVE SMOOTH",
"1164 380 OFFCURVE",
"1200 327 OFFCURVE",
"1200 209 CURVE SMOOTH",
"1200 90 OFFCURVE",
"1164 37 OFFCURVE",
"1089 37 CURVE SMOOTH"
);
}
);
};
components = (
{
name = percent;
}
);
layerId = "9E718F8A-2CEA-4931-B05D-987794BD97DA";
paths = (
{
closed = 1;
nodes = (
"1190 -7 OFFCURVE",
"1254 62 OFFCURVE",
"1254 209 CURVE SMOOTH",
"1254 356 OFFCURVE",
"1190 424 OFFCURVE",
"1089 424 CURVE SMOOTH",
"988 424 OFFCURVE",
"924 356 OFFCURVE",
"924 209 CURVE SMOOTH",
"924 62 OFFCURVE",
"988 -7 OFFCURVE",
"1089 -7 CURVE SMOOTH"
);
},
{
closed = 1;
nodes = (
"1014 37 OFFCURVE",
"978 90 OFFCURVE",
"978 209 CURVE SMOOTH",
"978 327 OFFCURVE",
"1014 380 OFFCURVE",
"1089 380 CURVE SMOOTH",
"1164 380 OFFCURVE",
"1200 327 OFFCURVE",
"1200 209 CURVE SMOOTH",
"1200 90 OFFCURVE",
"1164 37 OFFCURVE",
"1089 37 CURVE SMOOTH"
);
}
);
width = 1316;
},
{
background = {
components = (
{
name = percent;
}
);
paths = (
{
closed = 1;
nodes = (
"1250 -7 OFFCURVE",
"1321 66 OFFCURVE",
"1321 209 CURVE SMOOTH",
"1321 350 OFFCURVE",
"1250 424 OFFCURVE",
"1137 424 CURVE SMOOTH",
"1024 424 OFFCURVE",
"953 350 OFFCURVE",
"953 210 CURVE SMOOTH",
"953 66 OFFCURVE",
"1024 -7 OFFCURVE",
"1137 -7 CURVE SMOOTH"
);
},
{
closed = 1;
nodes = (
"1099 90 OFFCURVE",
"1081 122 OFFCURVE",
"1081 209 CURVE SMOOTH",
"1081 294 OFFCURVE",
"1099 327 OFFCURVE",
"1137 327 CURVE SMOOTH",
"1174 327 OFFCURVE",
"1193 294 OFFCURVE",
"1193 209 CURVE SMOOTH",
"1193 122 OFFCURVE",
"1175 90 OFFCURVE",
"1137 90 CURVE SMOOTH"
);
}
);
};
components = (
{
name = percent;
}
);
layerId = "E1B555A7-F4E1-459C-9C1A-AE952106EEF9";
paths = (
{
closed = 1;
nodes = (
"1250 -7 OFFCURVE",
"1321 66 OFFCURVE",
"1321 209 CURVE SMOOTH",
"1321 350 OFFCURVE",
"1250 424 OFFCURVE",
"1137 424 CURVE SMOOTH",
"1024 424 OFFCURVE",
"953 350 OFFCURVE",
"953 210 CURVE SMOOTH",
"953 66 OFFCURVE",
"1024 -7 OFFCURVE",
"1137 -7 CURVE SMOOTH"
);
},
{
closed = 1;
nodes = (
"1099 90 OFFCURVE",
"1081 122 OFFCURVE",
"1081 209 CURVE SMOOTH",
"1081 294 OFFCURVE",
"1099 327 OFFCURVE",
"1137 327 CURVE SMOOTH",
"1174 327 OFFCURVE",
"1193 294 OFFCURVE",
"1193 209 CURVE SMOOTH",
"1193 122 OFFCURVE",
"1175 90 OFFCURVE",
"1137 90 CURVE SMOOTH"
);
}
);
width = 1356;
}
);
leftKerningGroup = percent;
rightKerningGroup = percent;
unicode = 2030;
},
{
glyphname = lozenge;
lastChange = "2016-09-22 07:47:37 +0000";
layers = (
{
background = {
paths = (
{
closed = 1;
nodes = (
"332 738 LINE SMOOTH",
"326 750 OFFCURVE",
"313 758 OFFCURVE",
"300 758 CURVE SMOOTH",
"286 758 OFFCURVE",
"274 750 OFFCURVE",
"268 738 CURVE SMOOTH",
"57 293 LINE SMOOTH",
"53 284 OFFCURVE",
"53 274 OFFCURVE",
"57 265 CURVE SMOOTH",
"268 -180 LINE SMOOTH",
"274 -192 OFFCURVE",
"287 -200 OFFCURVE",
"300 -200 CURVE SMOOTH",
"314 -200 OFFCURVE",
"326 -192 OFFCURVE",
"332 -180 CURVE SMOOTH",
"543 265 LINE SMOOTH",
"547 274 OFFCURVE",
"547 284 OFFCURVE",
"543 293 CURVE SMOOTH"
);
},
{
closed = 1;
nodes = (
"300 -143 LINE",
"100 279 LINE",
"300 701 LINE",
"500 279 LINE"
);
}
);
};
layerId = "9E718F8A-2CEA-4931-B05D-987794BD97DA";
paths = (
{
closed = 1;
nodes = (
"322 758 LINE",
"278 758 LINE",
"50 279 LINE",
"278 -200 LINE",
"322 -200 LINE",
"550 279 LINE"
);
},
{
closed = 1;
nodes = (
"300 -143 LINE",
"100 279 LINE",
"300 701 LINE",
"500 279 LINE"
);
}
);
width = 600;
},
{
background = {
paths = (
{
closed = 1;
nodes = (
"380 704 LINE SMOOTH",
"366 737 OFFCURVE",
"336 758 OFFCURVE",
"301 758 CURVE SMOOTH",
"265 758 OFFCURVE",
"234 737 OFFCURVE",
"220 704 CURVE SMOOTH",
"57 310 LINE SMOOTH",
"49 290 OFFCURVE",
"49 268 OFFCURVE",
"57 248 CURVE SMOOTH",
"220 -146 LINE SMOOTH",
"234 -179 OFFCURVE",
"264 -200 OFFCURVE",
"299 -200 CURVE SMOOTH",
"335 -200 OFFCURVE",
"366 -179 OFFCURVE",
"380 -146 CURVE SMOOTH",
"543 248 LINE SMOOTH",
"551 268 OFFCURVE",
"551 290 OFFCURVE",
"543 310 CURVE SMOOTH"
);
},
{
closed = 1;
nodes = (
"300 -75 LINE",
"160 279 LINE",
"300 633 LINE",
"440 279 LINE"
);
}
);
};
layerId = "E1B555A7-F4E1-459C-9C1A-AE952106EEF9";
paths = (
{
closed = 1;
nodes = (
"358 758 LINE",
"242 758 LINE",
"44 279 LINE",
"242 -200 LINE",
"358 -200 LINE",
"556 279 LINE"
);
},
{
closed = 1;
nodes = (
"300 -65 LINE",
"160 279 LINE",
"300 623 LINE",
"440 279 LINE"
);
}
);
width = 600;
}
);
unicode = 25CA;
},
{
glyphname = at;
lastChange = "2016-09-22 07:47:37 +0000";
layers = (
{
background = {
paths = (
{
closed = 1;
nodes = (
"596 -149 OFFCURVE",
"698 -108 OFFCURVE",
"761 -40 CURVE SMOOTH",
"785 -14 OFFCURVE",
"755 30 OFFCURVE",
"720 -8 CURVE SMOOTH",
"669 -64 OFFCURVE",
"586 -101 OFFCURVE",
"471 -101 CURVE SMOOTH",
"240 -101 OFFCURVE",
"101 47 OFFCURVE",
"101 276 CURVE SMOOTH",
"101 514 OFFCURVE",
"262 662 OFFCURVE",
"470 662 CURVE SMOOTH",
"713 662 OFFCURVE",
"820 489 OFFCURVE",
"820 345 CURVE SMOOTH",
"820 162 OFFCURVE",
"735 106 OFFCURVE",
"679 106 CURVE SMOOTH",
"629 106 OFFCURVE",
"601 124 OFFCURVE",
"614 201 CURVE SMOOTH",
"659 460 LINE SMOOTH",
"662 477 OFFCURVE",
"653 487 OFFCURVE",
"637 487 CURVE SMOOTH",
"625 487 OFFCURVE",
"614 479 OFFCURVE",
"612 467 CURVE SMOOTH",
"602 411 LINE",
"601 411 LINE",
"589 460 OFFCURVE",
"537 498 OFFCURVE",
"469 498 CURVE SMOOTH",
"339 498 OFFCURVE",
"257 369 OFFCURVE",
"257 237 CURVE SMOOTH",
"257 123 OFFCURVE",
"321 64 OFFCURVE",
"401 64 CURVE SMOOTH",
"469 64 OFFCURVE",
"523 101 OFFCURVE",
"554 155 CURVE",
"556 155 LINE",
"558 96 OFFCURVE",
"598 64 OFFCURVE",
"670 64 CURVE SMOOTH",
"755 64 OFFCURVE",
"869 127 OFFCURVE",
"869 345 CURVE SMOOTH",
"869 516 OFFCURVE",
"739 710 OFFCURVE",
"470 710 CURVE SMOOTH",
"234 710 OFFCURVE",
"52 539 OFFCURVE",
"52 276 CURVE SMOOTH",
"52 21 OFFCURVE",
"214 -149 OFFCURVE",
"471 -149 CURVE SMOOTH"
);
},
{
closed = 1;
nodes = (
"355 106 OFFCURVE",
"304 149 OFFCURVE",
"304 241 CURVE SMOOTH",
"304 346 OFFCURVE",
"366 455 OFFCURVE",
"473 455 CURVE SMOOTH",
"540 455 OFFCURVE",
"585 413 OFFCURVE",
"585 331 CURVE SMOOTH",
"585 221 OFFCURVE",
"523 106 OFFCURVE",
"411 106 CURVE SMOOTH"
);
}
);
};
layerId = "9E718F8A-2CEA-4931-B05D-987794BD97DA";
paths = (
{
closed = 1;
nodes = (
"619 -149 OFFCURVE",
"735 -92 OFFCURVE",
"792 0 CURVE",
"726 0 LINE",
"679 -62 OFFCURVE",
"591 -101 OFFCURVE",
"471 -101 CURVE SMOOTH",
"240 -101 OFFCURVE",
"101 47 OFFCURVE",
"101 276 CURVE SMOOTH",
"101 514 OFFCURVE",
"262 662 OFFCURVE",
"470 662 CURVE SMOOTH",
"713 662 OFFCURVE",
"820 489 OFFCURVE",
"820 345 CURVE SMOOTH",
"820 162 OFFCURVE",
"735 106 OFFCURVE",
"679 106 CURVE SMOOTH",
"629 106 OFFCURVE",
"601 124 OFFCURVE",
"614 201 CURVE SMOOTH",
"663 485 LINE",
"614 485 LINE",
"602 411 LINE",
"601 411 LINE",
"589 460 OFFCURVE",
"537 498 OFFCURVE",
"469 498 CURVE SMOOTH",
"339 498 OFFCURVE",
"257 369 OFFCURVE",
"257 237 CURVE SMOOTH",
"257 123 OFFCURVE",
"321 64 OFFCURVE",
"401 64 CURVE SMOOTH",
"469 64 OFFCURVE",
"523 101 OFFCURVE",
"554 155 CURVE",
"556 155 LINE",
"558 96 OFFCURVE",
"598 64 OFFCURVE",
"670 64 CURVE SMOOTH",
"755 64 OFFCURVE",
"869 127 OFFCURVE",
"869 345 CURVE SMOOTH",
"869 516 OFFCURVE",
"739 710 OFFCURVE",
"470 710 CURVE SMOOTH",
"234 710 OFFCURVE",
"52 539 OFFCURVE",
"52 276 CURVE SMOOTH",
"52 21 OFFCURVE",
"214 -149 OFFCURVE",
"471 -149 CURVE SMOOTH"
);
},
{
closed = 1;
nodes = (
"355 106 OFFCURVE",
"304 149 OFFCURVE",
"304 241 CURVE SMOOTH",
"304 346 OFFCURVE",
"366 455 OFFCURVE",
"473 455 CURVE SMOOTH",
"540 455 OFFCURVE",
"585 413 OFFCURVE",
"585 331 CURVE SMOOTH",
"585 221 OFFCURVE",
"523 106 OFFCURVE",
"411 106 CURVE SMOOTH"
);
}
);
width = 921;
},
{
background = {
paths = (
{
closed = 1;
nodes = (
"596 -159 OFFCURVE",
"689 -127 OFFCURVE",
"737 -93 CURVE SMOOTH",
"794 -52 OFFCURVE",
"741 25 OFFCURVE",
"683 -11 CURVE SMOOTH",
"625 -47 OFFCURVE",
"568 -65 OFFCURVE",
"480 -65 CURVE SMOOTH",
"274 -65 OFFCURVE",
"151 65 OFFCURVE",
"151 264 CURVE SMOOTH",
"151 492 OFFCURVE",
"292 618 OFFCURVE",
"482 618 CURVE SMOOTH",
"689 618 OFFCURVE",
"796 507 OFFCURVE",
"796 340 CURVE SMOOTH",
"796 198 OFFCURVE",
"745 151 OFFCURVE",
"712 151 CURVE SMOOTH",
"662 151 OFFCURVE",
"655 190 OFFCURVE",
"667 258 CURVE SMOOTH",
"696 423 LINE SMOOTH",
"703 463 OFFCURVE",
"683 489 OFFCURVE",
"646 489 CURVE SMOOTH",
"614 489 OFFCURVE",
"594 474 OFFCURVE",
"590 447 CURVE SMOOTH",
"588 436 LINE",
"585 436 LINE",
"567 478 OFFCURVE",
"523 500 OFFCURVE",
"470 500 CURVE SMOOTH",
"346 500 OFFCURVE",
"260 388 OFFCURVE",
"260 244 CURVE SMOOTH",
"260 138 OFFCURVE",
"316 63 OFFCURVE",
"418 63 CURVE SMOOTH",
"491 63 OFFCURVE",
"531 101 OFFCURVE",
"562 147 CURVE",
"564 147 LINE",
"575 98 OFFCURVE",
"620 63 OFFCURVE",
"692 63 CURVE SMOOTH",
"813 63 OFFCURVE",
"900 163 OFFCURVE",
"900 340 CURVE SMOOTH",
"900 550 OFFCURVE",
"751 712 OFFCURVE",
"482 712 CURVE SMOOTH",
"229 712 OFFCURVE",
"40 549 OFFCURVE",
"40 264 CURVE SMOOTH",
"40 15 OFFCURVE",
"208 -159 OFFCURVE",
"480 -159 CURVE SMOOTH"
);
},
{
closed = 1;
nodes = (
"399 151 OFFCURVE",
"373 189 OFFCURVE",
"373 244 CURVE SMOOTH",
"373 322 OFFCURVE",
"412 411 OFFCURVE",
"490 411 CURVE SMOOTH",
"537 411 OFFCURVE",
"566 381 OFFCURVE",
"566 321 CURVE SMOOTH",
"566 238 OFFCURVE",
"525 151 OFFCURVE",
"443 151 CURVE SMOOTH"
);
}
);
};
layerId = "E1B555A7-F4E1-459C-9C1A-AE952106EEF9";
paths = (
{
closed = 1;
nodes = (
"655 -159 OFFCURVE",
"775 -91 OFFCURVE",
"825 0 CURVE",
"681 0 LINE",
"649 -40 OFFCURVE",
"579 -65 OFFCURVE",
"480 -65 CURVE SMOOTH",
"274 -65 OFFCURVE",
"151 65 OFFCURVE",
"151 264 CURVE SMOOTH",
"151 492 OFFCURVE",
"292 618 OFFCURVE",
"482 618 CURVE SMOOTH",
"689 618 OFFCURVE",
"796 507 OFFCURVE",
"796 340 CURVE SMOOTH",
"796 198 OFFCURVE",
"745 151 OFFCURVE",
"712 151 CURVE SMOOTH",
"662 151 OFFCURVE",
"655 190 OFFCURVE",
"667 258 CURVE SMOOTH",
"709 491 LINE",
"598 491 LINE",
"588 436 LINE",
"585 436 LINE",
"567 478 OFFCURVE",
"523 500 OFFCURVE",
"470 500 CURVE SMOOTH",
"346 500 OFFCURVE",
"260 388 OFFCURVE",
"260 244 CURVE SMOOTH",
"260 138 OFFCURVE",
"316 63 OFFCURVE",
"418 63 CURVE SMOOTH",
"491 63 OFFCURVE",
"531 101 OFFCURVE",
"562 147 CURVE",
"564 147 LINE",
"575 98 OFFCURVE",
"620 63 OFFCURVE",
"692 63 CURVE SMOOTH",
"813 63 OFFCURVE",
"900 163 OFFCURVE",
"900 340 CURVE SMOOTH",
"900 550 OFFCURVE",
"751 712 OFFCURVE",
"482 712 CURVE SMOOTH",
"229 712 OFFCURVE",
"40 549 OFFCURVE",
"40 264 CURVE SMOOTH",
"40 15 OFFCURVE",
"208 -159 OFFCURVE",
"480 -159 CURVE SMOOTH"
);
},
{
closed = 1;
nodes = (
"399 151 OFFCURVE",
"373 189 OFFCURVE",
"373 244 CURVE SMOOTH",
"373 322 OFFCURVE",
"412 411 OFFCURVE",
"490 411 CURVE SMOOTH",
"537 411 OFFCURVE",
"566 381 OFFCURVE",
"566 321 CURVE SMOOTH",
"566 238 OFFCURVE",
"525 151 OFFCURVE",
"443 151 CURVE SMOOTH"
);
}
);
width = 940;
}
);
leftKerningGroup = O;
rightKerningGroup = O;
unicode = 0040;
},
{
glyphname = ampersand;
lastChange = "2016-09-22 07:47:37 +0000";
layers = (
{
background = {
paths = (
{
closed = 1;
nodes = (
"435 -7 OFFCURVE",
"574 119 OFFCURVE",
"589 382 CURVE SMOOTH",
"591 420 OFFCURVE",
"540 420 OFFCURVE",
"538 382 CURVE SMOOTH",
"526 140 OFFCURVE",
"406 40 OFFCURVE",
"279 40 CURVE SMOOTH",
"181 40 OFFCURVE",
"114 88 OFFCURVE",
"114 172 CURVE SMOOTH",
"114 238 OFFCURVE",
"146 285 OFFCURVE",
"258 357 CURVE SMOOTH",
"385 438 OFFCURVE",
"453 488 OFFCURVE",
"453 577 CURVE SMOOTH",
"453 662 OFFCURVE",
"394 712 OFFCURVE",
"306 712 CURVE SMOOTH",
"218 712 OFFCURVE",
"145 662 OFFCURVE",
"145 565 CURVE SMOOTH",
"145 499 OFFCURVE",
"184 452 OFFCURVE",
"240 391 CURVE SMOOTH",
"600 0 LINE SMOOTH",
"622 -24 OFFCURVE",
"657 9 OFFCURVE",
"636 32 CURVE SMOOTH",
"281 420 LINE SMOOTH",
"235 471 OFFCURVE",
"200 510 OFFCURVE",
"200 565 CURVE SMOOTH",
"200 627 OFFCURVE",
"244 665 OFFCURVE",
"306 665 CURVE SMOOTH",
"365 665 OFFCURVE",
"401 627 OFFCURVE",
"401 573 CURVE SMOOTH",
"401 513 OFFCURVE",
"353 473 OFFCURVE",
"226 393 CURVE SMOOTH",
"120 326 OFFCURVE",
"60 263 OFFCURVE",
"60 172 CURVE SMOOTH",
"60 62 OFFCURVE",
"151 -7 OFFCURVE",
"277 -7 CURVE SMOOTH"
);
}
);
};
layerId = "9E718F8A-2CEA-4931-B05D-987794BD97DA";
paths = (
{
closed = 1;
nodes = (
"461 -7 OFFCURVE",
"583 155 OFFCURVE",
"590 407 CURVE",
"539 407 LINE",
"535 182 OFFCURVE",
"435 40 OFFCURVE",
"279 40 CURVE SMOOTH",
"178 40 OFFCURVE",
"114 91 OFFCURVE",
"114 172 CURVE SMOOTH",
"114 241 OFFCURVE",
"151 288 OFFCURVE",
"258 357 CURVE SMOOTH",
"412 455 OFFCURVE",
"453 501 OFFCURVE",
"453 577 CURVE SMOOTH",
"453 660 OFFCURVE",
"396 712 OFFCURVE",
"306 712 CURVE SMOOTH",
"209 712 OFFCURVE",
"145 654 OFFCURVE",
"145 565 CURVE SMOOTH",
"145 511 OFFCURVE",
"166 471 OFFCURVE",
"236 391 CURVE SMOOTH",
"580 0 LINE",
"645 0 LINE",
"277 420 LINE SMOOTH",
"216 491 OFFCURVE",
"200 521 OFFCURVE",
"200 565 CURVE SMOOTH",
"200 625 OFFCURVE",
"242 665 OFFCURVE",
"306 665 CURVE SMOOTH",
"363 665 OFFCURVE",
"401 629 OFFCURVE",
"401 573 CURVE SMOOTH",
"401 517 OFFCURVE",
"364 479 OFFCURVE",
"226 393 CURVE SMOOTH",
"108 318 OFFCURVE",
"60 255 OFFCURVE",
"60 172 CURVE SMOOTH",
"60 65 OFFCURVE",
"148 -7 OFFCURVE",
"277 -7 CURVE SMOOTH"
);
}
);
width = 653;
},
{
background = {
paths = (
{
closed = 1;
nodes = (
"468 -8 OFFCURVE",
"630 162 OFFCURVE",
"651 375 CURVE SMOOTH",
"660 462 OFFCURVE",
"534 469 OFFCURVE",
"524 382 CURVE SMOOTH",
"506 231 OFFCURVE",
"406 110 OFFCURVE",
"287 110 CURVE SMOOTH",
"223 110 OFFCURVE",
"181 145 OFFCURVE",
"181 200 CURVE SMOOTH",
"181 260 OFFCURVE",
"219 304 OFFCURVE",
"302 340 CURVE SMOOTH",
"434 396 OFFCURVE",
"494 462 OFFCURVE",
"494 551 CURVE SMOOTH",
"494 649 OFFCURVE",
"421 712 OFFCURVE",
"307 712 CURVE SMOOTH",
"184 712 OFFCURVE",
"100 642 OFFCURVE",
"100 538 CURVE SMOOTH",
"100 481 OFFCURVE",
"128 428 OFFCURVE",
"188 372 CURVE SMOOTH",
"582 10 LINE SMOOTH",
"645 -47 OFFCURVE",
"734 41 OFFCURVE",
"671 99 CURVE SMOOTH",
"321 421 LINE SMOOTH",
"258 479 OFFCURVE",
"239 506 OFFCURVE",
"239 539 CURVE SMOOTH",
"239 582 OFFCURVE",
"267 609 OFFCURVE",
"309 609 CURVE SMOOTH",
"346 609 OFFCURVE",
"371 584 OFFCURVE",
"371 546 CURVE SMOOTH",
"371 500 OFFCURVE",
"336 469 OFFCURVE",
"234 424 CURVE SMOOTH",
"92 362 OFFCURVE",
"30 291 OFFCURVE",
"30 190 CURVE SMOOTH",
"30 72 OFFCURVE",
"133 -8 OFFCURVE",
"280 -8 CURVE SMOOTH"
);
}
);
};
layerId = "E1B555A7-F4E1-459C-9C1A-AE952106EEF9";
paths = (
{
closed = 1;
nodes = (
"487 -8 OFFCURVE",
"647 181 OFFCURVE",
"658 432 CURVE",
"530 432 LINE",
"519 248 OFFCURVE",
"415 110 OFFCURVE",
"287 110 CURVE SMOOTH",
"223 110 OFFCURVE",
"181 145 OFFCURVE",
"181 200 CURVE SMOOTH",
"181 260 OFFCURVE",
"219 304 OFFCURVE",
"302 340 CURVE SMOOTH",
"434 396 OFFCURVE",
"494 462 OFFCURVE",
"494 551 CURVE SMOOTH",
"494 649 OFFCURVE",
"421 712 OFFCURVE",
"307 712 CURVE SMOOTH",
"184 712 OFFCURVE",
"100 642 OFFCURVE",
"100 538 CURVE SMOOTH",
"100 483 OFFCURVE",
"126 432 OFFCURVE",
"181 377 CURVE SMOOTH",
"563 0 LINE",
"749 0 LINE",
"314 426 LINE SMOOTH",
"255 483 OFFCURVE",
"239 507 OFFCURVE",
"239 539 CURVE SMOOTH",
"239 582 OFFCURVE",
"267 609 OFFCURVE",
"309 609 CURVE SMOOTH",
"346 609 OFFCURVE",
"371 584 OFFCURVE",
"371 546 CURVE SMOOTH",
"371 500 OFFCURVE",
"336 469 OFFCURVE",
"234 424 CURVE SMOOTH",
"92 362 OFFCURVE",
"30 291 OFFCURVE",
"30 190 CURVE SMOOTH",
"30 72 OFFCURVE",
"133 -8 OFFCURVE",
"283 -8 CURVE SMOOTH"
);
}
);
width = 693;
}
);
leftKerningGroup = ampersand;
rightKerningGroup = ampersand;
unicode = 0026;
},
{
glyphname = paragraph;
lastChange = "2016-09-26 10:56:33 +0000";
layers = (
{
background = {
paths = (
{
closed = 1;
nodes = (
"242 705 LINE SMOOTH",
"125 705 OFFCURVE",
"51 625 OFFCURVE",
"51 516 CURVE SMOOTH",
"51 407 OFFCURVE",
"125 327 OFFCURVE",
"240 327 CURVE",
"240 -157 LINE SMOOTH",
"240 -173 OFFCURVE",
"252 -185 OFFCURVE",
"267 -185 CURVE SMOOTH",
"282 -185 OFFCURVE",
"294 -173 OFFCURVE",
"294 -157 CURVE SMOOTH",
"294 655 LINE",
"417 655 LINE",
"417 -157 LINE SMOOTH",
"417 -173 OFFCURVE",
"429 -185 OFFCURVE",
"444 -185 CURVE SMOOTH",
"459 -185 OFFCURVE",
"471 -173 OFFCURVE",
"471 -157 CURVE SMOOTH",
"471 677 LINE SMOOTH",
"471 693 OFFCURVE",
"459 705 OFFCURVE",
"443 705 CURVE SMOOTH"
);
}
);
};
layerId = "9E718F8A-2CEA-4931-B05D-987794BD97DA";
paths = (
{
closed = 1;
nodes = (
"242 705 LINE SMOOTH",
"125 705 OFFCURVE",
"51 625 OFFCURVE",
"51 516 CURVE SMOOTH",
"51 407 OFFCURVE",
"125 327 OFFCURVE",
"240 327 CURVE",
"240 -180 LINE",
"294 -180 LINE",
"294 655 LINE",
"417 655 LINE",
"417 -180 LINE",
"471 -180 LINE",
"471 705 LINE"
);
}
);
width = 564;
},
{
background = {
paths = (
{
closed = 1;
nodes = (
"255 705 LINE SMOOTH",
"119 705 OFFCURVE",
"30 617 OFFCURVE",
"30 484 CURVE SMOOTH",
"30 351 OFFCURVE",
"119 262 OFFCURVE",
"252 262 CURVE",
"252 -133 LINE SMOOTH",
"252 -163 OFFCURVE",
"274 -185 OFFCURVE",
"304 -185 CURVE SMOOTH",
"333 -185 OFFCURVE",
"355 -163 OFFCURVE",
"355 -133 CURVE SMOOTH",
"355 613 LINE",
"461 613 LINE",
"461 -133 LINE SMOOTH",
"461 -163 OFFCURVE",
"483 -185 OFFCURVE",
"513 -185 CURVE SMOOTH",
"542 -185 OFFCURVE",
"564 -163 OFFCURVE",
"564 -133 CURVE SMOOTH",
"564 653 LINE SMOOTH",
"564 683 OFFCURVE",
"542 705 OFFCURVE",
"512 705 CURVE SMOOTH"
);
}
);
};
layerId = "E1B555A7-F4E1-459C-9C1A-AE952106EEF9";
paths = (
{
closed = 1;
nodes = (
"255 705 LINE SMOOTH",
"119 705 OFFCURVE",
"30 617 OFFCURVE",
"30 484 CURVE SMOOTH",
"30 351 OFFCURVE",
"119 262 OFFCURVE",
"252 262 CURVE",
"252 -180 LINE",
"355 -180 LINE",
"355 613 LINE",
"461 613 LINE",
"461 -180 LINE",
"564 -180 LINE",
"564 705 LINE"
);
}
);
width = 633;
}
);
leftKerningGroup = paragraph;
rightKerningGroup = H;
unicode = 00B6;
},
{
glyphname = section;
lastChange = "2016-09-22 07:47:37 +0000";
layers = (
{
background = {
paths = (
{
closed = 1;
nodes = (
"444 72 OFFCURVE",
"475 128 OFFCURVE",
"475 181 CURVE SMOOTH",
"475 258 OFFCURVE",
"434 307 OFFCURVE",
"322 365 CURVE SMOOTH",
"239 408 LINE SMOOTH",
"165 446 OFFCURVE",
"139 482 OFFCURVE",
"139 543 CURVE SMOOTH",
"139 621 OFFCURVE",
"185 663 OFFCURVE",
"267 663 CURVE SMOOTH",
"365 663 OFFCURVE",
"398 604 OFFCURVE",
"422 604 CURVE SMOOTH",
"433 604 OFFCURVE",
"442 614 OFFCURVE",
"442 626 CURVE SMOOTH",
"442 641 OFFCURVE",
"433 654 OFFCURVE",
"407 673 CURVE SMOOTH",
"369 701 OFFCURVE",
"320 712 OFFCURVE",
"268 712 CURVE SMOOTH",
"157 712 OFFCURVE",
"85 646 OFFCURVE",
"85 543 CURVE SMOOTH",
"85 457 OFFCURVE",
"119 412 OFFCURVE",
"228 354 CURVE SMOOTH",
"306 312 LINE SMOOTH",
"392 266 OFFCURVE",
"421 233 OFFCURVE",
"421 183 CURVE SMOOTH",
"421 144 OFFCURVE",
"406 109 OFFCURVE",
"378 84 CURVE",
"400 44 LINE"
);
},
{
closed = 1;
nodes = (
"364 -187 OFFCURVE",
"436 -120 OFFCURVE",
"436 -18 CURVE SMOOTH",
"436 66 OFFCURVE",
"402 111 OFFCURVE",
"292 171 CURVE SMOOTH",
"215 213 LINE SMOOTH",
"129 260 OFFCURVE",
"99 293 OFFCURVE",
"99 342 CURVE SMOOTH",
"99 380 OFFCURVE",
"113 414 OFFCURVE",
"139 438 CURVE",
"113 479 LINE",
"73 452 OFFCURVE",
"45 397 OFFCURVE",
"45 344 CURVE SMOOTH",
"45 266 OFFCURVE",
"86 216 OFFCURVE",
"198 160 CURVE SMOOTH",
"281 118 LINE SMOOTH",
"354 81 OFFCURVE",
"382 44 OFFCURVE",
"382 -18 CURVE SMOOTH",
"382 -95 OFFCURVE",
"336 -138 OFFCURVE",
"254 -138 CURVE SMOOTH",
"145 -138 OFFCURVE",
"106 -79 OFFCURVE",
"83 -79 CURVE SMOOTH",
"72 -79 OFFCURVE",
"63 -89 OFFCURVE",
"63 -101 CURVE SMOOTH",
"63 -116 OFFCURVE",
"70 -126 OFFCURVE",
"97 -144 CURVE SMOOTH",
"136 -170 OFFCURVE",
"192 -187 OFFCURVE",
"254 -187 CURVE SMOOTH"
);
}
);
};
layerId = "9E718F8A-2CEA-4931-B05D-987794BD97DA";
paths = (
{
closed = 1;
nodes = (
"444 72 OFFCURVE",
"475 128 OFFCURVE",
"475 181 CURVE SMOOTH",
"475 258 OFFCURVE",
"434 307 OFFCURVE",
"322 365 CURVE SMOOTH",
"239 408 LINE SMOOTH",
"165 446 OFFCURVE",
"139 482 OFFCURVE",
"139 543 CURVE SMOOTH",
"139 621 OFFCURVE",
"185 663 OFFCURVE",
"267 663 CURVE SMOOTH",
"313 663 OFFCURVE",
"357 645 OFFCURVE",
"408 604 CURVE",
"430 647 LINE",
"393 686 OFFCURVE",
"329 712 OFFCURVE",
"268 712 CURVE SMOOTH",
"157 712 OFFCURVE",
"85 646 OFFCURVE",
"85 543 CURVE SMOOTH",
"85 457 OFFCURVE",
"119 412 OFFCURVE",
"228 354 CURVE SMOOTH",
"306 312 LINE SMOOTH",
"392 266 OFFCURVE",
"421 233 OFFCURVE",
"421 183 CURVE SMOOTH",
"421 144 OFFCURVE",
"406 109 OFFCURVE",
"378 84 CURVE",
"400 44 LINE"
);
},
{
closed = 1;
nodes = (
"364 -187 OFFCURVE",
"436 -120 OFFCURVE",
"436 -18 CURVE SMOOTH",
"436 66 OFFCURVE",
"402 111 OFFCURVE",
"292 171 CURVE SMOOTH",
"215 213 LINE SMOOTH",
"129 260 OFFCURVE",
"99 293 OFFCURVE",
"99 342 CURVE SMOOTH",
"99 380 OFFCURVE",
"113 414 OFFCURVE",
"139 438 CURVE",
"113 479 LINE",
"73 452 OFFCURVE",
"45 397 OFFCURVE",
"45 344 CURVE SMOOTH",
"45 266 OFFCURVE",
"86 216 OFFCURVE",
"198 160 CURVE SMOOTH",
"281 118 LINE SMOOTH",
"354 81 OFFCURVE",
"382 44 OFFCURVE",
"382 -18 CURVE SMOOTH",
"382 -95 OFFCURVE",
"336 -138 OFFCURVE",
"254 -138 CURVE SMOOTH",
"191 -138 OFFCURVE",
"146 -122 OFFCURVE",
"88 -79 CURVE",
"66 -122 LINE",
"118 -166 OFFCURVE",
"179 -187 OFFCURVE",
"254 -187 CURVE SMOOTH"
);
}
);
width = 520;
},
{
background = {
paths = (
{
closed = 1;
nodes = (
"513 94 OFFCURVE",
"553 154 OFFCURVE",
"553 228 CURVE SMOOTH",
"553 306 OFFCURVE",
"509 362 OFFCURVE",
"416 404 CURVE SMOOTH",
"283 464 LINE SMOOTH",
"241 483 OFFCURVE",
"222 505 OFFCURVE",
"222 537 CURVE SMOOTH",
"222 576 OFFCURVE",
"254 599 OFFCURVE",
"308 599 CURVE SMOOTH",
"379 599 OFFCURVE",
"406 556 OFFCURVE",
"453 556 CURVE SMOOTH",
"479 556 OFFCURVE",
"499 581 OFFCURVE",
"499 614 CURVE SMOOTH",
"499 638 OFFCURVE",
"489 657 OFFCURVE",
"468 670 CURVE SMOOTH",
"424 697 OFFCURVE",
"366 712 OFFCURVE",
"305 712 CURVE SMOOTH",
"161 712 OFFCURVE",
"70 638 OFFCURVE",
"70 520 CURVE SMOOTH",
"70 456 OFFCURVE",
"118 396 OFFCURVE",
"201 356 CURVE SMOOTH",
"337 290 LINE SMOOTH",
"388 265 OFFCURVE",
"415 232 OFFCURVE",
"415 194 CURVE SMOOTH",
"415 172 OFFCURVE",
"397 139 OFFCURVE",
"376 123 CURVE",
"440 56 LINE"
);
},
{
closed = 1;
nodes = (
"428 -187 OFFCURVE",
"513 -118 OFFCURVE",
"513 5 CURVE SMOOTH",
"513 71 OFFCURVE",
"463 134 OFFCURVE",
"382 172 CURVE SMOOTH",
"246 236 LINE SMOOTH",
"194 261 OFFCURVE",
"167 293 OFFCURVE",
"167 331 CURVE SMOOTH",
"167 351 OFFCURVE",
"182 380 OFFCURVE",
"201 398 CURVE",
"132 463 LINE",
"66 425 OFFCURVE",
"30 367 OFFCURVE",
"30 298 CURVE SMOOTH",
"30 217 OFFCURVE",
"72 162 OFFCURVE",
"166 121 CURVE SMOOTH",
"300 61 LINE SMOOTH",
"344 41 OFFCURVE",
"361 22 OFFCURVE",
"361 -9 CURVE SMOOTH",
"361 -49 OFFCURVE",
"331 -73 OFFCURVE",
"283 -73 CURVE SMOOTH",
"178 -73 OFFCURVE",
"149 -31 OFFCURVE",
"102 -31 CURVE SMOOTH",
"75 -31 OFFCURVE",
"56 -54 OFFCURVE",
"56 -86 CURVE SMOOTH",
"56 -112 OFFCURVE",
"67 -133 OFFCURVE",
"87 -145 CURVE SMOOTH",
"134 -174 OFFCURVE",
"193 -187 OFFCURVE",
"278 -187 CURVE SMOOTH"
);
}
);
};
layerId = "E1B555A7-F4E1-459C-9C1A-AE952106EEF9";
paths = (
{
closed = 1;
nodes = (
"513 94 OFFCURVE",
"553 154 OFFCURVE",
"553 228 CURVE SMOOTH",
"553 306 OFFCURVE",
"509 362 OFFCURVE",
"416 404 CURVE SMOOTH",
"283 464 LINE SMOOTH",
"241 483 OFFCURVE",
"222 505 OFFCURVE",
"222 535 CURVE SMOOTH",
"222 576 OFFCURVE",
"257 599 OFFCURVE",
"318 599 CURVE SMOOTH",
"368 599 OFFCURVE",
"423 581 OFFCURVE",
"467 550 CURVE",
"508 653 LINE",
"453 693 OFFCURVE",
"384 713 OFFCURVE",
"305 712 CURVE SMOOTH",
"160 710 OFFCURVE",
"70 637 OFFCURVE",
"70 520 CURVE SMOOTH",
"70 456 OFFCURVE",
"118 396 OFFCURVE",
"201 356 CURVE SMOOTH",
"337 290 LINE SMOOTH",
"388 265 OFFCURVE",
"415 232 OFFCURVE",
"415 194 CURVE SMOOTH",
"415 172 OFFCURVE",
"397 139 OFFCURVE",
"376 123 CURVE",
"440 56 LINE"
);
},
{
closed = 1;
nodes = (
"426 -189 OFFCURVE",
"513 -120 OFFCURVE",
"513 5 CURVE SMOOTH",
"513 71 OFFCURVE",
"463 134 OFFCURVE",
"382 172 CURVE SMOOTH",
"246 236 LINE SMOOTH",
"194 261 OFFCURVE",
"167 293 OFFCURVE",
"167 331 CURVE SMOOTH",
"167 351 OFFCURVE",
"182 380 OFFCURVE",
"201 398 CURVE",
"132 463 LINE",
"66 425 OFFCURVE",
"30 367 OFFCURVE",
"30 298 CURVE SMOOTH",
"30 217 OFFCURVE",
"72 162 OFFCURVE",
"166 121 CURVE SMOOTH",
"300 61 LINE SMOOTH",
"344 41 OFFCURVE",
"361 22 OFFCURVE",
"361 -9 CURVE SMOOTH",
"361 -49 OFFCURVE",
"325 -73 OFFCURVE",
"268 -73 CURVE SMOOTH",
"212 -73 OFFCURVE",
"151 -54 OFFCURVE",
"97 -19 CURVE",
"56 -126 LINE",
"109 -165 OFFCURVE",
"184 -186 OFFCURVE",
"272 -187 CURVE SMOOTH"
);
}
);
width = 583;
}
);
leftKerningGroup = section;
rightKerningGroup = section;
unicode = 00A7;
},
{
glyphname = trademark;
lastChange = "2016-09-22 07:47:37 +0000";
layers = (
{
background = {
paths = (
{
closed = 1;
nodes = (
"193 279 OFFCURVE",
"204 289 OFFCURVE",
"204 305 CURVE SMOOTH",
"204 660 LINE",
"331 660 LINE SMOOTH",
"346 660 OFFCURVE",
"356 668 OFFCURVE",
"356 682 CURVE SMOOTH",
"356 697 OFFCURVE",
"346 705 OFFCURVE",
"331 705 CURVE SMOOTH",
"25 705 LINE SMOOTH",
"9 705 OFFCURVE",
"0 697 OFFCURVE",
"0 682 CURVE SMOOTH",
"0 668 OFFCURVE",
"9 660 OFFCURVE",
"25 660 CURVE SMOOTH",
"151 660 LINE",
"151 305 LINE SMOOTH",
"151 289 OFFCURVE",
"163 279 OFFCURVE",
"178 279 CURVE SMOOTH"
);
},
{
closed = 1;
nodes = (
"456 279 OFFCURVE",
"466 288 OFFCURVE",
"466 305 CURVE SMOOTH",
"466 637 LINE",
"447 635 LINE",
"593 361 LINE SMOOTH",
"599 349 OFFCURVE",
"607 343 OFFCURVE",
"618 343 CURVE SMOOTH",
"629 343 OFFCURVE",
"638 349 OFFCURVE",
"644 361 CURVE SMOOTH",
"787 635 LINE",
"771 637 LINE",
"771 305 LINE SMOOTH",
"771 288 OFFCURVE",
"780 279 OFFCURVE",
"794 279 CURVE SMOOTH",
"808 279 OFFCURVE",
"818 288 OFFCURVE",
"818 305 CURVE SMOOTH",
"818 682 LINE SMOOTH",
"818 698 OFFCURVE",
"808 708 OFFCURVE",
"793 708 CURVE SMOOTH",
"784 708 OFFCURVE",
"776 704 OFFCURVE",
"768 689 CURVE SMOOTH",
"610 384 LINE",
"628 384 LINE",
"468 689 LINE SMOOTH",
"460 704 OFFCURVE",
"452 708 OFFCURVE",
"443 708 CURVE SMOOTH",
"428 708 OFFCURVE",
"417 698 OFFCURVE",
"417 682 CURVE SMOOTH",
"417 305 LINE SMOOTH",
"417 288 OFFCURVE",
"427 279 OFFCURVE",
"441 279 CURVE SMOOTH"
);
}
);
};
guideLines = (
{
position = "{293, 284}";
}
);
layerId = "9E718F8A-2CEA-4931-B05D-987794BD97DA";
paths = (
{
closed = 1;
nodes = (
"204 284 LINE",
"204 660 LINE",
"350 660 LINE",
"350 705 LINE",
"5 705 LINE",
"5 660 LINE",
"151 660 LINE",
"151 284 LINE"
);
},
{
closed = 1;
nodes = (
"466 284 LINE",
"466 637 LINE",
"447 635 LINE",
"600 348 LINE",
"637 348 LINE",
"787 635 LINE",
"771 637 LINE",
"771 284 LINE",
"818 284 LINE",
"818 705 LINE",
"777 705 LINE",
"610 384 LINE",
"628 384 LINE",
"459 705 LINE",
"417 705 LINE",
"417 284 LINE"
);
}
);
width = 904;
},
{
background = {
paths = (
{
closed = 1;
nodes = (
"236 279 OFFCURVE",
"270 301 OFFCURVE",
"270 346 CURVE SMOOTH",
"270 592 LINE",
"333 592 LINE SMOOTH",
"381 592 OFFCURVE",
"400 613 OFFCURVE",
"400 648 CURVE SMOOTH",
"400 686 OFFCURVE",
"381 705 OFFCURVE",
"333 705 CURVE SMOOTH",
"66 705 LINE SMOOTH",
"19 705 OFFCURVE",
"0 686 OFFCURVE",
"0 648 CURVE SMOOTH",
"0 613 OFFCURVE",
"19 592 OFFCURVE",
"66 592 CURVE SMOOTH",
"129 592 LINE",
"129 346 LINE SMOOTH",
"129 301 OFFCURVE",
"163 279 OFFCURVE",
"199 279 CURVE SMOOTH"
);
},
{
closed = 1;
nodes = (
"532 279 OFFCURVE",
"565 301 OFFCURVE",
"565 348 CURVE SMOOTH",
"565 491 LINE",
"548 489 LINE",
"603 389 LINE SMOOTH",
"620 357 OFFCURVE",
"636 345 OFFCURVE",
"662 345 CURVE SMOOTH",
"689 345 OFFCURVE",
"705 357 OFFCURVE",
"722 389 CURVE SMOOTH",
"775 489 LINE",
"759 491 LINE",
"759 348 LINE SMOOTH",
"759 301 OFFCURVE",
"793 279 OFFCURVE",
"820 279 CURVE SMOOTH",
"849 279 OFFCURVE",
"881 301 OFFCURVE",
"881 348 CURVE SMOOTH",
"881 643 LINE SMOOTH",
"881 688 OFFCURVE",
"849 710 OFFCURVE",
"816 710 CURVE SMOOTH",
"799 710 OFFCURVE",
"775 704 OFFCURVE",
"754 665 CURVE SMOOTH",
"651 472 LINE",
"674 472 LINE",
"573 665 LINE SMOOTH",
"552 704 OFFCURVE",
"526 710 OFFCURVE",
"509 710 CURVE SMOOTH",
"476 710 OFFCURVE",
"443 688 OFFCURVE",
"443 643 CURVE SMOOTH",
"443 348 LINE SMOOTH",
"443 301 OFFCURVE",
"477 279 OFFCURVE",
"504 279 CURVE SMOOTH"
);
}
);
};
guideLines = (
{
position = "{420, 284}";
}
);
layerId = "E1B555A7-F4E1-459C-9C1A-AE952106EEF9";
paths = (
{
closed = 1;
nodes = (
"270 284 LINE",
"270 592 LINE",
"385 592 LINE",
"385 705 LINE",
"15 705 LINE",
"15 592 LINE",
"129 592 LINE",
"129 284 LINE"
);
},
{
closed = 1;
nodes = (
"565 284 LINE",
"565 495 LINE",
"548 493 LINE",
"619 360 LINE",
"706 360 LINE",
"775 493 LINE",
"759 495 LINE",
"759 284 LINE",
"881 284 LINE",
"881 705 LINE",
"775 705 LINE",
"651 472 LINE",
"674 472 LINE",
"552 705 LINE",
"443 705 LINE",
"443 284 LINE"
);
}
);
width = 947;
}
);
leftKerningGroup = trademark;
rightKerningGroup = trademark;
unicode = 2122;
},
{
glyphname = degree;
lastChange = "2016-09-22 07:47:37 +0000";
layers = (
{
background = {
paths = (
{
closed = 1;
nodes = (
"262 424 OFFCURVE",
"324 485 OFFCURVE",
"324 567 CURVE SMOOTH",
"324 649 OFFCURVE",
"262 710 OFFCURVE",
"182 710 CURVE SMOOTH",
"102 710 OFFCURVE",
"40 649 OFFCURVE",
"40 567 CURVE SMOOTH",
"40 485 OFFCURVE",
"102 424 OFFCURVE",
"182 424 CURVE SMOOTH"
);
},
{
closed = 1;
nodes = (
"126 468 OFFCURVE",
"87 509 OFFCURVE",
"87 567 CURVE SMOOTH",
"87 625 OFFCURVE",
"126 666 OFFCURVE",
"182 666 CURVE SMOOTH",
"238 666 OFFCURVE",
"277 625 OFFCURVE",
"277 567 CURVE SMOOTH",
"277 509 OFFCURVE",
"238 468 OFFCURVE",
"182 468 CURVE SMOOTH"
);
}
);
};
layerId = "9E718F8A-2CEA-4931-B05D-987794BD97DA";
paths = (
{
closed = 1;
nodes = (
"262 424 OFFCURVE",
"324 485 OFFCURVE",
"324 567 CURVE SMOOTH",
"324 649 OFFCURVE",
"262 710 OFFCURVE",
"182 710 CURVE SMOOTH",
"102 710 OFFCURVE",
"40 649 OFFCURVE",
"40 567 CURVE SMOOTH",
"40 485 OFFCURVE",
"102 424 OFFCURVE",
"182 424 CURVE SMOOTH"
);
},
{
closed = 1;
nodes = (
"126 468 OFFCURVE",
"87 509 OFFCURVE",
"87 567 CURVE SMOOTH",
"87 625 OFFCURVE",
"126 666 OFFCURVE",
"182 666 CURVE SMOOTH",
"238 666 OFFCURVE",
"277 625 OFFCURVE",
"277 567 CURVE SMOOTH",
"277 509 OFFCURVE",
"238 468 OFFCURVE",
"182 468 CURVE SMOOTH"
);
}
);
width = 364;
},
{
background = {
paths = (
{
closed = 1;
nodes = (
"271 408 OFFCURVE",
"338 472 OFFCURVE",
"338 559 CURVE SMOOTH",
"338 646 OFFCURVE",
"271 710 OFFCURVE",
"184 710 CURVE SMOOTH",
"97 710 OFFCURVE",
"30 646 OFFCURVE",
"30 559 CURVE SMOOTH",
"30 472 OFFCURVE",
"97 408 OFFCURVE",
"184 408 CURVE SMOOTH"
);
},
{
closed = 1;
nodes = (
"145 486 OFFCURVE",
"114 516 OFFCURVE",
"114 559 CURVE SMOOTH",
"114 602 OFFCURVE",
"145 632 OFFCURVE",
"184 632 CURVE SMOOTH",
"223 632 OFFCURVE",
"254 602 OFFCURVE",
"254 559 CURVE SMOOTH",
"254 516 OFFCURVE",
"223 486 OFFCURVE",
"184 486 CURVE SMOOTH"
);
}
);
};
layerId = "E1B555A7-F4E1-459C-9C1A-AE952106EEF9";
paths = (
{
closed = 1;
nodes = (
"271 408 OFFCURVE",
"338 472 OFFCURVE",
"338 559 CURVE SMOOTH",
"338 646 OFFCURVE",
"271 710 OFFCURVE",
"184 710 CURVE SMOOTH",
"97 710 OFFCURVE",
"30 646 OFFCURVE",
"30 559 CURVE SMOOTH",
"30 472 OFFCURVE",
"97 408 OFFCURVE",
"184 408 CURVE SMOOTH"
);
},
{
closed = 1;
nodes = (
"145 486 OFFCURVE",
"114 516 OFFCURVE",
"114 559 CURVE SMOOTH",
"114 602 OFFCURVE",
"145 632 OFFCURVE",
"184 632 CURVE SMOOTH",
"223 632 OFFCURVE",
"254 602 OFFCURVE",
"254 559 CURVE SMOOTH",
"254 516 OFFCURVE",
"223 486 OFFCURVE",
"184 486 CURVE SMOOTH"
);
}
);
width = 368;
}
);
leftKerningGroup = degree;
rightKerningGroup = degree;
unicode = 00B0;
},
{
glyphname = bar;
lastChange = "2016-09-26 10:56:33 +0000";
layers = (
{
background = {
paths = (
{
closed = 1;
nodes = (
"141 -185 OFFCURVE",
"152 -173 OFFCURVE",
"152 -157 CURVE SMOOTH",
"152 682 LINE SMOOTH",
"152 698 OFFCURVE",
"140 710 OFFCURVE",
"125 710 CURVE SMOOTH",
"110 710 OFFCURVE",
"98 698 OFFCURVE",
"98 682 CURVE SMOOTH",
"98 -157 LINE SMOOTH",
"98 -173 OFFCURVE",
"110 -185 OFFCURVE",
"125 -185 CURVE SMOOTH"
);
}
);
};
layerId = "9E718F8A-2CEA-4931-B05D-987794BD97DA";
paths = (
{
closed = 1;
nodes = (
"152 -180 LINE",
"152 705 LINE",
"98 705 LINE",
"98 -180 LINE"
);
}
);
width = 250;
},
{
background = {
paths = (
{
closed = 1;
nodes = (
"188 -185 OFFCURVE",
"218 -155 OFFCURVE",
"218 -113 CURVE SMOOTH",
"218 638 LINE SMOOTH",
"218 680 OFFCURVE",
"187 710 OFFCURVE",
"146 710 CURVE SMOOTH",
"104 710 OFFCURVE",
"74 680 OFFCURVE",
"74 638 CURVE SMOOTH",
"74 -113 LINE SMOOTH",
"74 -155 OFFCURVE",
"105 -185 OFFCURVE",
"146 -185 CURVE SMOOTH"
);
}
);
};
layerId = "E1B555A7-F4E1-459C-9C1A-AE952106EEF9";
paths = (
{
closed = 1;
nodes = (
"218 -180 LINE",
"218 705 LINE",
"74 705 LINE",
"74 -180 LINE"
);
}
);
width = 292;
}
);
leftKerningGroup = H;
rightKerningGroup = H;
unicode = 007C;
},
{
glyphname = brokenbar;
lastChange = "2016-09-26 10:56:33 +0000";
layers = (
{
background = {
paths = (
{
closed = 1;
nodes = (
"109 159 OFFCURVE",
"98 147 OFFCURVE",
"98 131 CURVE SMOOTH",
"98 -157 LINE SMOOTH",
"98 -173 OFFCURVE",
"110 -185 OFFCURVE",
"125 -185 CURVE SMOOTH",
"140 -185 OFFCURVE",
"152 -173 OFFCURVE",
"152 -157 CURVE SMOOTH",
"152 131 LINE SMOOTH",
"152 147 OFFCURVE",
"140 159 OFFCURVE",
"125 159 CURVE SMOOTH"
);
},
{
closed = 1;
nodes = (
"141 366 OFFCURVE",
"152 378 OFFCURVE",
"152 394 CURVE SMOOTH",
"152 682 LINE SMOOTH",
"152 698 OFFCURVE",
"140 710 OFFCURVE",
"125 710 CURVE SMOOTH",
"110 710 OFFCURVE",
"98 698 OFFCURVE",
"98 682 CURVE SMOOTH",
"98 394 LINE SMOOTH",
"98 378 OFFCURVE",
"110 366 OFFCURVE",
"125 366 CURVE SMOOTH"
);
}
);
};
layerId = "9E718F8A-2CEA-4931-B05D-987794BD97DA";
paths = (
{
closed = 1;
nodes = (
"152 371 LINE",
"152 705 LINE",
"98 705 LINE",
"98 371 LINE"
);
},
{
closed = 1;
nodes = (
"152 -180 LINE",
"152 154 LINE",
"98 154 LINE",
"98 -180 LINE"
);
}
);
width = 250;
},
{
background = {
paths = (
{
closed = 1;
nodes = (
"104 159 OFFCURVE",
"74 129 OFFCURVE",
"74 87 CURVE SMOOTH",
"74 -113 LINE SMOOTH",
"74 -155 OFFCURVE",
"105 -185 OFFCURVE",
"146 -185 CURVE SMOOTH",
"187 -185 OFFCURVE",
"218 -155 OFFCURVE",
"218 -113 CURVE SMOOTH",
"218 87 LINE SMOOTH",
"218 129 OFFCURVE",
"187 159 OFFCURVE",
"146 159 CURVE SMOOTH"
);
},
{
closed = 1;
nodes = (
"188 366 OFFCURVE",
"218 396 OFFCURVE",
"218 438 CURVE SMOOTH",
"218 638 LINE SMOOTH",
"218 680 OFFCURVE",
"187 710 OFFCURVE",
"146 710 CURVE SMOOTH",
"105 710 OFFCURVE",
"74 680 OFFCURVE",
"74 638 CURVE SMOOTH",
"74 438 LINE SMOOTH",
"74 396 OFFCURVE",
"105 366 OFFCURVE",
"146 366 CURVE SMOOTH"
);
}
);
};
layerId = "E1B555A7-F4E1-459C-9C1A-AE952106EEF9";
paths = (
{
closed = 1;
nodes = (
"218 371 LINE",
"218 705 LINE",
"74 705 LINE",
"74 371 LINE"
);
},
{
closed = 1;
nodes = (
"218 -180 LINE",
"218 154 LINE",
"74 154 LINE",
"74 -180 LINE"
);
}
);
width = 292;
}
);
leftKerningGroup = H;
rightKerningGroup = H;
unicode = 00A6;
},
{
glyphname = dagger;
lastChange = "2016-09-22 07:47:37 +0000";
layers = (
{
background = {
paths = (
{
closed = 1;
nodes = (
"144 713 OFFCURVE",
"135 704 OFFCURVE",
"135 692 CURVE SMOOTH",
"135 593 LINE",
"41 593 LINE SMOOTH",
"29 593 OFFCURVE",
"20 586 OFFCURVE",
"20 576 CURVE SMOOTH",
"20 566 OFFCURVE",
"29 557 OFFCURVE",
"41 557 CURVE SMOOTH",
"135 557 LINE",
"135 186 LINE SMOOTH",
"135 174 OFFCURVE",
"144 165 OFFCURVE",
"156 165 CURVE SMOOTH",
"168 165 OFFCURVE",
"177 174 OFFCURVE",
"177 186 CURVE SMOOTH",
"177 557 LINE",
"271 557 LINE SMOOTH",
"283 557 OFFCURVE",
"292 564 OFFCURVE",
"292 574 CURVE SMOOTH",
"292 584 OFFCURVE",
"283 593 OFFCURVE",
"271 593 CURVE SMOOTH",
"177 593 LINE",
"177 692 LINE SMOOTH",
"177 704 OFFCURVE",
"168 713 OFFCURVE",
"156 713 CURVE SMOOTH"
);
}
);
};
layerId = "9E718F8A-2CEA-4931-B05D-987794BD97DA";
paths = (
{
closed = 1;
nodes = (
"135 713 LINE",
"135 593 LINE",
"20 593 LINE",
"20 557 LINE",
"135 557 LINE",
"135 165 LINE",
"177 165 LINE",
"177 557 LINE",
"292 557 LINE",
"292 593 LINE",
"177 593 LINE",
"177 713 LINE"
);
}
);
width = 312;
},
{
background = {
paths = (
{
closed = 1;
nodes = (
"147 713 OFFCURVE",
"123 688 OFFCURVE",
"123 655 CURVE SMOOTH",
"123 593 LINE",
"78 593 LINE SMOOTH",
"45 593 OFFCURVE",
"20 576 OFFCURVE",
"20 553 CURVE SMOOTH",
"20 520 OFFCURVE",
"45 495 OFFCURVE",
"78 495 CURVE SMOOTH",
"123 495 LINE",
"123 223 LINE SMOOTH",
"123 190 OFFCURVE",
"147 165 OFFCURVE",
"179 165 CURVE SMOOTH",
"212 165 OFFCURVE",
"237 190 OFFCURVE",
"237 223 CURVE SMOOTH",
"237 495 LINE",
"282 495 LINE SMOOTH",
"315 495 OFFCURVE",
"340 512 OFFCURVE",
"340 535 CURVE SMOOTH",
"340 568 OFFCURVE",
"315 593 OFFCURVE",
"282 593 CURVE SMOOTH",
"237 593 LINE",
"237 655 LINE SMOOTH",
"237 688 OFFCURVE",
"213 713 OFFCURVE",
"180 713 CURVE SMOOTH"
);
}
);
};
layerId = "E1B555A7-F4E1-459C-9C1A-AE952106EEF9";
paths = (
{
closed = 1;
nodes = (
"123 713 LINE",
"123 593 LINE",
"20 593 LINE",
"20 495 LINE",
"123 495 LINE",
"123 165 LINE",
"237 165 LINE",
"237 495 LINE",
"340 495 LINE",
"340 593 LINE",
"237 593 LINE",
"237 713 LINE"
);
}
);
width = 360;
}
);
unicode = 2020;
},
{
glyphname = literSign;
lastChange = "2016-09-22 07:47:37 +0000";
layers = (
{
background = {
paths = (
{
closed = 1;
nodes = (
"370 -14 OFFCURVE",
"405 17 OFFCURVE",
"425 36 CURVE SMOOTH",
"437 48 OFFCURVE",
"435 56 OFFCURVE",
"431 62 CURVE SMOOTH",
"426 70 LINE SMOOTH",
"420 80 OFFCURVE",
"406 80 OFFCURVE",
"396 71 CURVE SMOOTH",
"375 50 OFFCURVE",
"350 33 OFFCURVE",
"321 33 CURVE SMOOTH",
"280 33 OFFCURVE",
"264 60 OFFCURVE",
"264 110 CURVE SMOOTH",
"264 299 LINE",
"271 311 OFFCURVE",
"280 324 OFFCURVE",
"289 336 CURVE SMOOTH",
"358 429 OFFCURVE",
"404 512 OFFCURVE",
"404 616 CURVE SMOOTH",
"404 658 OFFCURVE",
"377 710 OFFCURVE",
"315 710 CURVE SMOOTH",
"250 710 OFFCURVE",
"213 660 OFFCURVE",
"213 556 CURVE SMOOTH",
"213 318 LINE",
"138 224 LINE SMOOTH",
"130 214 OFFCURVE",
"128 203 OFFCURVE",
"137 193 CURVE SMOOTH",
"146 183 OFFCURVE",
"165 184 OFFCURVE",
"177 200 CURVE SMOOTH",
"213 246 LINE",
"213 100 LINE SMOOTH",
"213 38 OFFCURVE",
"240 -14 OFFCURVE",
"316 -14 CURVE SMOOTH"
);
},
{
closed = 1;
nodes = (
"264 546 LINE SMOOTH",
"264 634 OFFCURVE",
"284 658 OFFCURVE",
"313 658 CURVE SMOOTH",
"339 658 OFFCURVE",
"353 629 OFFCURVE",
"353 602 CURVE SMOOTH",
"353 541 OFFCURVE",
"321 471 OFFCURVE",
"281 407 CURVE SMOOTH",
"275 398 OFFCURVE",
"270 390 OFFCURVE",
"264 381 CURVE"
);
}
);
};
layerId = "9E718F8A-2CEA-4931-B05D-987794BD97DA";
paths = (
{
closed = 1;
nodes = (
"370 -14 OFFCURVE",
"405 17 OFFCURVE",
"435 45 CURVE",
"406 80 LINE",
"375 50 OFFCURVE",
"350 33 OFFCURVE",
"321 33 CURVE SMOOTH",
"280 33 OFFCURVE",
"264 60 OFFCURVE",
"264 110 CURVE SMOOTH",
"264 299 LINE",
"271 311 OFFCURVE",
"280 324 OFFCURVE",
"289 336 CURVE SMOOTH",
"358 429 OFFCURVE",
"404 512 OFFCURVE",
"404 616 CURVE SMOOTH",
"404 658 OFFCURVE",
"377 710 OFFCURVE",
"315 710 CURVE SMOOTH",
"250 710 OFFCURVE",
"213 660 OFFCURVE",
"213 556 CURVE SMOOTH",
"213 318 LINE",
"127 211 LINE",
"161 180 LINE",
"213 246 LINE",
"213 100 LINE SMOOTH",
"213 38 OFFCURVE",
"240 -14 OFFCURVE",
"316 -14 CURVE SMOOTH"
);
},
{
closed = 1;
nodes = (
"264 546 LINE SMOOTH",
"264 634 OFFCURVE",
"284 658 OFFCURVE",
"313 658 CURVE SMOOTH",
"339 658 OFFCURVE",
"353 629 OFFCURVE",
"353 602 CURVE SMOOTH",
"353 541 OFFCURVE",
"321 471 OFFCURVE",
"281 407 CURVE SMOOTH",
"275 398 OFFCURVE",
"270 390 OFFCURVE",
"264 381 CURVE"
);
}
);
width = 600;
},
{
background = {
paths = (
{
closed = 1;
nodes = (
"370 -17 OFFCURVE",
"413 -5 OFFCURVE",
"459 27 CURVE SMOOTH",
"478 40 OFFCURVE",
"484 59 OFFCURVE",
"476 80 CURVE SMOOTH",
"471 94 LINE SMOOTH",
"462 120 OFFCURVE",
"441 127 OFFCURVE",
"417 116 CURVE SMOOTH",
"392 104 OFFCURVE",
"374 100 OFFCURVE",
"366 100 CURVE SMOOTH",
"334 100 OFFCURVE",
"310 124 OFFCURVE",
"310 175 CURVE SMOOTH",
"310 289 LINE",
"321 301 OFFCURVE",
"331 312 OFFCURVE",
"342 324 CURVE SMOOTH",
"413 402 OFFCURVE",
"466 480 OFFCURVE",
"466 580 CURVE SMOOTH",
"466 661 OFFCURVE",
"419 710 OFFCURVE",
"335 710 CURVE SMOOTH",
"236 710 OFFCURVE",
"170 635 OFFCURVE",
"170 523 CURVE SMOOTH",
"170 280 LINE",
"100 214 LINE SMOOTH",
"82 197 OFFCURVE",
"81 175 OFFCURVE",
"95 160 CURVE SMOOTH",
"109 145 OFFCURVE",
"133 145 OFFCURVE",
"150 162 CURVE SMOOTH",
"170 181 LINE",
"170 145 LINE SMOOTH",
"170 61 OFFCURVE",
"213 -17 OFFCURVE",
"324 -17 CURVE SMOOTH"
);
},
{
closed = 1;
nodes = (
"310 542 LINE SMOOTH",
"310 584 OFFCURVE",
"325 603 OFFCURVE",
"350 603 CURVE SMOOTH",
"374 603 OFFCURVE",
"382 583 OFFCURVE",
"382 560 CURVE SMOOTH",
"382 517 OFFCURVE",
"358 457 OFFCURVE",
"322 413 CURVE",
"319 408 OFFCURVE",
"315 403 OFFCURVE",
"310 398 CURVE"
);
}
);
};
layerId = "E1B555A7-F4E1-459C-9C1A-AE952106EEF9";
paths = (
{
closed = 1;
nodes = (
"382 -17 OFFCURVE",
"436 5 OFFCURVE",
"481 51 CURVE",
"442 135 LINE",
"415 112 OFFCURVE",
"393 100 OFFCURVE",
"368 100 CURVE SMOOTH",
"337 100 OFFCURVE",
"312 124 OFFCURVE",
"312 175 CURVE SMOOTH",
"312 289 LINE",
"319 297 OFFCURVE",
"334 313 OFFCURVE",
"344 324 CURVE SMOOTH",
"414 402 OFFCURVE",
"469 479 OFFCURVE",
"469 578 CURVE SMOOTH",
"469 661 OFFCURVE",
"421 710 OFFCURVE",
"336 710 CURVE SMOOTH",
"235 710 OFFCURVE",
"168 634 OFFCURVE",
"168 522 CURVE SMOOTH",
"168 278 LINE",
"67 185 LINE",
"118 132 LINE",
"168 178 LINE",
"168 147 LINE SMOOTH",
"168 62 OFFCURVE",
"212 -17 OFFCURVE",
"324 -17 CURVE SMOOTH"
);
},
{
closed = 1;
nodes = (
"312 542 LINE SMOOTH",
"312 582 OFFCURVE",
"327 601 OFFCURVE",
"352 601 CURVE SMOOTH",
"376 601 OFFCURVE",
"383 581 OFFCURVE",
"383 558 CURVE SMOOTH",
"383 516 OFFCURVE",
"358 458 OFFCURVE",
"324 413 CURVE SMOOTH",
"321 409 OFFCURVE",
"317 404 OFFCURVE",
"312 399 CURVE"
);
}
);
width = 600;
}
);
unicode = 2113;
},
{
glyphname = daggerdbl;
lastChange = "2016-09-22 07:47:37 +0000";
layers = (
{
background = {
paths = (
{
closed = 1;
nodes = (
"144 713 OFFCURVE",
"135 704 OFFCURVE",
"135 692 CURVE SMOOTH",
"135 593 LINE",
"41 593 LINE SMOOTH",
"29 593 OFFCURVE",
"20 586 OFFCURVE",
"20 576 CURVE SMOOTH",
"20 566 OFFCURVE",
"29 557 OFFCURVE",
"41 557 CURVE SMOOTH",
"135 557 LINE",
"135 321 LINE",
"41 321 LINE SMOOTH",
"29 321 OFFCURVE",
"20 314 OFFCURVE",
"20 304 CURVE SMOOTH",
"20 294 OFFCURVE",
"29 285 OFFCURVE",
"41 285 CURVE SMOOTH",
"135 285 LINE",
"135 186 LINE SMOOTH",
"135 174 OFFCURVE",
"144 165 OFFCURVE",
"156 165 CURVE SMOOTH",
"168 165 OFFCURVE",
"177 174 OFFCURVE",
"177 186 CURVE SMOOTH",
"177 285 LINE",
"271 285 LINE SMOOTH",
"283 285 OFFCURVE",
"292 292 OFFCURVE",
"292 302 CURVE SMOOTH",
"292 312 OFFCURVE",
"283 321 OFFCURVE",
"271 321 CURVE SMOOTH",
"177 321 LINE",
"177 557 LINE",
"271 557 LINE SMOOTH",
"283 557 OFFCURVE",
"292 564 OFFCURVE",
"292 574 CURVE SMOOTH",
"292 584 OFFCURVE",
"283 593 OFFCURVE",
"271 593 CURVE SMOOTH",
"177 593 LINE",
"177 692 LINE SMOOTH",
"177 704 OFFCURVE",
"168 713 OFFCURVE",
"156 713 CURVE SMOOTH"
);
}
);
};
layerId = "9E718F8A-2CEA-4931-B05D-987794BD97DA";
paths = (
{
closed = 1;
nodes = (
"135 713 LINE",
"135 593 LINE",
"20 593 LINE",
"20 557 LINE",
"135 557 LINE",
"135 321 LINE",
"20 321 LINE",
"20 285 LINE",
"135 285 LINE",
"135 165 LINE",
"177 165 LINE",
"177 285 LINE",
"292 285 LINE",
"292 321 LINE",
"177 321 LINE",
"177 557 LINE",
"292 557 LINE",
"292 593 LINE",
"177 593 LINE",
"177 713 LINE"
);
}
);
width = 312;
},
{
background = {
paths = (
{
closed = 1;
nodes = (
"147 713 OFFCURVE",
"123 688 OFFCURVE",
"123 655 CURVE SMOOTH",
"123 595 LINE",
"78 595 LINE SMOOTH",
"45 595 OFFCURVE",
"20 577 OFFCURVE",
"20 554 CURVE SMOOTH",
"20 521 OFFCURVE",
"45 496 OFFCURVE",
"78 496 CURVE SMOOTH",
"123 496 LINE",
"123 381 LINE",
"78 381 LINE SMOOTH",
"45 381 OFFCURVE",
"20 364 OFFCURVE",
"20 342 CURVE SMOOTH",
"20 309 OFFCURVE",
"45 284 OFFCURVE",
"78 284 CURVE SMOOTH",
"123 284 LINE",
"123 222 LINE SMOOTH",
"123 189 OFFCURVE",
"147 164 OFFCURVE",
"179 164 CURVE SMOOTH",
"212 164 OFFCURVE",
"237 189 OFFCURVE",
"237 222 CURVE SMOOTH",
"237 284 LINE",
"282 284 LINE SMOOTH",
"315 284 OFFCURVE",
"340 301 OFFCURVE",
"340 323 CURVE SMOOTH",
"340 356 OFFCURVE",
"315 381 OFFCURVE",
"282 381 CURVE SMOOTH",
"237 381 LINE",
"237 496 LINE",
"282 496 LINE SMOOTH",
"315 496 OFFCURVE",
"340 514 OFFCURVE",
"340 537 CURVE SMOOTH",
"340 570 OFFCURVE",
"315 595 OFFCURVE",
"282 595 CURVE SMOOTH",
"237 595 LINE",
"237 655 LINE SMOOTH",
"237 688 OFFCURVE",
"213 713 OFFCURVE",
"180 713 CURVE SMOOTH"
);
}
);
};
layerId = "E1B555A7-F4E1-459C-9C1A-AE952106EEF9";
paths = (
{
closed = 1;
nodes = (
"123 713 LINE",
"123 595 LINE",
"20 595 LINE",
"20 496 LINE",
"123 496 LINE",
"123 381 LINE",
"20 381 LINE",
"20 284 LINE",
"123 284 LINE",
"123 164 LINE",
"237 164 LINE",
"237 284 LINE",
"340 284 LINE",
"340 381 LINE",
"237 381 LINE",
"237 496 LINE",
"340 496 LINE",
"340 595 LINE",
"237 595 LINE",
"237 713 LINE"
);
}
);
width = 360;
}
);
unicode = 2021;
},
{
glyphname = estimated;
lastChange = "2016-09-22 07:47:37 +0000";
layers = (
{
background = {
paths = (
{
closed = 1;
nodes = (
"612 -5 OFFCURVE",
"696 40 OFFCURVE",
"775 134 CURVE",
"704 134 LINE",
"636 68 OFFCURVE",
"558 27 OFFCURVE",
"445 27 CURVE SMOOTH",
"341 27 OFFCURVE",
"256 60 OFFCURVE",
"203 124 CURVE SMOOTH",
"198 130 OFFCURVE",
"196 144 OFFCURVE",
"196 153 CURVE SMOOTH",
"196 325 LINE SMOOTH",
"196 329 OFFCURVE",
"198 331 OFFCURVE",
"201 331 CURVE SMOOTH",
"844 331 LINE",
"844 512 OFFCURVE",
"752 710 OFFCURVE",
"446 710 CURVE SMOOTH",
"199 710 OFFCURVE",
"50 532 OFFCURVE",
"50 345 CURVE SMOOTH",
"50 158 OFFCURVE",
"195 -5 OFFCURVE",
"448 -5 CURVE SMOOTH"
);
},
{
closed = 1;
nodes = (
"198 362 OFFCURVE",
"196 364 OFFCURVE",
"196 368 CURVE SMOOTH",
"196 557 LINE SMOOTH",
"196 567 OFFCURVE",
"199 578 OFFCURVE",
"205 584 CURVE SMOOTH",
"276 655 OFFCURVE",
"365 679 OFFCURVE",
"443 679 CURVE SMOOTH",
"513 679 OFFCURVE",
"619 663 OFFCURVE",
"688 582 CURVE SMOOTH",
"694 575 OFFCURVE",
"698 565 OFFCURVE",
"698 556 CURVE SMOOTH",
"698 368 LINE SMOOTH",
"698 364 OFFCURVE",
"696 362 OFFCURVE",
"693 362 CURVE SMOOTH",
"201 362 LINE SMOOTH"
);
}
);
};
layerId = "9E718F8A-2CEA-4931-B05D-987794BD97DA";
paths = (
{
closed = 1;
nodes = (
"612 -5 OFFCURVE",
"696 40 OFFCURVE",
"775 134 CURVE",
"704 134 LINE",
"636 68 OFFCURVE",
"558 27 OFFCURVE",
"445 27 CURVE SMOOTH",
"341 27 OFFCURVE",
"256 60 OFFCURVE",
"203 124 CURVE SMOOTH",
"198 130 OFFCURVE",
"196 144 OFFCURVE",
"196 153 CURVE SMOOTH",
"196 325 LINE SMOOTH",
"196 329 OFFCURVE",
"198 331 OFFCURVE",
"201 331 CURVE SMOOTH",
"844 331 LINE",
"844 512 OFFCURVE",
"752 710 OFFCURVE",
"446 710 CURVE SMOOTH",
"199 710 OFFCURVE",
"50 532 OFFCURVE",
"50 345 CURVE SMOOTH",
"50 158 OFFCURVE",
"195 -5 OFFCURVE",
"448 -5 CURVE SMOOTH"
);
},
{
closed = 1;
nodes = (
"198 362 OFFCURVE",
"196 364 OFFCURVE",
"196 368 CURVE SMOOTH",
"196 557 LINE SMOOTH",
"196 567 OFFCURVE",
"199 578 OFFCURVE",
"205 584 CURVE SMOOTH",
"276 655 OFFCURVE",
"365 679 OFFCURVE",
"443 679 CURVE SMOOTH",
"513 679 OFFCURVE",
"619 663 OFFCURVE",
"688 582 CURVE SMOOTH",
"694 575 OFFCURVE",
"698 565 OFFCURVE",
"698 556 CURVE SMOOTH",
"698 368 LINE SMOOTH",
"698 364 OFFCURVE",
"696 362 OFFCURVE",
"693 362 CURVE SMOOTH",
"201 362 LINE SMOOTH"
);
}
);
width = 894;
},
{
background = {
paths = (
{
closed = 1;
nodes = (
"612 -5 OFFCURVE",
"696 40 OFFCURVE",
"775 134 CURVE",
"704 134 LINE",
"636 68 OFFCURVE",
"558 27 OFFCURVE",
"445 27 CURVE SMOOTH",
"341 27 OFFCURVE",
"256 60 OFFCURVE",
"203 124 CURVE SMOOTH",
"198 130 OFFCURVE",
"196 144 OFFCURVE",
"196 153 CURVE SMOOTH",
"196 325 LINE SMOOTH",
"196 329 OFFCURVE",
"198 331 OFFCURVE",
"201 331 CURVE SMOOTH",
"844 331 LINE",
"844 512 OFFCURVE",
"752 710 OFFCURVE",
"446 710 CURVE SMOOTH",
"199 710 OFFCURVE",
"50 532 OFFCURVE",
"50 345 CURVE SMOOTH",
"50 158 OFFCURVE",
"195 -5 OFFCURVE",
"448 -5 CURVE SMOOTH"
);
},
{
closed = 1;
nodes = (
"198 362 OFFCURVE",
"196 364 OFFCURVE",
"196 368 CURVE SMOOTH",
"196 557 LINE SMOOTH",
"196 567 OFFCURVE",
"199 578 OFFCURVE",
"205 584 CURVE SMOOTH",
"276 655 OFFCURVE",
"365 679 OFFCURVE",
"443 679 CURVE SMOOTH",
"513 679 OFFCURVE",
"619 663 OFFCURVE",
"688 582 CURVE SMOOTH",
"694 575 OFFCURVE",
"698 565 OFFCURVE",
"698 556 CURVE SMOOTH",
"698 368 LINE SMOOTH",
"698 364 OFFCURVE",
"696 362 OFFCURVE",
"693 362 CURVE SMOOTH",
"201 362 LINE SMOOTH"
);
}
);
};
layerId = "E1B555A7-F4E1-459C-9C1A-AE952106EEF9";
paths = (
{
closed = 1;
nodes = (
"612 -5 OFFCURVE",
"696 40 OFFCURVE",
"775 134 CURVE",
"704 134 LINE",
"636 68 OFFCURVE",
"558 27 OFFCURVE",
"445 27 CURVE SMOOTH",
"341 27 OFFCURVE",
"256 60 OFFCURVE",
"203 124 CURVE SMOOTH",
"198 130 OFFCURVE",
"196 144 OFFCURVE",
"196 153 CURVE SMOOTH",
"196 325 LINE SMOOTH",
"196 329 OFFCURVE",
"198 331 OFFCURVE",
"201 331 CURVE SMOOTH",
"844 331 LINE",
"844 512 OFFCURVE",
"752 710 OFFCURVE",
"446 710 CURVE SMOOTH",
"199 710 OFFCURVE",
"50 532 OFFCURVE",
"50 345 CURVE SMOOTH",
"50 158 OFFCURVE",
"195 -5 OFFCURVE",
"448 -5 CURVE SMOOTH"
);
},
{
closed = 1;
nodes = (
"198 362 OFFCURVE",
"196 364 OFFCURVE",
"196 368 CURVE SMOOTH",
"196 557 LINE SMOOTH",
"196 567 OFFCURVE",
"199 578 OFFCURVE",
"205 584 CURVE SMOOTH",
"276 655 OFFCURVE",
"365 679 OFFCURVE",
"443 679 CURVE SMOOTH",
"513 679 OFFCURVE",
"619 663 OFFCURVE",
"688 582 CURVE SMOOTH",
"694 575 OFFCURVE",
"698 565 OFFCURVE",
"698 556 CURVE SMOOTH",
"698 368 LINE SMOOTH",
"698 364 OFFCURVE",
"696 362 OFFCURVE",
"693 362 CURVE SMOOTH",
"201 362 LINE SMOOTH"
);
}
);
width = 894;
}
);
leftKerningGroup = estimated;
rightKerningGroup = estimated;
unicode = 212E;
},
{
glyphname = asciicircum;
lastChange = "2016-09-22 07:47:37 +0000";
layers = (
{
background = {
paths = (
{
closed = 1;
nodes = (
"286 628 OFFCURVE",
"275 620 OFFCURVE",
"269 608 CURVE SMOOTH",
"67 176 LINE SMOOTH",
"53 144 OFFCURVE",
"95 127 OFFCURVE",
"105 151 CURVE SMOOTH",
"314 598 LINE",
"286 598 LINE",
"495 151 LINE SMOOTH",
"506 127 OFFCURVE",
"548 144 OFFCURVE",
"533 176 CURVE SMOOTH",
"331 608 LINE SMOOTH",
"325 620 OFFCURVE",
"313 628 OFFCURVE",
"300 628 CURVE SMOOTH"
);
}
);
};
layerId = "9E718F8A-2CEA-4931-B05D-987794BD97DA";
paths = (
{
closed = 1;
nodes = (
"278 628 LINE",
"50 140 LINE",
"100 140 LINE",
"314 598 LINE",
"286 598 LINE",
"500 140 LINE",
"550 140 LINE",
"322 628 LINE"
);
}
);
width = 600;
},
{
background = {
paths = (
{
closed = 1;
nodes = (
"264 631 OFFCURVE",
"234 610 OFFCURVE",
"220 577 CURVE SMOOTH",
"77 224 LINE SMOOTH",
"47 152 OFFCURVE",
"148 112 OFFCURVE",
"171 172 CURVE SMOOTH",
"338 590 LINE",
"262 590 LINE",
"429 172 LINE SMOOTH",
"452 113 OFFCURVE",
"554 150 OFFCURVE",
"523 224 CURVE SMOOTH",
"380 577 LINE SMOOTH",
"367 610 OFFCURVE",
"336 631 OFFCURVE",
"300 631 CURVE SMOOTH"
);
}
);
};
layerId = "E1B555A7-F4E1-459C-9C1A-AE952106EEF9";
paths = (
{
closed = 1;
nodes = (
"242 631 LINE",
"44 143 LINE",
"160 143 LINE",
"338 590 LINE",
"262 590 LINE",
"440 143 LINE",
"556 143 LINE",
"358 631 LINE"
);
}
);
width = 600;
}
);
unicode = 005E;
},
